# https://github.com/mikedh/trimesh

o cap_40x60_nolip.stl
v 17.00000000 -30.00000000 2.50000000
v -17.00000000 -30.00000000 2.50000000
v -17.00000000 -30.00000000 0.00000000
v 17.00000000 -30.00000000 0.00000000
v -16.70000076 -26.70000076 0.00000000
v -17.14720345 -29.99638557 0.00000000
v -17.29405212 -29.98555374 0.00000000
v -17.44019127 -29.96752930 0.00000000
v -17.58527184 -29.94235611 0.00000000
v -17.72894096 -29.91009331 0.00000000
v -17.87085342 -29.87082100 0.00000000
v -18.01066971 -29.82463264 0.00000000
v -18.14805031 -29.77163887 0.00000000
v -18.28266525 -29.71196747 0.00000000
v -18.41419029 -29.64576340 0.00000000
v -18.54230881 -29.57318497 0.00000000
v -18.66670990 -29.49440956 0.00000000
v -18.78709793 -29.40962219 0.00000000
v -18.90317917 -29.31903076 0.00000000
v -19.01467705 -29.22285271 0.00000000
v -19.12132072 -29.12132072 0.00000000
v -19.22285271 -29.01467705 0.00000000
v -19.31903076 -28.90317917 0.00000000
v -19.40962219 -28.78709793 0.00000000
v -19.49440956 -28.66670990 0.00000000
v -19.57318497 -28.54230881 0.00000000
v -19.64576340 -28.41419029 0.00000000
v -19.71196747 -28.28266525 0.00000000
v -19.77163887 -28.14805031 0.00000000
v -19.82463264 -28.01066971 0.00000000
v -19.87082100 -27.87085342 0.00000000
v -19.91009331 -27.72894096 0.00000000
v -19.94235611 -27.58527184 0.00000000
v -19.96752930 -27.44019127 0.00000000
v -19.98555374 -27.29405212 0.00000000
v -19.99638557 -27.14720345 0.00000000
v -20.00000000 -27.00000000 0.00000000
v -13.19200039 -27.29999924 0.00000000
v -13.19200039 -26.70000076 0.00000000
v -12.19200039 -27.29999924 0.00000000
v -17.29999924 -20.79199982 0.00000000
v -16.70000076 -20.79199982 0.00000000
v -17.29999924 -19.79199982 0.00000000
v -4.73066664 -27.29999924 0.00000000
v -4.73066664 -26.70000076 0.00000000
v -12.19200039 -26.70000076 0.00000000
v -3.73066664 -27.29999924 0.00000000
v -17.29999924 -12.67520046 0.00000000
v -16.70000076 -12.67520046 0.00000000
v -16.70000076 -19.79199982 0.00000000
v -17.29999924 -11.67520046 0.00000000
v 3.73066664 -27.29999924 0.00000000
v -3.73066664 -26.70000076 0.00000000
v 3.73066664 -26.70000076 0.00000000
v -17.29999924 -4.55840015 0.00000000
v -16.70000076 -11.67520046 0.00000000
v -16.70000076 -4.55840015 0.00000000
v 12.19200039 -26.70000076 0.00000000
v 4.73066664 -27.29999924 0.00000000
v 4.73066664 -26.70000076 0.00000000
v 12.19200039 -27.29999924 0.00000000
v -17.29999924 3.55839992 0.00000000
v -16.70000076 -3.55839992 0.00000000
v -17.29999924 -3.55839992 0.00000000
v -16.70000076 3.55839992 0.00000000
v 13.19200039 -27.29999924 0.00000000
v 16.70000076 -26.70000076 0.00000000
v 13.19200039 -26.70000076 0.00000000
v 17.14720345 -29.99638557 0.00000000
v 17.29405212 -29.98555374 0.00000000
v 17.44019127 -29.96752930 0.00000000
v 17.58527184 -29.94235611 0.00000000
v 17.72894096 -29.91009331 0.00000000
v 17.87085342 -29.87082100 0.00000000
v 18.01066971 -29.82463264 0.00000000
v 18.14805031 -29.77163887 0.00000000
v 18.28266525 -29.71196747 0.00000000
v 18.41419029 -29.64576340 0.00000000
v 18.54230881 -29.57318497 0.00000000
v 18.66670990 -29.49440956 0.00000000
v 18.78709793 -29.40962219 0.00000000
v 18.90317917 -29.31903076 0.00000000
v 19.01467705 -29.22285271 0.00000000
v 19.12132072 -29.12132072 0.00000000
v 19.22285271 -29.01467705 0.00000000
v 19.31903076 -28.90317917 0.00000000
v 19.40962219 -28.78709793 0.00000000
v 19.49440956 -28.66670990 0.00000000
v 19.57318497 -28.54230881 0.00000000
v 19.64576340 -28.41419029 0.00000000
v 19.71196747 -28.28266525 0.00000000
v 19.77163887 -28.14805031 0.00000000
v 19.82463264 -28.01066971 0.00000000
v 19.87082100 -27.87085342 0.00000000
v 19.91009331 -27.72894096 0.00000000
v 19.94235611 -27.58527184 0.00000000
v 19.96752930 -27.44019127 0.00000000
v 19.98555374 -27.29405212 0.00000000
v 19.99638557 -27.14720345 0.00000000
v 20.00000000 -27.00000000 0.00000000
v -16.70000076 11.67520046 0.00000000
v -17.29999924 4.55840015 0.00000000
v -17.29999924 11.67520046 0.00000000
v -16.70000076 4.55840015 0.00000000
v 17.29999924 -20.79199982 0.00000000
v 16.70000076 -20.79199982 0.00000000
v 17.29999924 -19.79199982 0.00000000
v -16.70000076 19.79199982 0.00000000
v -17.29999924 12.67520046 0.00000000
v -17.29999924 19.79199982 0.00000000
v -16.70000076 12.67520046 0.00000000
v 16.70000076 -12.67520046 0.00000000
v 16.70000076 -19.79199982 0.00000000
v 17.29999924 -12.67520046 0.00000000
v 17.29999924 -11.67520046 0.00000000
v -20.00000000 27.00000000 0.00000000
v -17.29999924 20.79199982 0.00000000
v -16.70000076 26.70000076 0.00000000
v -16.70000076 20.79199982 0.00000000
v -19.31903076 28.90317917 0.00000000
v -19.22285271 29.01467705 0.00000000
v -19.40962219 28.78709793 0.00000000
v -19.49440956 28.66670990 0.00000000
v -19.57318497 28.54230881 0.00000000
v -19.64576340 28.41419029 0.00000000
v -19.71196747 28.28266525 0.00000000
v -19.77163887 28.14805031 0.00000000
v -19.82463264 28.01066971 0.00000000
v -19.87082100 27.87085342 0.00000000
v -19.91009331 27.72894096 0.00000000
v -19.94235611 27.58527184 0.00000000
v -19.96752930 27.44019127 0.00000000
v -19.98555374 27.29405212 0.00000000
v -19.99638557 27.14720345 0.00000000
v -19.12132072 29.12132072 0.00000000
v -19.01467705 29.22285271 0.00000000
v -18.90317917 29.31903076 0.00000000
v -18.78709793 29.40962219 0.00000000
v -18.66670990 29.49440956 0.00000000
v -18.54230881 29.57318497 0.00000000
v -18.41419029 29.64576340 0.00000000
v -18.28266525 29.71196747 0.00000000
v -18.14805031 29.77163887 0.00000000
v -18.01066971 29.82463264 0.00000000
v -17.87085342 29.87082100 0.00000000
v 16.70000076 -4.55840015 0.00000000
v 16.70000076 -11.67520046 0.00000000
v -17.72894096 29.91009331 0.00000000
v -17.58527184 29.94235611 0.00000000
v -17.44019127 29.96752930 0.00000000
v -17.29405212 29.98555374 0.00000000
v 17.29999924 -4.55840015 0.00000000
v -17.14720345 29.99638557 0.00000000
v -17.00000000 30.00000000 0.00000000
v -13.19200039 27.29999924 0.00000000
v -13.19200039 26.70000076 0.00000000
v -12.19200039 27.29999924 0.00000000
v 17.29999924 3.55839992 0.00000000
v 16.70000076 -3.55839992 0.00000000
v 16.70000076 3.55839992 0.00000000
v 17.29999924 -3.55839992 0.00000000
v -4.73066664 27.29999924 0.00000000
v -12.19200039 26.70000076 0.00000000
v -4.73066664 26.70000076 0.00000000
v 17.29999924 11.67520046 0.00000000
v 16.70000076 4.55840015 0.00000000
v 16.70000076 11.67520046 0.00000000
v 17.29999924 4.55840015 0.00000000
v 3.73066664 26.70000076 0.00000000
v -3.73066664 26.70000076 0.00000000
v -3.73066664 27.29999924 0.00000000
v 3.73066664 27.29999924 0.00000000
v 17.29999924 19.79199982 0.00000000
v 16.70000076 12.67520046 0.00000000
v 16.70000076 19.79199982 0.00000000
v 17.29999924 12.67520046 0.00000000
v 12.19200039 27.29999924 0.00000000
v 4.73066664 26.70000076 0.00000000
v 4.73066664 27.29999924 0.00000000
v 12.19200039 26.70000076 0.00000000
v 16.70000076 26.70000076 0.00000000
v 13.19200039 26.70000076 0.00000000
v 13.19200039 27.29999924 0.00000000
v 17.29999924 20.79199982 0.00000000
v 16.70000076 20.79199982 0.00000000
v 17.00000000 30.00000000 0.00000000
v 20.00000000 27.00000000 0.00000000
v 19.99638557 27.14720345 0.00000000
v 17.14720345 29.99638557 0.00000000
v 19.98555374 27.29405212 0.00000000
v 17.29405212 29.98555374 0.00000000
v 19.96752930 27.44019127 0.00000000
v 17.44019127 29.96752930 0.00000000
v 19.94235611 27.58527184 0.00000000
v 17.58527184 29.94235611 0.00000000
v 19.91009331 27.72894096 0.00000000
v 17.72894096 29.91009331 0.00000000
v 19.87082100 27.87085342 0.00000000
v 17.87085342 29.87082100 0.00000000
v 19.82463264 28.01066971 0.00000000
v 18.01066971 29.82463264 0.00000000
v 19.77163887 28.14805031 0.00000000
v 18.14805031 29.77163887 0.00000000
v 19.71196747 28.28266525 0.00000000
v 18.28266525 29.71196747 0.00000000
v 19.64576340 28.41419029 0.00000000
v 18.41419029 29.64576340 0.00000000
v 19.57318497 28.54230881 0.00000000
v 18.54230881 29.57318497 0.00000000
v 18.66670990 29.49440956 0.00000000
v 19.49440956 28.66670990 0.00000000
v 19.40962219 28.78709793 0.00000000
v 18.78709793 29.40962219 0.00000000
v 19.31903076 28.90317917 0.00000000
v 18.90317917 29.31903076 0.00000000
v 19.22285271 29.01467705 0.00000000
v 19.01467705 29.22285271 0.00000000
v 19.12132072 29.12132072 0.00000000
v -17.14720345 -29.99638557 2.50000000
v -17.29405212 -29.98555374 2.50000000
v -17.44019127 -29.96752930 2.50000000
v -17.58527184 -29.94235611 2.50000000
v -17.72894096 -29.91009331 2.50000000
v -17.87085342 -29.87082100 2.50000000
v -18.01066971 -29.82463264 2.50000000
v -18.14805031 -29.77163887 2.50000000
v -18.28266525 -29.71196747 2.50000000
v -18.41419029 -29.64576340 2.50000000
v -18.54230881 -29.57318497 2.50000000
v -18.66670990 -29.49440956 2.50000000
v -18.78709793 -29.40962219 2.50000000
v -18.90317917 -29.31903076 2.50000000
v -19.01467705 -29.22285271 2.50000000
v -19.12132072 -29.12132072 2.50000000
v -19.22285271 -29.01467705 2.50000000
v -19.31903076 -28.90317917 2.50000000
v -19.40962219 -28.78709793 2.50000000
v -19.49440956 -28.66670990 2.50000000
v -19.57318497 -28.54230881 2.50000000
v -19.64576340 -28.41419029 2.50000000
v -19.71196747 -28.28266525 2.50000000
v -19.77163887 -28.14805031 2.50000000
v -19.82463264 -28.01066971 2.50000000
v -19.87082100 -27.87085342 2.50000000
v -19.91009331 -27.72894096 2.50000000
v -19.94235611 -27.58527184 2.50000000
v -19.96752930 -27.44019127 2.50000000
v -19.98555374 -27.29405212 2.50000000
v -19.99638557 -27.14720345 2.50000000
v -20.00000000 -27.00000000 2.50000000
v 17.14720345 -29.99638557 2.50000000
v 17.29405212 -29.98555374 2.50000000
v 17.44019127 -29.96752930 2.50000000
v 17.58527184 -29.94235611 2.50000000
v 17.72894096 -29.91009331 2.50000000
v 17.87085342 -29.87082100 2.50000000
v 18.01066971 -29.82463264 2.50000000
v 18.14805031 -29.77163887 2.50000000
v 18.28266525 -29.71196747 2.50000000
v 18.41419029 -29.64576340 2.50000000
v 18.54230881 -29.57318497 2.50000000
v 18.66670990 -29.49440956 2.50000000
v 18.78709793 -29.40962219 2.50000000
v 18.90317917 -29.31903076 2.50000000
v 19.01467705 -29.22285271 2.50000000
v 19.12132072 -29.12132072 2.50000000
v 19.22285271 -29.01467705 2.50000000
v 19.31903076 -28.90317917 2.50000000
v 19.40962219 -28.78709793 2.50000000
v 19.49440956 -28.66670990 2.50000000
v 19.57318497 -28.54230881 2.50000000
v 19.64576340 -28.41419029 2.50000000
v 19.71196747 -28.28266525 2.50000000
v 19.77163887 -28.14805031 2.50000000
v 19.82463264 -28.01066971 2.50000000
v 19.87082100 -27.87085342 2.50000000
v 19.91009331 -27.72894096 2.50000000
v 19.94235611 -27.58527184 2.50000000
v 19.96752930 -27.44019127 2.50000000
v 19.98555374 -27.29405212 2.50000000
v 19.99638557 -27.14720345 2.50000000
v 20.00000000 -27.00000000 2.50000000
v -20.00000000 27.00000000 2.50000000
v -19.98555374 27.29405212 2.50000000
v -19.99638557 27.14720345 2.50000000
v -19.87082100 27.87085342 2.50000000
v -19.91009331 27.72894096 2.50000000
v -19.94235611 27.58527184 2.50000000
v -19.96752930 27.44019127 2.50000000
v -19.71196747 28.28266525 2.50000000
v -19.77163887 28.14805031 2.50000000
v -19.82463264 28.01066971 2.50000000
v -19.64576340 28.41419029 2.50000000
v -19.49440956 28.66670990 2.50000000
v -19.57318497 28.54230881 2.50000000
v -19.40962219 28.78709793 2.50000000
v -19.31903076 28.90317917 2.50000000
v -19.01467705 29.22285271 2.50000000
v -19.12132072 29.12132072 2.50000000
v -19.22285271 29.01467705 2.50000000
v -18.66670990 29.49440956 2.50000000
v -18.78709793 29.40962219 2.50000000
v -18.90317917 29.31903076 2.50000000
v -18.54230881 29.57318497 2.50000000
v -18.28266525 29.71196747 2.50000000
v -18.41419029 29.64576340 2.50000000
v -17.87085342 29.87082100 2.50000000
v -18.01066971 29.82463264 2.50000000
v -18.14805031 29.77163887 2.50000000
v -17.58527184 29.94235611 2.50000000
v -17.72894096 29.91009331 2.50000000
v -17.44019127 29.96752930 2.50000000
v -17.14720345 29.99638557 2.50000000
v -17.29405212 29.98555374 2.50000000
v -17.00000000 30.00000000 2.50000000
v 20.00000000 27.00000000 2.50000000
v 17.00000000 30.00000000 2.50000000
v 17.44019127 29.96752930 2.50000000
v 17.29405212 29.98555374 2.50000000
v 17.14720345 29.99638557 2.50000000
v 19.91009331 27.72894096 2.50000000
v 19.98555374 27.29405212 2.50000000
v 19.96752930 27.44019127 2.50000000
v 19.94235611 27.58527184 2.50000000
v 19.87082100 27.87085342 2.50000000
v 17.87085342 29.87082100 2.50000000
v 17.72894096 29.91009331 2.50000000
v 17.58527184 29.94235611 2.50000000
v 19.82463264 28.01066971 2.50000000
v 19.99638557 27.14720345 2.50000000
v 19.77163887 28.14805031 2.50000000
v 18.14805031 29.77163887 2.50000000
v 18.01066971 29.82463264 2.50000000
v 18.28266525 29.71196747 2.50000000
v 18.41419029 29.64576340 2.50000000
v 19.57318497 28.54230881 2.50000000
v 19.71196747 28.28266525 2.50000000
v 19.64576340 28.41419029 2.50000000
v 18.78709793 29.40962219 2.50000000
v 18.66670990 29.49440956 2.50000000
v 18.54230881 29.57318497 2.50000000
v 19.31903076 28.90317917 2.50000000
v 19.49440956 28.66670990 2.50000000
v 19.40962219 28.78709793 2.50000000
v 19.22285271 29.01467705 2.50000000
v 19.12132072 29.12132072 2.50000000
v 19.01467705 29.22285271 2.50000000
v 18.90317917 29.31903076 2.50000000
v -16.70000076 -26.70000076 -10.00000000
v -13.19200039 -26.70000076 -10.00000000
v -13.19200039 -27.29999924 -9.00000000
v -13.19200039 -26.75000000 -10.00000000
v -12.19200039 -27.29999924 -9.00000000
v -12.19200039 -26.70000076 -10.00000000
v -12.19200039 -26.75000000 -10.00000000
v -4.73066664 -26.70000076 -10.00000000
v -4.73066664 -27.29999924 -9.00000000
v -4.73066664 -26.75000000 -10.00000000
v -3.73066664 -27.29999924 -9.00000000
v -3.73066664 -26.70000076 -10.00000000
v -3.73066664 -26.75000000 -10.00000000
v 3.73066664 -26.70000076 -10.00000000
v 3.73066664 -27.29999924 -9.00000000
v 3.73066664 -26.75000000 -10.00000000
v 4.73066664 -27.29999924 -9.00000000
v 4.73066664 -26.70000076 -10.00000000
v 4.73066664 -26.75000000 -10.00000000
v 12.19200039 -26.70000076 -10.00000000
v 12.19200039 -27.29999924 -9.00000000
v 12.19200039 -26.75000000 -10.00000000
v 13.19200039 -27.29999924 -9.00000000
v 13.19200039 -26.70000076 -10.00000000
v 13.19200039 -26.75000000 -10.00000000
v 16.70000076 -26.70000076 -10.00000000
v 16.70000076 -20.79199982 -10.00000000
v 17.29999924 -20.79199982 -9.00000000
v 16.75000000 -20.79199982 -10.00000000
v 17.29999924 -19.79199982 -9.00000000
v 16.70000076 -19.79199982 -10.00000000
v 16.75000000 -19.79199982 -10.00000000
v 16.70000076 -12.67520046 -10.00000000
v 17.29999924 -12.67520046 -9.00000000
v 16.75000000 -12.67520046 -10.00000000
v 17.29999924 -11.67520046 -9.00000000
v 16.70000076 -11.67520046 -10.00000000
v 16.75000000 -11.67520046 -10.00000000
v 16.70000076 -4.55840015 -10.00000000
v 17.29999924 -4.55840015 -9.00000000
v 16.75000000 -4.55840015 -10.00000000
v 17.29999924 -3.55839992 -9.00000000
v 16.70000076 -3.55839992 -10.00000000
v 16.75000000 -3.55839992 -10.00000000
v 16.70000076 3.55839992 -10.00000000
v 17.29999924 3.55839992 -9.00000000
v 16.75000000 3.55839992 -10.00000000
v 17.29999924 4.55840015 -9.00000000
v 16.70000076 4.55840015 -10.00000000
v 16.75000000 4.55840015 -10.00000000
v 16.70000076 11.67520046 -10.00000000
v 17.29999924 11.67520046 -9.00000000
v 16.75000000 11.67520046 -10.00000000
v 17.29999924 12.67520046 -9.00000000
v 16.70000076 12.67520046 -10.00000000
v 16.75000000 12.67520046 -10.00000000
v 16.70000076 19.79199982 -10.00000000
v 17.29999924 19.79199982 -9.00000000
v 16.75000000 19.79199982 -10.00000000
v 17.29999924 20.79199982 -9.00000000
v 16.70000076 20.79199982 -10.00000000
v 16.75000000 20.79199982 -10.00000000
v 16.70000076 26.70000076 -10.00000000
v 13.19200039 26.70000076 -10.00000000
v 13.19200039 27.29999924 -9.00000000
v 13.19200039 26.75000000 -10.00000000
v 12.19200039 27.29999924 -9.00000000
v 12.19200039 26.70000076 -10.00000000
v 12.19200039 26.75000000 -10.00000000
v 4.73066664 26.70000076 -10.00000000
v 4.73066664 27.29999924 -9.00000000
v 4.73066664 26.75000000 -10.00000000
v 3.73066664 27.29999924 -9.00000000
v 3.73066664 26.70000076 -10.00000000
v 3.73066664 26.75000000 -10.00000000
v -3.73066664 26.70000076 -10.00000000
v -3.73066664 27.29999924 -9.00000000
v -3.73066664 26.75000000 -10.00000000
v -4.73066664 27.29999924 -9.00000000
v -4.73066664 26.70000076 -10.00000000
v -4.73066664 26.75000000 -10.00000000
v -12.19200039 26.70000076 -10.00000000
v -12.19200039 27.29999924 -9.00000000
v -12.19200039 26.75000000 -10.00000000
v -13.19200039 27.29999924 -9.00000000
v -13.19200039 26.70000076 -10.00000000
v -13.19200039 26.75000000 -10.00000000
v -16.70000076 26.70000076 -10.00000000
v -16.70000076 20.79199982 -10.00000000
v -17.29999924 20.79199982 -9.00000000
v -16.75000000 20.79199982 -10.00000000
v -17.29999924 19.79199982 -9.00000000
v -16.70000076 19.79199982 -10.00000000
v -16.75000000 19.79199982 -10.00000000
v -16.70000076 12.67520046 -10.00000000
v -17.29999924 12.67520046 -9.00000000
v -16.75000000 12.67520046 -10.00000000
v -17.29999924 11.67520046 -9.00000000
v -16.70000076 11.67520046 -10.00000000
v -16.75000000 11.67520046 -10.00000000
v -16.70000076 4.55840015 -10.00000000
v -17.29999924 4.55840015 -9.00000000
v -16.75000000 4.55840015 -10.00000000
v -17.29999924 3.55839992 -9.00000000
v -16.70000076 3.55839992 -10.00000000
v -16.75000000 3.55839992 -10.00000000
v -16.70000076 -3.55839992 -10.00000000
v -17.29999924 -3.55839992 -9.00000000
v -16.75000000 -3.55839992 -10.00000000
v -17.29999924 -4.55840015 -9.00000000
v -16.70000076 -4.55840015 -10.00000000
v -16.75000000 -4.55840015 -10.00000000
v -16.70000076 -11.67520046 -10.00000000
v -17.29999924 -11.67520046 -9.00000000
v -16.75000000 -11.67520046 -10.00000000
v -17.29999924 -12.67520046 -9.00000000
v -16.70000076 -12.67520046 -10.00000000
v -16.75000000 -12.67520046 -10.00000000
v -16.70000076 -19.79199982 -10.00000000
v -17.29999924 -19.79199982 -9.00000000
v -16.75000000 -19.79199982 -10.00000000
v -17.29999924 -20.79199982 -9.00000000
v -16.70000076 -20.79199982 -10.00000000
v -16.75000000 -20.79199982 -10.00000000
v -14.69999981 -24.70000076 -10.00000000
v 14.69999981 -24.70000076 -10.00000000
v -14.69999981 24.70000076 -10.00000000
v 14.69999981 24.70000076 -10.00000000
v 14.69999981 -24.70000076 0.00000000
v -14.69999981 -24.70000076 0.00000000
v -14.69999981 24.70000076 0.00000000
v 14.69999981 24.70000076 0.00000000
f 1 2 3
f 4 1 3
f 5 3 6
f 5 6 7
f 5 7 8
f 5 8 9
f 5 9 10
f 5 10 11
f 5 11 12
f 5 12 13
f 5 13 14
f 5 14 15
f 5 15 16
f 5 16 17
f 5 17 18
f 5 18 19
f 5 19 20
f 5 20 21
f 5 21 22
f 5 22 23
f 5 23 24
f 5 24 25
f 5 25 26
f 5 26 27
f 5 27 28
f 5 28 29
f 5 29 30
f 5 30 31
f 5 31 32
f 5 32 33
f 5 33 34
f 5 34 35
f 5 35 36
f 5 36 37
f 38 3 5
f 39 38 5
f 40 3 38
f 41 5 37
f 42 5 41
f 43 41 37
f 44 3 40
f 45 44 40
f 45 40 46
f 47 3 44
f 48 43 37
f 49 43 48
f 49 50 43
f 51 48 37
f 52 47 53
f 54 52 53
f 55 51 37
f 55 56 51
f 57 56 55
f 58 59 60
f 58 61 59
f 62 63 64
f 65 63 62
f 4 61 66
f 4 52 59
f 4 3 47
f 4 47 52
f 4 59 61
f 67 66 68
f 67 69 4
f 67 70 69
f 67 71 70
f 67 72 71
f 67 73 72
f 67 74 73
f 67 75 74
f 67 76 75
f 67 77 76
f 67 78 77
f 67 79 78
f 67 80 79
f 67 81 80
f 67 82 81
f 67 83 82
f 67 84 83
f 67 4 66
f 85 84 67
f 86 85 67
f 87 86 67
f 88 87 67
f 89 88 67
f 90 89 67
f 91 90 67
f 92 91 67
f 93 92 67
f 94 93 67
f 95 94 67
f 96 95 67
f 97 96 67
f 98 97 67
f 99 98 67
f 100 99 67
f 101 102 103
f 101 104 102
f 105 100 67
f 105 67 106
f 107 100 105
f 108 109 110
f 108 111 109
f 112 107 113
f 114 100 107
f 114 107 112
f 115 100 114
f 116 103 102
f 116 110 109
f 116 109 103
f 116 117 110
f 118 117 116
f 118 119 117
f 118 120 121
f 118 122 120
f 118 123 122
f 118 124 123
f 118 125 124
f 118 126 125
f 118 127 126
f 118 128 127
f 118 129 128
f 118 130 129
f 118 131 130
f 118 132 131
f 118 133 132
f 118 134 133
f 118 116 134
f 135 118 121
f 136 118 135
f 137 118 136
f 138 118 137
f 139 118 138
f 140 118 139
f 141 118 140
f 142 118 141
f 143 118 142
f 144 118 143
f 145 118 144
f 146 115 147
f 148 118 145
f 149 118 148
f 150 118 149
f 151 118 150
f 152 115 146
f 152 100 115
f 153 118 151
f 154 118 153
f 155 118 154
f 155 156 118
f 157 155 154
f 158 159 160
f 158 161 159
f 162 163 157
f 162 164 163
f 162 157 154
f 165 166 167
f 165 168 166
f 169 170 171
f 172 169 171
f 173 174 175
f 173 176 174
f 177 178 179
f 177 180 178
f 181 182 183
f 181 184 185
f 186 177 179
f 186 183 177
f 186 181 183
f 187 168 165
f 187 176 173
f 187 173 184
f 187 184 181
f 187 165 176
f 188 187 181
f 189 181 186
f 190 188 181
f 191 181 189
f 192 190 181
f 193 181 191
f 194 192 181
f 195 181 193
f 196 194 181
f 197 181 195
f 198 196 181
f 199 181 197
f 200 198 181
f 201 181 199
f 202 200 181
f 203 181 201
f 204 202 181
f 205 181 203
f 206 204 181
f 207 181 205
f 208 206 181
f 209 181 207
f 210 181 209
f 211 208 181
f 212 211 181
f 213 181 210
f 214 212 181
f 215 181 213
f 216 214 181
f 217 181 215
f 218 181 217
f 218 216 181
f 100 168 187
f 100 158 168
f 100 161 158
f 100 152 161
f 186 162 154
f 186 171 162
f 186 172 171
f 186 179 172
f 116 55 37
f 116 64 55
f 116 62 64
f 116 102 62
f 219 6 3
f 219 3 2
f 220 7 6
f 220 6 219
f 221 8 7
f 221 7 220
f 222 9 8
f 222 8 221
f 223 10 9
f 223 9 222
f 224 11 10
f 224 12 11
f 224 10 223
f 225 12 224
f 226 12 225
f 226 13 12
f 227 13 226
f 227 14 13
f 227 15 14
f 228 15 227
f 229 15 228
f 229 16 15
f 230 17 16
f 230 16 229
f 231 18 17
f 231 19 18
f 231 17 230
f 232 19 231
f 233 20 19
f 233 21 20
f 233 19 232
f 234 21 233
f 235 22 21
f 235 23 22
f 235 21 234
f 236 23 235
f 237 24 23
f 237 23 236
f 238 25 24
f 238 24 237
f 239 26 25
f 239 25 238
f 240 27 26
f 240 26 239
f 241 28 27
f 241 27 240
f 242 29 28
f 242 30 29
f 242 28 241
f 243 30 242
f 244 31 30
f 244 30 243
f 245 32 31
f 245 31 244
f 246 33 32
f 246 32 245
f 247 34 33
f 247 33 246
f 248 35 34
f 248 36 35
f 248 34 247
f 249 37 36
f 249 36 248
f 250 37 249
f 251 4 69
f 251 1 4
f 252 69 70
f 252 251 69
f 253 70 71
f 253 252 70
f 254 71 72
f 254 253 71
f 255 72 73
f 255 254 72
f 256 73 74
f 256 74 75
f 256 255 73
f 257 256 75
f 258 257 75
f 258 75 76
f 259 258 76
f 259 76 77
f 259 77 78
f 260 259 78
f 261 260 78
f 261 78 79
f 262 79 80
f 262 261 79
f 263 80 81
f 263 81 82
f 263 262 80
f 264 263 82
f 265 82 83
f 265 83 84
f 265 264 82
f 266 265 84
f 267 84 85
f 267 85 86
f 267 266 84
f 268 267 86
f 269 86 87
f 269 268 86
f 270 87 88
f 270 269 87
f 271 88 89
f 271 270 88
f 272 89 90
f 272 271 89
f 273 90 91
f 273 272 90
f 274 91 92
f 274 92 93
f 274 273 91
f 275 274 93
f 276 93 94
f 276 275 93
f 277 94 95
f 277 276 94
f 278 95 96
f 278 277 95
f 279 96 97
f 279 278 96
f 280 97 98
f 280 98 99
f 280 279 97
f 281 99 100
f 281 280 99
f 282 281 100
f 235 234 233
f 230 232 231
f 230 233 232
f 239 238 237
f 240 236 235
f 240 237 236
f 240 239 237
f 227 229 228
f 226 230 229
f 226 229 227
f 242 241 240
f 224 226 225
f 224 230 226
f 245 243 242
f 245 244 243
f 245 242 240
f 245 240 235
f 222 224 223
f 222 235 233
f 222 233 230
f 222 230 224
f 222 245 235
f 247 246 245
f 219 221 220
f 249 248 247
f 250 247 245
f 250 245 222
f 250 249 247
f 2 222 221
f 2 221 219
f 2 250 222
f 252 1 251
f 253 1 252
f 254 1 253
f 255 1 254
f 257 255 256
f 259 257 258
f 259 1 255
f 259 255 257
f 261 259 260
f 261 1 259
f 263 1 261
f 263 261 262
f 266 263 264
f 266 264 265
f 266 1 263
f 268 266 267
f 270 268 269
f 270 266 268
f 272 270 271
f 273 266 270
f 273 270 272
f 274 266 273
f 275 266 274
f 276 266 275
f 279 276 277
f 279 277 278
f 279 266 276
f 280 266 279
f 282 250 2
f 282 2 1
f 282 1 266
f 282 280 281
f 282 266 280
f 283 250 282
f 284 285 283
f 286 284 283
f 286 287 288
f 286 288 289
f 286 289 284
f 290 291 292
f 290 292 286
f 293 290 286
f 294 295 293
f 296 294 293
f 297 286 283
f 297 293 286
f 297 296 293
f 298 299 300
f 298 300 297
f 298 297 283
f 301 302 303
f 304 301 303
f 304 303 298
f 304 298 283
f 305 306 304
f 307 308 309
f 310 307 309
f 310 311 307
f 312 310 309
f 313 305 304
f 313 312 309
f 313 314 312
f 313 309 305
f 315 304 283
f 315 313 304
f 316 315 283
f 316 317 315
f 316 283 282
f 318 317 316
f 318 319 320
f 318 320 317
f 321 322 323
f 321 323 324
f 325 322 321
f 326 327 328
f 329 316 330
f 329 330 322
f 329 318 316
f 329 322 325
f 331 318 329
f 331 328 318
f 332 333 326
f 334 332 326
f 335 326 328
f 335 334 326
f 336 337 338
f 339 340 341
f 339 341 335
f 339 335 328
f 342 336 343
f 342 343 344
f 342 337 336
f 345 331 337
f 345 337 342
f 346 347 348
f 346 348 339
f 346 328 331
f 346 339 328
f 346 331 345
f 37 283 116
f 37 250 283
f 187 282 100
f 187 316 282
f 313 154 153
f 313 315 154
f 314 153 151
f 314 151 150
f 314 313 153
f 312 314 150
f 310 150 149
f 310 312 150
f 311 149 148
f 311 148 145
f 311 310 149
f 307 311 145
f 308 145 144
f 308 307 145
f 309 144 143
f 309 308 144
f 305 309 143
f 305 143 142
f 306 142 141
f 306 305 142
f 304 141 140
f 304 140 139
f 304 306 141
f 301 304 139
f 302 139 138
f 302 301 139
f 303 138 137
f 303 302 138
f 298 137 136
f 298 303 137
f 299 136 135
f 299 298 136
f 300 135 121
f 300 299 135
f 297 121 120
f 297 300 121
f 296 120 122
f 296 297 120
f 294 122 123
f 294 296 122
f 295 123 124
f 295 294 123
f 293 124 125
f 293 295 124
f 290 125 126
f 290 293 125
f 291 126 127
f 291 290 126
f 292 127 128
f 292 291 127
f 286 128 129
f 286 292 128
f 287 129 130
f 287 286 129
f 288 130 131
f 288 287 130
f 289 131 132
f 289 288 131
f 284 132 133
f 284 133 134
f 284 289 132
f 285 284 134
f 285 134 116
f 283 285 116
f 330 187 188
f 330 316 187
f 322 188 190
f 322 190 192
f 322 330 188
f 323 322 192
f 324 192 194
f 324 323 192
f 321 194 196
f 321 196 198
f 321 324 194
f 325 321 198
f 329 198 200
f 329 325 198
f 331 200 202
f 331 202 204
f 331 329 200
f 337 331 204
f 338 204 206
f 338 337 204
f 336 206 208
f 336 338 206
f 343 208 211
f 343 336 208
f 344 211 212
f 344 212 214
f 344 343 211
f 342 344 214
f 345 214 216
f 345 342 214
f 346 216 218
f 346 345 216
f 347 218 217
f 347 346 218
f 348 217 215
f 348 347 217
f 339 215 213
f 339 213 210
f 339 348 215
f 340 339 210
f 341 210 209
f 341 340 210
f 335 209 207
f 335 341 209
f 334 207 205
f 334 335 207
f 332 205 203
f 332 334 205
f 333 203 201
f 333 332 203
f 326 201 199
f 326 333 201
f 327 199 197
f 327 326 199
f 328 197 195
f 328 327 197
f 318 195 193
f 318 193 191
f 318 328 195
f 319 318 191
f 320 191 189
f 320 189 186
f 320 319 191
f 317 320 186
f 315 317 186
f 154 315 186
f 39 5 349
f 39 349 350
f 351 38 39
f 352 351 350
f 350 351 39
f 353 40 38
f 353 38 351
f 353 46 40
f 354 353 355
f 46 353 354
f 45 46 354
f 45 354 356
f 357 44 45
f 358 357 356
f 356 357 45
f 359 47 44
f 359 44 357
f 359 53 47
f 360 359 361
f 53 359 360
f 54 53 360
f 54 360 362
f 363 52 54
f 364 363 362
f 362 363 54
f 365 59 52
f 365 52 363
f 365 60 59
f 366 365 367
f 60 365 366
f 58 60 366
f 58 366 368
f 369 61 58
f 370 369 368
f 368 369 58
f 371 66 61
f 371 61 369
f 371 68 66
f 372 371 373
f 68 371 372
f 67 68 372
f 67 372 374
f 106 67 374
f 106 374 375
f 376 105 106
f 377 376 375
f 375 376 106
f 378 107 105
f 378 105 376
f 378 113 107
f 379 378 380
f 113 378 379
f 112 113 379
f 112 379 381
f 382 114 112
f 383 382 381
f 381 382 112
f 384 115 114
f 384 114 382
f 384 147 115
f 385 384 386
f 147 384 385
f 146 147 385
f 146 385 387
f 388 152 146
f 389 388 387
f 387 388 146
f 390 161 152
f 390 152 388
f 390 159 161
f 391 390 392
f 159 390 391
f 160 159 391
f 160 391 393
f 394 158 160
f 395 394 393
f 393 394 160
f 396 168 158
f 396 158 394
f 396 166 168
f 397 396 398
f 166 396 397
f 167 166 397
f 167 397 399
f 400 165 167
f 401 400 399
f 399 400 167
f 402 176 165
f 402 165 400
f 402 174 176
f 403 402 404
f 174 402 403
f 175 174 403
f 175 403 405
f 406 173 175
f 407 406 405
f 405 406 175
f 408 184 173
f 408 173 406
f 408 185 184
f 409 408 410
f 185 408 409
f 181 185 409
f 181 409 411
f 182 181 411
f 182 411 412
f 413 183 182
f 414 413 412
f 412 413 182
f 415 177 183
f 415 183 413
f 415 180 177
f 416 415 417
f 180 415 416
f 178 180 416
f 178 416 418
f 419 179 178
f 420 419 418
f 418 419 178
f 421 172 179
f 421 179 419
f 421 169 172
f 422 421 423
f 169 421 422
f 170 169 422
f 170 422 424
f 425 171 170
f 426 425 424
f 424 425 170
f 427 162 171
f 427 171 425
f 427 164 162
f 428 427 429
f 164 427 428
f 163 164 428
f 163 428 430
f 431 157 163
f 432 431 430
f 430 431 163
f 433 155 157
f 433 157 431
f 433 156 155
f 434 433 435
f 156 433 434
f 118 156 434
f 118 434 436
f 119 118 436
f 119 436 437
f 438 117 119
f 439 438 437
f 437 438 119
f 440 110 117
f 440 117 438
f 440 108 110
f 441 440 442
f 108 440 441
f 111 108 441
f 111 441 443
f 444 109 111
f 445 444 443
f 443 444 111
f 446 103 109
f 446 109 444
f 446 101 103
f 447 446 448
f 101 446 447
f 104 101 447
f 104 447 449
f 450 102 104
f 451 450 449
f 449 450 104
f 452 62 102
f 452 102 450
f 452 65 62
f 453 452 454
f 65 452 453
f 63 65 453
f 63 453 455
f 456 64 63
f 457 456 455
f 455 456 63
f 458 55 64
f 458 64 456
f 458 57 55
f 459 458 460
f 57 458 459
f 56 57 459
f 56 459 461
f 462 51 56
f 463 462 461
f 461 462 56
f 464 48 51
f 464 51 462
f 464 49 48
f 465 464 466
f 49 464 465
f 50 49 465
f 50 465 467
f 468 43 50
f 469 468 467
f 467 468 50
f 470 41 43
f 470 43 468
f 470 42 41
f 471 470 472
f 42 470 471
f 5 42 471
f 5 471 349
f 473 350 349
f 354 352 350
f 354 355 352
f 354 350 473
f 467 473 471
f 467 472 469
f 467 471 472
f 356 354 473
f 360 358 356
f 360 361 358
f 463 465 466
f 461 465 463
f 366 364 362
f 366 367 364
f 455 460 457
f 455 459 460
f 372 370 368
f 372 373 370
f 449 454 451
f 449 453 454
f 474 368 366
f 474 374 372
f 474 372 368
f 443 448 445
f 443 447 448
f 379 375 474
f 380 377 375
f 380 375 379
f 437 442 439
f 437 441 442
f 386 383 381
f 386 381 385
f 475 441 437
f 392 387 391
f 392 389 387
f 434 475 436
f 430 475 434
f 432 430 434
f 432 434 435
f 398 393 397
f 398 395 393
f 428 475 430
f 426 424 428
f 426 428 429
f 404 401 399
f 404 399 403
f 420 422 423
f 420 418 422
f 410 407 405
f 410 405 409
f 476 418 416
f 476 409 405
f 412 476 416
f 414 416 417
f 414 412 416
f 411 476 412
f 374 474 375
f 409 476 411
f 436 475 437
f 471 473 349
f 474 356 473
f 474 360 356
f 474 362 360
f 474 366 362
f 473 441 475
f 473 443 441
f 473 447 443
f 473 449 447
f 473 453 449
f 473 455 453
f 473 459 455
f 473 461 459
f 473 465 461
f 473 467 465
f 475 418 476
f 475 422 418
f 475 424 422
f 475 428 424
f 476 379 474
f 476 381 379
f 476 385 381
f 476 387 385
f 476 391 387
f 476 393 391
f 476 397 393
f 476 399 397
f 476 403 399
f 476 405 403
f 355 353 351
f 355 351 352
f 361 359 357
f 361 357 358
f 367 365 363
f 367 363 364
f 373 371 369
f 373 369 370
f 377 378 376
f 380 378 377
f 383 384 382
f 386 384 383
f 389 390 388
f 392 390 389
f 395 396 394
f 398 396 395
f 401 402 400
f 404 402 401
f 407 408 406
f 410 408 407
f 414 415 413
f 417 415 414
f 420 421 419
f 423 421 420
f 426 427 425
f 429 427 426
f 432 433 431
f 435 433 432
f 439 440 438
f 442 440 439
f 445 446 444
f 448 446 445
f 451 452 450
f 454 452 451
f 457 458 456
f 460 458 457
f 463 464 462
f 466 464 463
f 469 470 468
f 472 470 469
f 477 473 478
f 477 474 473
f 473 475 479
f 478 473 479
f 479 476 480
f 479 475 476
f 476 474 477
f 480 476 477
f 480 478 479
f 480 477 478

