# https://github.com/mikedh/trimesh

o cap_40x20_lip.stl
v 17.00000000 -13.30000019 2.50000000
v -17.00000000 -13.30000019 2.50000000
v -17.00000000 -13.30000019 -8.00000000
v 17.00000000 -13.30000019 -8.00000000
v -17.30912590 -13.29241180 -8.00000000
v -17.30912590 -13.29241180 2.50000000
v -17.61750793 -13.26966381 -8.00000000
v -17.61750793 -13.26966381 2.50000000
v -17.92440224 -13.23181248 -8.00000000
v -17.92440224 -13.23181248 2.50000000
v -18.22906876 -13.17894745 -8.00000000
v -18.22906876 -13.17894745 2.50000000
v -18.53077507 -13.11119652 -8.00000000
v -18.53077507 -13.11119652 2.50000000
v -18.82879257 -13.02872372 -8.00000000
v -18.82879257 -13.02872372 2.50000000
v -19.12240601 -12.93172741 -8.00000000
v -19.12240601 -12.93172741 2.50000000
v -19.41090584 -12.82044125 -8.00000000
v -19.41090584 -12.82044125 2.50000000
v -19.69359779 -12.69513226 -8.00000000
v -19.69359779 -12.69513226 2.50000000
v -19.96979904 -12.55610371 -8.00000000
v -19.96979904 -12.55610371 2.50000000
v -20.23884773 -12.40369034 -8.00000000
v -20.23884773 -12.40369034 2.50000000
v -20.50009155 -12.23825836 -8.00000000
v -20.50009155 -12.23825836 2.50000000
v -20.75290489 -12.06020737 -8.00000000
v -20.75290489 -12.06020737 2.50000000
v -20.99667740 -11.86996555 -8.00000000
v -20.99667740 -11.86996555 2.50000000
v -21.23082161 -11.66799164 -8.00000000
v -21.23082161 -11.66799164 2.50000000
v -21.45477295 -11.45477295 -8.00000000
v -21.45477295 -11.45477295 2.50000000
v -21.66799164 -11.23082161 -8.00000000
v -21.66799164 -11.23082161 2.50000000
v -21.86996651 -10.99667740 -8.00000000
v -21.86996651 -10.99667740 2.50000000
v -22.06020737 -10.75290585 -8.00000000
v -22.06020737 -10.75290585 2.50000000
v -22.23825836 -10.50009251 -8.00000000
v -22.23825836 -10.50009251 2.50000000
v -22.40369034 -10.23884773 -8.00000000
v -22.40369034 -10.23884773 2.50000000
v -22.55610466 -9.96979904 -8.00000000
v -22.55610466 -9.96979904 2.50000000
v -22.69513321 -9.69359684 -8.00000000
v -22.69513321 -9.69359684 2.50000000
v -22.82044029 -9.41090584 -8.00000000
v -22.82044029 -9.41090584 2.50000000
v -22.93172836 -9.12240601 -8.00000000
v -22.93172836 -9.12240601 2.50000000
v -23.02872467 -8.82879353 -8.00000000
v -23.02872467 -8.82879353 2.50000000
v -23.11119652 -8.53077507 -8.00000000
v -23.11119652 -8.53077507 2.50000000
v -23.17894745 -8.22906876 -8.00000000
v -23.17894745 -8.22906876 2.50000000
v -23.23181152 -7.92440176 -8.00000000
v -23.23181152 -7.92440176 2.50000000
v -23.26966286 -7.61750793 -8.00000000
v -23.26966286 -7.61750793 2.50000000
v -23.29241180 -7.30912638 -8.00000000
v -23.29241180 -7.30912638 2.50000000
v -23.29999924 -7.00000000 2.50000000
v -23.29999924 -7.00000000 -8.00000000
v -23.29999924 7.00000000 2.50000000
v -23.23181152 7.92440176 2.50000000
v -23.26966286 7.61750793 2.50000000
v -23.29241180 7.30912638 2.50000000
v -23.17894745 8.22906876 2.50000000
v -23.02872467 8.82879353 2.50000000
v -23.11119652 8.53077507 2.50000000
v -22.82044029 9.41090584 2.50000000
v -22.93172836 9.12240601 2.50000000
v -22.69513321 9.69359684 2.50000000
v -22.55610466 9.96979904 2.50000000
v -22.06020737 10.75290585 2.50000000
v -22.23825836 10.50009251 2.50000000
v -22.40369034 10.23884773 2.50000000
v -21.66799164 11.23082161 2.50000000
v -21.86996651 10.99667740 2.50000000
v -21.45477295 11.45477295 2.50000000
v -20.23884773 12.40369034 2.50000000
v -20.50009155 12.23825836 2.50000000
v -20.75290489 12.06020737 2.50000000
v -20.99667740 11.86996555 2.50000000
v -21.23082161 11.66799164 2.50000000
v -19.96979904 12.55610371 2.50000000
v -19.41090584 12.82044125 2.50000000
v -19.69359779 12.69513226 2.50000000
v -18.53077507 13.11119652 2.50000000
v -18.82879257 13.02872372 2.50000000
v -19.12240601 12.93172741 2.50000000
v -17.92440224 13.23181248 2.50000000
v -18.22906876 13.17894745 2.50000000
v -17.61750793 13.26966381 2.50000000
v -17.00000000 13.30000019 2.50000000
v -17.30912590 13.29241180 2.50000000
v 17.92440224 -13.23181248 2.50000000
v 17.30912590 -13.29241180 2.50000000
v 17.61750793 -13.26966381 2.50000000
v 18.53077507 -13.11119652 2.50000000
v 18.22906876 -13.17894745 2.50000000
v 18.82879257 -13.02872372 2.50000000
v 19.41090584 -12.82044125 2.50000000
v 19.12240601 -12.93172741 2.50000000
v 19.69359779 -12.69513226 2.50000000
v 19.96979904 -12.55610371 2.50000000
v 20.75290489 -12.06020737 2.50000000
v 20.23884773 -12.40369034 2.50000000
v 20.50009155 -12.23825836 2.50000000
v 20.99667740 -11.86996555 2.50000000
v 21.23082161 -11.66799164 2.50000000
v 21.45477295 -11.45477295 2.50000000
v 22.06020737 -10.75290585 2.50000000
v 21.66799164 -11.23082161 2.50000000
v 21.86996651 -10.99667740 2.50000000
v 22.23825836 -10.50009251 2.50000000
v 22.40369034 -10.23884773 2.50000000
v 22.69513321 -9.69359684 2.50000000
v 22.55610466 -9.96979904 2.50000000
v 22.93172836 -9.12240601 2.50000000
v 22.82044029 -9.41090584 2.50000000
v 23.02872467 -8.82879353 2.50000000
v 23.23181152 -7.92440176 2.50000000
v 23.11119652 -8.53077507 2.50000000
v 23.17894745 -8.22906876 2.50000000
v 23.26966286 -7.61750793 2.50000000
v 23.29999924 -7.00000000 2.50000000
v 23.29241180 -7.30912638 2.50000000
v 17.00000000 13.30000019 2.50000000
v 23.29999924 7.00000000 2.50000000
v 17.61750793 13.26966381 2.50000000
v 23.29241180 7.30912638 2.50000000
v 17.30912590 13.29241180 2.50000000
v 23.23181152 7.92440176 2.50000000
v 23.26966286 7.61750793 2.50000000
v 23.11119652 8.53077507 2.50000000
v 23.17894745 8.22906876 2.50000000
v 18.53077507 13.11119652 2.50000000
v 18.22906876 13.17894745 2.50000000
v 17.92440224 13.23181248 2.50000000
v 23.02872467 8.82879353 2.50000000
v 19.41090584 12.82044125 2.50000000
v 19.12240601 12.93172741 2.50000000
v 18.82879257 13.02872372 2.50000000
v 22.69513321 9.69359684 2.50000000
v 22.93172836 9.12240601 2.50000000
v 22.82044029 9.41090584 2.50000000
v 19.69359779 12.69513226 2.50000000
v 22.40369034 10.23884773 2.50000000
v 22.55610466 9.96979904 2.50000000
v 20.23884773 12.40369034 2.50000000
v 19.96979904 12.55610371 2.50000000
v 20.50009155 12.23825836 2.50000000
v 21.66799164 11.23082161 2.50000000
v 22.23825836 10.50009251 2.50000000
v 22.06020737 10.75290585 2.50000000
v 21.86996651 10.99667740 2.50000000
v 21.23082161 11.66799164 2.50000000
v 20.99667740 11.86996555 2.50000000
v 20.75290489 12.06020737 2.50000000
v 21.45477295 11.45477295 2.50000000
v 17.30912590 -13.29241180 -8.00000000
v 17.61750793 -13.26966381 -8.00000000
v 17.92440224 -13.23181248 -8.00000000
v 18.22906876 -13.17894745 -8.00000000
v 18.53077507 -13.11119652 -8.00000000
v 18.82879257 -13.02872372 -8.00000000
v 19.12240601 -12.93172741 -8.00000000
v 19.41090584 -12.82044125 -8.00000000
v 19.69359779 -12.69513226 -8.00000000
v 19.96979904 -12.55610371 -8.00000000
v 20.23884773 -12.40369034 -8.00000000
v 20.50009155 -12.23825836 -8.00000000
v 20.75290489 -12.06020737 -8.00000000
v 20.99667740 -11.86996555 -8.00000000
v 21.23082161 -11.66799164 -8.00000000
v 21.45477295 -11.45477295 -8.00000000
v 21.66799164 -11.23082161 -8.00000000
v 21.86996651 -10.99667740 -8.00000000
v 22.06020737 -10.75290585 -8.00000000
v 22.23825836 -10.50009251 -8.00000000
v 22.40369034 -10.23884773 -8.00000000
v 22.55610466 -9.96979904 -8.00000000
v 22.69513321 -9.69359684 -8.00000000
v 22.82044029 -9.41090584 -8.00000000
v 22.93172836 -9.12240601 -8.00000000
v 23.02872467 -8.82879353 -8.00000000
v 23.11119652 -8.53077507 -8.00000000
v 23.17894745 -8.22906876 -8.00000000
v 23.23181152 -7.92440176 -8.00000000
v 23.26966286 -7.61750793 -8.00000000
v 23.29241180 -7.30912638 -8.00000000
v 23.29999924 -7.00000000 -8.00000000
v -19.33345222 -9.33345222 -8.00000000
v -19.44513893 -9.21614456 -8.00000000
v -19.21614456 -9.44513893 -8.00000000
v -19.55093384 -9.09349823 -8.00000000
v -19.09349823 -9.55093479 -8.00000000
v -19.65058517 -8.96580791 -8.00000000
v -18.96580696 -9.65058517 -8.00000000
v -19.74384880 -8.83338165 -8.00000000
v -18.83338165 -9.74384975 -8.00000000
v -19.83050346 -8.69653893 -8.00000000
v -18.69653893 -9.83050442 -8.00000000
v -19.91033936 -8.55560970 -8.00000000
v -18.55560875 -9.91034031 -8.00000000
v -19.98316383 -8.41093159 -8.00000000
v -18.41093254 -9.98316479 -8.00000000
v -20.04880333 -8.26285553 -8.00000000
v -18.26285553 -10.04880238 -8.00000000
v -20.10709572 -8.11173630 -8.00000000
v -18.11173630 -10.10709572 -8.00000000
v -20.15790367 -7.95793962 -8.00000000
v -17.95793915 -10.15790272 -8.00000000
v -20.20110321 -7.80183458 -8.00000000
v -17.80183411 -10.20110321 -8.00000000
v -20.23659134 -7.64379787 -8.00000000
v -17.64379883 -10.23659134 -8.00000000
v -20.26428223 -7.48421049 -8.00000000
v -17.48421097 -10.26428223 -8.00000000
v -20.28410912 -7.32345676 -8.00000000
v -17.32345581 -10.28411007 -8.00000000
v -20.29602432 -7.16192341 -8.00000000
v -17.16192245 -10.29602528 -8.00000000
v -20.29999924 -7.00000000 -8.00000000
v -17.00000000 -10.30000019 -8.00000000
v -20.29999924 7.00000000 -8.00000000
v -23.29999924 7.00000000 -8.00000000
v -20.29602432 7.16192341 -8.00000000
v -23.29241180 7.30912638 -8.00000000
v -23.26966286 7.61750793 -8.00000000
v -20.28410912 7.32345676 -8.00000000
v -20.26428223 7.48421049 -8.00000000
v -23.23181152 7.92440176 -8.00000000
v -20.23659134 7.64379787 -8.00000000
v -23.17894745 8.22906876 -8.00000000
v -23.11119652 8.53077507 -8.00000000
v -20.20110321 7.80183458 -8.00000000
v -20.15790367 7.95793962 -8.00000000
v -23.02872467 8.82879353 -8.00000000
v -22.93172836 9.12240601 -8.00000000
v -20.10709572 8.11173630 -8.00000000
v -20.04880333 8.26285553 -8.00000000
v -22.82044029 9.41090584 -8.00000000
v -19.98316383 8.41093159 -8.00000000
v -22.69513321 9.69359684 -8.00000000
v -22.55610466 9.96979904 -8.00000000
v -19.91033936 8.55560970 -8.00000000
v -22.40369034 10.23884773 -8.00000000
v -19.83050346 8.69653893 -8.00000000
v -19.74384880 8.83338165 -8.00000000
v -22.23825836 10.50009251 -8.00000000
v -19.65058517 8.96580791 -8.00000000
v -22.06020737 10.75290585 -8.00000000
v -19.55093384 9.09349823 -8.00000000
v -21.86996651 10.99667740 -8.00000000
v -19.44513893 9.21614456 -8.00000000
v -21.66799164 11.23082161 -8.00000000
v -21.45477295 11.45477295 -8.00000000
v -19.33345222 9.33345222 -8.00000000
v -21.23082161 11.66799164 -8.00000000
v -19.21614456 9.44513893 -8.00000000
v -20.99667740 11.86996555 -8.00000000
v -19.09349823 9.55093479 -8.00000000
v -20.75290489 12.06020737 -8.00000000
v -18.96580696 9.65058517 -8.00000000
v -20.50009155 12.23825836 -8.00000000
v -18.83338165 9.74384975 -8.00000000
v -20.23884773 12.40369034 -8.00000000
v -18.55560875 9.91034031 -8.00000000
v -18.69653893 9.83050442 -8.00000000
v -19.96979904 12.55610371 -8.00000000
v -19.69359779 12.69513226 -8.00000000
v -18.41093254 9.98316479 -8.00000000
v -19.41090584 12.82044125 -8.00000000
v -18.26285553 10.04880238 -8.00000000
v -19.12240601 12.93172741 -8.00000000
v -17.95793915 10.15790272 -8.00000000
v -18.11173630 10.10709572 -8.00000000
v -18.82879257 13.02872372 -8.00000000
v -18.53077507 13.11119652 -8.00000000
v -17.64379883 10.23659134 -8.00000000
v -17.80183411 10.20110321 -8.00000000
v -18.22906876 13.17894745 -8.00000000
v -17.92440224 13.23181248 -8.00000000
v -17.32345581 10.28411007 -8.00000000
v -17.48421097 10.26428223 -8.00000000
v -17.61750793 13.26966381 -8.00000000
v -17.30912590 13.29241180 -8.00000000
v -17.16192245 10.29602528 -8.00000000
v -17.00000000 13.30000019 -8.00000000
v -17.00000000 10.30000019 -8.00000000
v 17.00000000 -10.30000019 -8.00000000
v 17.16192245 -10.29602528 -8.00000000
v 17.32345581 -10.28411007 -8.00000000
v 17.48421097 -10.26428223 -8.00000000
v 17.64379883 -10.23659134 -8.00000000
v 17.80183411 -10.20110321 -8.00000000
v 17.95793915 -10.15790272 -8.00000000
v 18.11173630 -10.10709572 -8.00000000
v 18.26285553 -10.04880238 -8.00000000
v 18.41093254 -9.98316479 -8.00000000
v 18.55560875 -9.91034031 -8.00000000
v 18.69653893 -9.83050442 -8.00000000
v 18.83338165 -9.74384975 -8.00000000
v 18.96580696 -9.65058517 -8.00000000
v 19.09349823 -9.55093479 -8.00000000
v 19.21614456 -9.44513893 -8.00000000
v 19.33345222 -9.33345222 -8.00000000
v 19.44513893 -9.21614456 -8.00000000
v 19.55093384 -9.09349823 -8.00000000
v 19.65058517 -8.96580791 -8.00000000
v 19.74384880 -8.83338165 -8.00000000
v 19.83050346 -8.69653893 -8.00000000
v 19.91033936 -8.55560970 -8.00000000
v 19.98316383 -8.41093159 -8.00000000
v 20.04880333 -8.26285553 -8.00000000
v 20.10709572 -8.11173630 -8.00000000
v 20.15790367 -7.95793962 -8.00000000
v 20.20110321 -7.80183458 -8.00000000
v 20.23659134 -7.64379787 -8.00000000
v 20.26428223 -7.48421049 -8.00000000
v 20.28410912 -7.32345676 -8.00000000
v 20.29602432 -7.16192341 -8.00000000
v 20.29999924 -7.00000000 -8.00000000
v 17.00000000 10.30000019 -8.00000000
v 20.29999924 7.00000000 -8.00000000
v 17.00000000 13.30000019 -8.00000000
v 23.29999924 7.00000000 -8.00000000
v 20.29602432 7.16192341 -8.00000000
v 23.29241180 7.30912638 -8.00000000
v 20.28410912 7.32345676 -8.00000000
v 17.30912590 13.29241180 -8.00000000
v 17.32345581 10.28411007 -8.00000000
v 17.16192245 10.29602528 -8.00000000
v 23.26966286 7.61750793 -8.00000000
v 17.61750793 13.26966381 -8.00000000
v 17.48421097 10.26428223 -8.00000000
v 23.23181152 7.92440176 -8.00000000
v 20.26428223 7.48421049 -8.00000000
v 20.23659134 7.64379787 -8.00000000
v 17.92440224 13.23181248 -8.00000000
v 17.64379883 10.23659134 -8.00000000
v 23.17894745 8.22906876 -8.00000000
v 20.20110321 7.80183458 -8.00000000
v 18.22906876 13.17894745 -8.00000000
v 23.11119652 8.53077507 -8.00000000
v 18.53077507 13.11119652 -8.00000000
v 17.95793915 10.15790272 -8.00000000
v 17.80183411 10.20110321 -8.00000000
v 23.02872467 8.82879353 -8.00000000
v 20.15790367 7.95793962 -8.00000000
v 20.10709572 8.11173630 -8.00000000
v 18.82879257 13.02872372 -8.00000000
v 22.93172836 9.12240601 -8.00000000
v 19.12240601 12.93172741 -8.00000000
v 18.11173630 10.10709572 -8.00000000
v 22.82044029 9.41090584 -8.00000000
v 20.04880333 8.26285553 -8.00000000
v 19.41090584 12.82044125 -8.00000000
v 18.41093254 9.98316479 -8.00000000
v 18.26285553 10.04880238 -8.00000000
v 22.69513321 9.69359684 -8.00000000
v 19.98316383 8.41093159 -8.00000000
v 19.69359779 12.69513226 -8.00000000
v 22.55610466 9.96979904 -8.00000000
v 19.91033936 8.55560970 -8.00000000
v 19.96979904 12.55610371 -8.00000000
v 18.69653893 9.83050442 -8.00000000
v 18.55560875 9.91034031 -8.00000000
v 22.40369034 10.23884773 -8.00000000
v 19.83050346 8.69653893 -8.00000000
v 20.23884773 12.40369034 -8.00000000
v 18.83338165 9.74384975 -8.00000000
v 22.23825836 10.50009251 -8.00000000
v 19.74384880 8.83338165 -8.00000000
v 19.65058517 8.96580791 -8.00000000
v 20.50009155 12.23825836 -8.00000000
v 22.06020737 10.75290585 -8.00000000
v 19.55093384 9.09349823 -8.00000000
v 20.75290489 12.06020737 -8.00000000
v 19.09349823 9.55093479 -8.00000000
v 18.96580696 9.65058517 -8.00000000
v 21.86996651 10.99667740 -8.00000000
v 20.99667740 11.86996555 -8.00000000
v 21.66799164 11.23082161 -8.00000000
v 19.44513893 9.21614456 -8.00000000
v 19.33345222 9.33345222 -8.00000000
v 21.23082161 11.66799164 -8.00000000
v 19.21614456 9.44513893 -8.00000000
v 21.45477295 11.45477295 -8.00000000
v 17.00000000 -10.30000019 0.00000000
v -17.00000000 -10.30000019 0.00000000
v 17.16192245 -10.29602528 0.00000000
v 17.32345581 -10.28411007 0.00000000
v 17.48421097 -10.26428223 0.00000000
v 17.64379883 -10.23659134 0.00000000
v 17.80183411 -10.20110321 0.00000000
v 17.95793915 -10.15790272 0.00000000
v 18.11173630 -10.10709572 0.00000000
v 18.26285553 -10.04880238 0.00000000
v 18.41093254 -9.98316479 0.00000000
v 18.55560875 -9.91034031 0.00000000
v 18.69653893 -9.83050442 0.00000000
v 18.83338165 -9.74384975 0.00000000
v 18.96580696 -9.65058517 0.00000000
v 19.09349823 -9.55093479 0.00000000
v 19.21614456 -9.44513893 0.00000000
v 19.33345222 -9.33345222 0.00000000
v 19.44513893 -9.21614456 0.00000000
v 19.55093384 -9.09349823 0.00000000
v 19.65058517 -8.96580791 0.00000000
v 19.74384880 -8.83338165 0.00000000
v 19.83050346 -8.69653893 0.00000000
v 19.91033936 -8.55560970 0.00000000
v 19.98316383 -8.41093159 0.00000000
v 20.04880333 -8.26285553 0.00000000
v 20.10709572 -8.11173630 0.00000000
v 20.15790367 -7.95793962 0.00000000
v 20.20110321 -7.80183458 0.00000000
v 20.23659134 -7.64379787 0.00000000
v 20.26428223 -7.48421049 0.00000000
v 20.28410912 -7.32345676 0.00000000
v 20.29602432 -7.16192341 0.00000000
v 20.29999924 -7.00000000 0.00000000
v 20.29999924 7.00000000 0.00000000
v 20.29602432 7.16192341 0.00000000
v 20.28410912 7.32345676 0.00000000
v 20.26428223 7.48421049 0.00000000
v 20.23659134 7.64379787 0.00000000
v 20.20110321 7.80183458 0.00000000
v 20.15790367 7.95793962 0.00000000
v 20.10709572 8.11173630 0.00000000
v 20.04880333 8.26285553 0.00000000
v 19.98316383 8.41093159 0.00000000
v 19.91033936 8.55560970 0.00000000
v 19.83050346 8.69653893 0.00000000
v 19.74384880 8.83338165 0.00000000
v 19.65058517 8.96580791 0.00000000
v 19.55093384 9.09349823 0.00000000
v 19.44513893 9.21614456 0.00000000
v 19.33345222 9.33345222 0.00000000
v 19.21614456 9.44513893 0.00000000
v 19.09349823 9.55093479 0.00000000
v 18.96580696 9.65058517 0.00000000
v 18.83338165 9.74384975 0.00000000
v 18.69653893 9.83050442 0.00000000
v 18.55560875 9.91034031 0.00000000
v 18.41093254 9.98316479 0.00000000
v 18.26285553 10.04880238 0.00000000
v 18.11173630 10.10709572 0.00000000
v 17.95793915 10.15790272 0.00000000
v 17.80183411 10.20110321 0.00000000
v 17.64379883 10.23659134 0.00000000
v 17.48421097 10.26428223 0.00000000
v 17.32345581 10.28411007 0.00000000
v 17.16192245 10.29602528 0.00000000
v 17.00000000 10.30000019 0.00000000
v -17.00000000 10.30000019 0.00000000
v -17.16192245 10.29602528 0.00000000
v -17.32345581 10.28411007 0.00000000
v -17.48421097 10.26428223 0.00000000
v -17.64379883 10.23659134 0.00000000
v -17.80183411 10.20110321 0.00000000
v -17.95793915 10.15790272 0.00000000
v -18.11173630 10.10709572 0.00000000
v -18.26285553 10.04880238 0.00000000
v -18.41093254 9.98316479 0.00000000
v -18.55560875 9.91034031 0.00000000
v -18.69653893 9.83050442 0.00000000
v -18.83338165 9.74384975 0.00000000
v -18.96580696 9.65058517 0.00000000
v -19.09349823 9.55093479 0.00000000
v -19.21614456 9.44513893 0.00000000
v -19.33345222 9.33345222 0.00000000
v -19.44513893 9.21614456 0.00000000
v -19.55093384 9.09349823 0.00000000
v -19.65058517 8.96580791 0.00000000
v -19.74384880 8.83338165 0.00000000
v -19.83050346 8.69653893 0.00000000
v -19.91033936 8.55560970 0.00000000
v -19.98316383 8.41093159 0.00000000
v -20.04880333 8.26285553 0.00000000
v -20.10709572 8.11173630 0.00000000
v -20.15790367 7.95793962 0.00000000
v -20.20110321 7.80183458 0.00000000
v -20.23659134 7.64379787 0.00000000
v -20.26428223 7.48421049 0.00000000
v -20.28410912 7.32345676 0.00000000
v -20.29602432 7.16192341 0.00000000
v -20.29999924 7.00000000 0.00000000
v -20.29999924 -7.00000000 0.00000000
v -17.16192245 -10.29602528 0.00000000
v -17.32345581 -10.28411007 0.00000000
v -17.48421097 -10.26428223 0.00000000
v -17.64379883 -10.23659134 0.00000000
v -17.80183411 -10.20110321 0.00000000
v -17.95793915 -10.15790272 0.00000000
v -18.11173630 -10.10709572 0.00000000
v -18.26285553 -10.04880238 0.00000000
v -18.41093254 -9.98316479 0.00000000
v -18.55560875 -9.91034031 0.00000000
v -18.69653893 -9.83050442 0.00000000
v -18.83338165 -9.74384975 0.00000000
v -18.96580696 -9.65058517 0.00000000
v -19.09349823 -9.55093479 0.00000000
v -19.21614456 -9.44513893 0.00000000
v -19.33345222 -9.33345222 0.00000000
v -19.44513893 -9.21614456 0.00000000
v -19.55093384 -9.09349823 0.00000000
v -19.65058517 -8.96580791 0.00000000
v -19.74384880 -8.83338165 0.00000000
v -19.83050346 -8.69653893 0.00000000
v -19.91033936 -8.55560970 0.00000000
v -19.98316383 -8.41093159 0.00000000
v -20.04880333 -8.26285553 0.00000000
v -20.10709572 -8.11173630 0.00000000
v -20.15790367 -7.95793962 0.00000000
v -20.20110321 -7.80183458 0.00000000
v -20.23659134 -7.64379787 0.00000000
v -20.26428223 -7.48421049 0.00000000
v -20.28410912 -7.32345676 0.00000000
v -20.29602432 -7.16192341 0.00000000
v -16.70000076 -6.69999981 0.00000000
v -17.29999924 -5.59200001 0.00000000
v -16.70000076 -5.59200001 0.00000000
v -17.29999924 -4.59200001 0.00000000
v -13.19200039 -7.30000019 0.00000000
v -13.19200039 -6.69999981 0.00000000
v -12.19200039 -7.30000019 0.00000000
v -17.29999924 4.59200001 0.00000000
v -16.70000076 4.59200001 0.00000000
v -16.70000076 -4.59200001 0.00000000
v -4.73066664 -7.30000019 0.00000000
v -17.29999924 5.59200001 0.00000000
v -4.73066664 -6.69999981 0.00000000
v -12.19200039 -6.69999981 0.00000000
v -3.73066664 -7.30000019 0.00000000
v -16.70000076 6.69999981 0.00000000
v -16.70000076 5.59200001 0.00000000
v -13.19200039 7.30000019 0.00000000
v -13.19200039 6.69999981 0.00000000
v -12.19200039 7.30000019 0.00000000
v 3.73066664 -7.30000019 0.00000000
v -3.73066664 -6.69999981 0.00000000
v 3.73066664 -6.69999981 0.00000000
v -4.73066664 7.30000019 0.00000000
v -12.19200039 6.69999981 0.00000000
v -4.73066664 6.69999981 0.00000000
v 12.19200039 -6.69999981 0.00000000
v 4.73066664 -7.30000019 0.00000000
v 4.73066664 -6.69999981 0.00000000
v 12.19200039 -7.30000019 0.00000000
v 13.19200039 -7.30000019 0.00000000
v 16.70000076 -6.69999981 0.00000000
v 13.19200039 -6.69999981 0.00000000
v 3.73066664 7.30000019 0.00000000
v -3.73066664 6.69999981 0.00000000
v -3.73066664 7.30000019 0.00000000
v 3.73066664 6.69999981 0.00000000
v 17.29999924 -5.59200001 0.00000000
v 16.70000076 -5.59200001 0.00000000
v 17.29999924 -4.59200001 0.00000000
v 12.19200039 7.30000019 0.00000000
v 4.73066664 6.69999981 0.00000000
v 4.73066664 7.30000019 0.00000000
v 12.19200039 6.69999981 0.00000000
v 16.70000076 4.59200001 0.00000000
v 16.70000076 -4.59200001 0.00000000
v 17.29999924 4.59200001 0.00000000
v 16.70000076 6.69999981 0.00000000
v 13.19200039 6.69999981 0.00000000
v 13.19200039 7.30000019 0.00000000
v 17.29999924 5.59200001 0.00000000
v 16.70000076 5.59200001 0.00000000
v -16.70000076 -6.69999981 -10.00000000
v -13.19200039 -6.69999981 -10.00000000
v -13.19200039 -7.30000019 -9.00000000
v -13.19200039 -6.75000000 -10.00000000
v -12.19200039 -7.30000019 -9.00000000
v -12.19200039 -6.69999981 -10.00000000
v -12.19200039 -6.75000000 -10.00000000
v -4.73066664 -6.69999981 -10.00000000
v -4.73066664 -7.30000019 -9.00000000
v -4.73066664 -6.75000000 -10.00000000
v -3.73066664 -7.30000019 -9.00000000
v -3.73066664 -6.69999981 -10.00000000
v -3.73066664 -6.75000000 -10.00000000
v 3.73066664 -6.69999981 -10.00000000
v 3.73066664 -7.30000019 -9.00000000
v 3.73066664 -6.75000000 -10.00000000
v 4.73066664 -7.30000019 -9.00000000
v 4.73066664 -6.69999981 -10.00000000
v 4.73066664 -6.75000000 -10.00000000
v 12.19200039 -6.69999981 -10.00000000
v 12.19200039 -7.30000019 -9.00000000
v 12.19200039 -6.75000000 -10.00000000
v 13.19200039 -7.30000019 -9.00000000
v 13.19200039 -6.69999981 -10.00000000
v 13.19200039 -6.75000000 -10.00000000
v 16.70000076 -6.69999981 -10.00000000
v 16.70000076 -5.59200001 -10.00000000
v 17.29999924 -5.59200001 -9.00000000
v 16.75000000 -5.59200001 -10.00000000
v 17.29999924 -4.59200001 -9.00000000
v 16.70000076 -4.59200001 -10.00000000
v 16.75000000 -4.59200001 -10.00000000
v 16.70000076 4.59200001 -10.00000000
v 17.29999924 4.59200001 -9.00000000
v 16.75000000 4.59200001 -10.00000000
v 17.29999924 5.59200001 -9.00000000
v 16.70000076 5.59200001 -10.00000000
v 16.75000000 5.59200001 -10.00000000
v 16.70000076 6.69999981 -10.00000000
v 13.19200039 6.69999981 -10.00000000
v 13.19200039 7.30000019 -9.00000000
v 13.19200039 6.75000000 -10.00000000
v 12.19200039 7.30000019 -9.00000000
v 12.19200039 6.69999981 -10.00000000
v 12.19200039 6.75000000 -10.00000000
v 4.73066664 6.69999981 -10.00000000
v 4.73066664 7.30000019 -9.00000000
v 4.73066664 6.75000000 -10.00000000
v 3.73066664 7.30000019 -9.00000000
v 3.73066664 6.69999981 -10.00000000
v 3.73066664 6.75000000 -10.00000000
v -3.73066664 6.69999981 -10.00000000
v -3.73066664 7.30000019 -9.00000000
v -3.73066664 6.75000000 -10.00000000
v -4.73066664 7.30000019 -9.00000000
v -4.73066664 6.69999981 -10.00000000
v -4.73066664 6.75000000 -10.00000000
v -12.19200039 6.69999981 -10.00000000
v -12.19200039 7.30000019 -9.00000000
v -12.19200039 6.75000000 -10.00000000
v -13.19200039 7.30000019 -9.00000000
v -13.19200039 6.69999981 -10.00000000
v -13.19200039 6.75000000 -10.00000000
v -16.70000076 6.69999981 -10.00000000
v -16.70000076 5.59200001 -10.00000000
v -17.29999924 5.59200001 -9.00000000
v -16.75000000 5.59200001 -10.00000000
v -17.29999924 4.59200001 -9.00000000
v -16.70000076 4.59200001 -10.00000000
v -16.75000000 4.59200001 -10.00000000
v -16.70000076 -4.59200001 -10.00000000
v -17.29999924 -4.59200001 -9.00000000
v -16.75000000 -4.59200001 -10.00000000
v -17.29999924 -5.59200001 -9.00000000
v -16.70000076 -5.59200001 -10.00000000
v -16.75000000 -5.59200001 -10.00000000
v -14.69999981 -4.69999981 -10.00000000
v -14.69999981 4.69999981 -10.00000000
v 14.69999981 -4.69999981 -10.00000000
v 14.69999981 4.69999981 -10.00000000
v 14.69999981 -4.69999981 0.00000000
v -14.69999981 -4.69999981 0.00000000
v -14.69999981 4.69999981 0.00000000
v 14.69999981 4.69999981 0.00000000
f 1 2 3
f 4 1 3
f 2 5 3
f 6 7 5
f 6 5 2
f 8 9 7
f 8 7 6
f 10 11 9
f 10 9 8
f 12 13 11
f 12 11 10
f 14 15 13
f 14 13 12
f 16 17 15
f 16 15 14
f 18 19 17
f 18 17 16
f 20 19 18
f 20 21 19
f 22 21 20
f 22 23 21
f 24 25 23
f 24 23 22
f 26 27 25
f 26 25 24
f 28 29 27
f 28 27 26
f 30 31 29
f 30 29 28
f 32 33 31
f 32 31 30
f 34 35 33
f 34 33 32
f 36 37 35
f 36 35 34
f 38 39 37
f 38 37 36
f 40 41 39
f 40 39 38
f 42 43 41
f 42 41 40
f 44 45 43
f 44 43 42
f 46 47 45
f 46 45 44
f 48 49 47
f 48 47 46
f 50 51 49
f 50 49 48
f 52 53 51
f 52 51 50
f 54 55 53
f 54 53 52
f 56 57 55
f 56 55 54
f 58 59 57
f 58 57 56
f 60 61 59
f 60 59 58
f 62 63 61
f 62 61 60
f 64 65 63
f 64 63 62
f 66 65 64
f 67 68 65
f 67 65 66
f 38 36 34
f 30 34 32
f 30 40 38
f 30 38 34
f 44 42 40
f 26 30 28
f 48 46 44
f 22 26 24
f 22 30 26
f 52 50 48
f 52 44 40
f 52 48 44
f 16 20 18
f 16 22 20
f 58 54 52
f 58 56 54
f 10 14 12
f 8 14 10
f 64 62 60
f 6 16 14
f 6 22 16
f 6 14 8
f 66 60 58
f 66 40 30
f 66 52 40
f 66 30 22
f 66 58 52
f 66 64 60
f 66 22 6
f 2 67 66
f 2 66 6
f 69 67 2
f 70 71 72
f 70 72 69
f 73 70 69
f 74 73 69
f 74 75 73
f 76 77 74
f 78 76 74
f 79 74 69
f 79 78 74
f 80 81 82
f 80 82 79
f 83 80 79
f 83 84 80
f 85 83 79
f 86 87 88
f 86 88 89
f 86 89 90
f 86 90 85
f 91 86 85
f 92 91 85
f 92 85 79
f 92 93 91
f 94 92 79
f 94 95 96
f 94 96 92
f 97 98 94
f 99 79 69
f 99 94 79
f 99 97 94
f 100 99 69
f 100 101 99
f 100 69 2
f 102 1 103
f 102 103 104
f 105 102 106
f 107 102 105
f 108 107 109
f 110 107 108
f 110 102 107
f 111 102 110
f 112 111 113
f 112 113 114
f 112 102 111
f 115 102 112
f 116 1 102
f 116 102 115
f 117 1 116
f 118 117 119
f 118 119 120
f 118 1 117
f 121 1 118
f 122 1 121
f 123 1 122
f 123 122 124
f 125 123 126
f 127 1 123
f 127 123 125
f 128 127 129
f 128 129 130
f 131 127 128
f 132 1 127
f 132 127 131
f 132 131 133
f 134 2 1
f 134 100 2
f 135 1 132
f 135 134 1
f 136 134 135
f 136 135 137
f 136 138 134
f 139 137 140
f 141 139 142
f 143 144 145
f 146 136 137
f 146 137 139
f 146 139 141
f 146 145 136
f 147 143 145
f 147 148 149
f 147 149 143
f 150 151 152
f 153 147 145
f 154 146 151
f 154 150 155
f 154 145 146
f 154 151 150
f 156 157 153
f 156 153 145
f 158 156 145
f 159 160 161
f 159 161 162
f 163 164 165
f 163 165 158
f 163 158 145
f 166 154 160
f 166 145 154
f 166 163 145
f 166 160 159
f 1 4 167
f 103 167 168
f 103 1 167
f 104 168 169
f 104 103 168
f 102 169 170
f 102 104 169
f 106 170 171
f 106 102 170
f 105 171 172
f 105 106 171
f 107 172 173
f 107 105 172
f 109 173 174
f 109 107 173
f 108 109 174
f 108 174 175
f 110 108 175
f 110 175 176
f 111 176 177
f 111 110 176
f 113 177 178
f 113 111 177
f 114 178 179
f 114 113 178
f 112 179 180
f 112 114 179
f 115 180 181
f 115 112 180
f 116 181 182
f 116 115 181
f 117 182 183
f 117 116 182
f 119 183 184
f 119 117 183
f 120 184 185
f 120 119 184
f 118 185 186
f 118 120 185
f 121 186 187
f 121 118 186
f 122 187 188
f 122 121 187
f 124 188 189
f 124 122 188
f 123 189 190
f 123 124 189
f 126 190 191
f 126 123 190
f 125 191 192
f 125 126 191
f 127 192 193
f 127 125 192
f 129 193 194
f 129 127 193
f 130 194 195
f 130 129 194
f 128 195 196
f 128 130 195
f 131 196 197
f 131 128 196
f 133 131 197
f 132 197 198
f 132 133 197
f 199 33 35
f 200 199 35
f 200 35 37
f 200 37 39
f 201 33 199
f 202 200 39
f 203 31 33
f 203 33 201
f 204 39 41
f 204 202 39
f 205 29 31
f 205 31 203
f 206 41 43
f 206 204 41
f 207 27 29
f 207 29 205
f 208 43 45
f 208 206 43
f 209 25 27
f 209 27 207
f 210 45 47
f 210 208 45
f 211 23 25
f 211 25 209
f 212 47 49
f 212 210 47
f 213 21 23
f 213 23 211
f 214 49 51
f 214 212 49
f 215 21 213
f 215 19 21
f 216 51 53
f 216 214 51
f 217 15 17
f 217 17 19
f 217 19 215
f 218 53 55
f 218 216 53
f 219 15 217
f 220 55 57
f 220 218 55
f 221 13 15
f 221 15 219
f 222 57 59
f 222 220 57
f 223 11 13
f 223 13 221
f 224 59 61
f 224 222 59
f 225 9 11
f 225 11 223
f 226 61 63
f 226 224 61
f 227 5 7
f 227 7 9
f 227 9 225
f 228 63 65
f 228 65 68
f 228 226 63
f 229 5 227
f 230 228 68
f 231 3 5
f 231 5 229
f 232 230 68
f 232 68 233
f 234 232 233
f 234 235 236
f 234 233 235
f 237 234 236
f 238 237 236
f 238 236 239
f 240 238 239
f 240 241 242
f 240 239 241
f 243 240 242
f 244 243 242
f 244 245 246
f 244 242 245
f 247 244 246
f 248 247 246
f 248 246 249
f 250 248 249
f 250 251 252
f 250 249 251
f 253 250 252
f 253 252 254
f 255 253 254
f 256 255 254
f 256 254 257
f 258 256 257
f 258 257 259
f 260 258 259
f 260 259 261
f 262 260 261
f 262 261 263
f 264 262 263
f 265 262 264
f 266 265 264
f 266 267 265
f 268 267 266
f 268 269 267
f 270 269 268
f 270 271 269
f 272 273 271
f 272 271 270
f 274 273 272
f 274 275 276
f 274 276 273
f 277 275 274
f 278 279 275
f 278 275 277
f 280 279 278
f 280 281 279
f 282 281 280
f 282 283 284
f 282 284 281
f 285 283 282
f 286 287 288
f 286 288 283
f 286 283 285
f 289 287 286
f 290 287 289
f 290 291 292
f 290 292 287
f 293 291 290
f 294 291 293
f 294 295 291
f 296 295 294
f 296 297 295
f 298 4 3
f 298 3 231
f 299 167 4
f 299 4 298
f 300 168 167
f 300 169 168
f 300 167 299
f 301 169 300
f 302 170 169
f 302 171 170
f 302 169 301
f 303 171 302
f 304 172 171
f 304 171 303
f 305 173 172
f 305 172 304
f 306 174 173
f 306 173 305
f 307 175 174
f 307 174 306
f 308 176 175
f 308 175 307
f 309 177 176
f 309 176 308
f 310 178 177
f 310 177 309
f 311 179 178
f 311 178 310
f 312 180 179
f 312 179 311
f 313 181 180
f 313 180 312
f 314 182 181
f 314 181 313
f 183 314 315
f 183 182 314
f 316 183 315
f 184 183 316
f 185 316 317
f 185 184 316
f 186 185 317
f 186 317 318
f 186 318 319
f 187 186 319
f 188 187 319
f 188 319 320
f 188 320 321
f 189 188 321
f 189 321 322
f 190 189 322
f 191 190 322
f 191 322 323
f 192 191 323
f 192 323 324
f 193 192 324
f 193 324 325
f 193 325 326
f 194 193 326
f 195 194 326
f 195 326 327
f 196 195 327
f 196 327 328
f 197 196 328
f 197 328 329
f 198 197 329
f 198 329 330
f 331 297 296
f 332 198 330
f 333 331 296
f 334 198 332
f 334 332 335
f 336 334 335
f 336 335 337
f 338 331 333
f 338 339 340
f 338 340 331
f 341 336 337
f 342 343 339
f 342 339 338
f 344 337 345
f 344 345 346
f 344 341 337
f 347 348 343
f 347 343 342
f 349 346 350
f 349 344 346
f 351 348 347
f 352 349 350
f 353 354 355
f 353 355 348
f 353 348 351
f 356 350 357
f 356 357 358
f 356 352 350
f 359 354 353
f 360 356 358
f 361 362 354
f 361 354 359
f 363 358 364
f 363 360 358
f 365 362 361
f 365 366 367
f 365 367 362
f 368 364 369
f 368 363 364
f 370 366 365
f 371 369 372
f 371 368 369
f 373 374 375
f 373 375 366
f 373 366 370
f 376 372 377
f 376 371 372
f 378 379 374
f 378 374 373
f 380 377 381
f 380 381 382
f 380 376 377
f 383 379 378
f 384 382 385
f 384 380 382
f 386 379 383
f 386 387 388
f 386 388 379
f 389 384 385
f 390 387 386
f 391 385 392
f 391 392 393
f 391 389 385
f 394 395 387
f 394 387 390
f 396 391 393
f 396 393 395
f 396 395 394
f 67 69 233
f 68 67 233
f 135 132 198
f 334 135 198
f 101 100 296
f 101 296 294
f 99 294 293
f 99 101 294
f 97 293 290
f 97 99 293
f 98 290 289
f 98 97 290
f 94 289 286
f 94 98 289
f 95 286 285
f 95 94 286
f 96 285 282
f 96 95 285
f 92 282 280
f 92 96 282
f 93 92 280
f 93 280 278
f 91 278 277
f 91 93 278
f 86 277 274
f 86 91 277
f 87 274 272
f 87 86 274
f 88 272 270
f 88 87 272
f 89 270 268
f 89 88 270
f 90 268 266
f 90 89 268
f 85 266 264
f 85 90 266
f 83 264 263
f 83 85 264
f 84 263 261
f 84 83 263
f 80 261 259
f 80 84 261
f 81 259 257
f 81 80 259
f 82 257 254
f 82 81 257
f 79 254 252
f 79 82 254
f 78 252 251
f 78 79 252
f 76 251 249
f 76 78 251
f 77 249 246
f 77 76 249
f 74 246 245
f 74 77 246
f 75 245 242
f 75 74 245
f 73 242 241
f 73 75 242
f 70 241 239
f 70 73 241
f 71 239 236
f 71 70 239
f 72 236 235
f 72 71 236
f 69 235 233
f 69 72 235
f 135 334 336
f 137 336 341
f 137 135 336
f 140 341 344
f 140 137 341
f 139 344 349
f 139 140 344
f 142 349 352
f 142 139 349
f 141 352 356
f 141 142 352
f 146 356 360
f 146 141 356
f 151 360 363
f 151 146 360
f 152 151 363
f 152 363 368
f 150 152 368
f 150 368 371
f 155 371 376
f 155 150 371
f 154 376 380
f 154 155 376
f 160 380 384
f 160 154 380
f 161 384 389
f 161 160 384
f 162 389 391
f 162 161 389
f 159 391 396
f 159 162 391
f 166 396 394
f 166 159 396
f 163 394 390
f 163 166 394
f 164 390 386
f 164 163 390
f 165 386 383
f 165 164 386
f 158 383 378
f 158 165 383
f 156 378 373
f 156 158 378
f 157 156 373
f 153 373 370
f 153 370 365
f 153 157 373
f 147 365 361
f 147 153 365
f 148 147 361
f 149 361 359
f 149 359 353
f 149 148 361
f 143 353 351
f 143 149 353
f 144 143 351
f 145 351 347
f 145 347 342
f 145 144 351
f 136 342 338
f 136 145 342
f 138 338 333
f 138 136 338
f 134 138 333
f 100 134 333
f 296 100 333
f 397 231 398
f 397 298 231
f 298 397 399
f 299 399 400
f 299 298 399
f 300 299 400
f 301 400 401
f 301 300 400
f 302 401 402
f 302 301 401
f 303 402 403
f 303 302 402
f 304 403 404
f 304 303 403
f 305 404 405
f 305 304 404
f 306 405 406
f 306 305 405
f 307 306 406
f 307 406 407
f 308 407 408
f 308 307 407
f 309 408 409
f 309 308 408
f 310 409 410
f 310 410 411
f 310 309 409
f 311 310 411
f 312 311 411
f 312 411 412
f 313 412 413
f 313 312 412
f 314 413 414
f 314 313 413
f 315 414 415
f 315 314 414
f 316 415 416
f 316 315 415
f 317 416 417
f 317 417 418
f 317 316 416
f 318 317 418
f 319 418 419
f 319 318 418
f 320 419 420
f 320 319 419
f 321 420 421
f 321 320 420
f 322 421 422
f 322 422 423
f 322 321 421
f 323 322 423
f 324 423 424
f 324 323 423
f 325 424 425
f 325 425 426
f 325 324 424
f 326 426 427
f 326 325 426
f 327 326 427
f 328 427 428
f 328 327 427
f 329 428 429
f 329 328 428
f 330 429 430
f 330 329 429
f 431 330 430
f 431 332 330
f 332 431 432
f 335 432 433
f 335 332 432
f 337 335 433
f 345 433 434
f 345 337 433
f 346 434 435
f 346 345 434
f 350 435 436
f 350 346 435
f 357 436 437
f 357 350 436
f 358 437 438
f 358 357 437
f 364 438 439
f 364 358 438
f 369 364 439
f 369 439 440
f 372 440 441
f 372 369 440
f 377 441 442
f 377 372 441
f 381 442 443
f 381 443 444
f 381 377 442
f 382 381 444
f 385 382 444
f 385 444 445
f 392 445 446
f 392 385 445
f 393 446 447
f 393 392 446
f 395 447 448
f 395 393 447
f 387 448 449
f 387 395 448
f 388 449 450
f 388 450 451
f 388 387 449
f 379 388 451
f 374 451 452
f 374 379 451
f 375 452 453
f 375 374 452
f 366 453 454
f 366 375 453
f 367 454 455
f 367 455 456
f 367 366 454
f 362 367 456
f 354 456 457
f 354 362 456
f 355 457 458
f 355 458 459
f 355 354 457
f 348 459 460
f 348 355 459
f 343 348 460
f 339 460 461
f 339 343 460
f 340 461 462
f 340 339 461
f 331 462 463
f 331 340 462
f 464 331 463
f 464 297 331
f 295 464 465
f 295 297 464
f 291 465 466
f 291 295 465
f 292 466 467
f 292 291 466
f 287 467 468
f 287 292 467
f 288 468 469
f 288 287 468
f 283 469 470
f 283 288 469
f 284 470 471
f 284 283 470
f 281 471 472
f 281 284 471
f 279 281 472
f 279 472 473
f 275 473 474
f 275 474 475
f 275 279 473
f 276 275 475
f 273 475 476
f 273 276 475
f 271 476 477
f 271 273 476
f 269 477 478
f 269 271 477
f 267 478 479
f 267 269 478
f 265 479 480
f 265 267 479
f 262 480 481
f 262 265 480
f 260 481 482
f 260 262 481
f 258 482 483
f 258 260 482
f 256 483 484
f 256 258 483
f 255 484 485
f 255 256 484
f 253 485 486
f 253 255 485
f 250 486 487
f 250 253 486
f 248 487 488
f 248 488 489
f 248 250 487
f 247 248 489
f 244 489 490
f 244 490 491
f 244 247 489
f 243 244 491
f 240 491 492
f 240 243 491
f 238 492 493
f 238 240 492
f 237 493 494
f 237 494 495
f 237 238 493
f 234 237 495
f 232 495 496
f 232 234 495
f 497 232 496
f 497 230 232
f 231 498 398
f 229 499 498
f 229 498 231
f 227 499 229
f 225 500 499
f 225 499 227
f 223 501 500
f 223 500 225
f 221 502 501
f 221 501 223
f 219 503 502
f 219 502 221
f 217 504 503
f 217 503 219
f 215 505 504
f 215 504 217
f 213 505 215
f 213 506 505
f 211 507 506
f 211 506 213
f 209 508 507
f 209 507 211
f 207 509 508
f 207 510 509
f 207 508 209
f 205 510 207
f 203 510 205
f 203 511 510
f 201 512 511
f 201 511 203
f 199 513 512
f 199 512 201
f 200 514 513
f 200 513 199
f 202 515 514
f 202 514 200
f 204 516 515
f 204 517 516
f 204 515 202
f 206 517 204
f 208 518 517
f 208 517 206
f 210 519 518
f 210 518 208
f 212 520 519
f 212 519 210
f 214 521 520
f 214 522 521
f 214 520 212
f 216 522 214
f 218 523 522
f 218 522 216
f 220 524 523
f 220 525 524
f 220 523 218
f 222 526 525
f 222 525 220
f 224 526 222
f 226 527 526
f 226 526 224
f 228 528 527
f 228 527 226
f 230 497 528
f 230 528 228
f 529 398 498
f 529 498 499
f 529 499 500
f 529 500 501
f 529 501 502
f 529 502 503
f 529 503 504
f 529 504 505
f 529 505 506
f 529 506 507
f 529 507 508
f 529 508 509
f 529 509 510
f 529 510 511
f 529 511 512
f 529 512 513
f 529 513 514
f 529 514 515
f 529 515 516
f 529 516 517
f 529 517 518
f 529 518 519
f 529 519 520
f 529 520 521
f 529 521 522
f 529 522 523
f 529 523 524
f 529 524 525
f 529 525 526
f 529 526 527
f 529 527 528
f 529 528 497
f 530 529 497
f 531 529 530
f 532 530 497
f 533 398 529
f 534 533 529
f 535 398 533
f 536 497 496
f 536 532 497
f 537 538 532
f 537 532 536
f 539 398 535
f 540 536 496
f 541 539 535
f 541 535 542
f 543 398 539
f 544 482 481
f 544 483 482
f 544 484 483
f 544 485 484
f 544 486 485
f 544 487 486
f 544 488 487
f 544 489 488
f 544 490 489
f 544 491 490
f 544 492 491
f 544 493 492
f 544 494 493
f 544 495 494
f 544 496 495
f 544 545 540
f 544 540 496
f 480 544 481
f 479 544 480
f 478 544 479
f 477 544 478
f 476 544 477
f 475 544 476
f 474 544 475
f 473 544 474
f 472 544 473
f 471 544 472
f 470 544 471
f 469 544 470
f 468 544 469
f 467 544 468
f 466 544 467
f 465 544 466
f 464 544 465
f 546 547 544
f 546 544 464
f 548 546 464
f 549 543 550
f 551 549 550
f 552 553 548
f 552 554 553
f 552 548 464
f 555 556 557
f 555 558 556
f 397 543 549
f 397 558 559
f 397 549 556
f 397 556 558
f 397 398 543
f 560 399 397
f 560 400 399
f 560 401 400
f 560 402 401
f 560 403 402
f 560 404 403
f 560 405 404
f 560 406 405
f 560 407 406
f 560 408 407
f 560 409 408
f 560 410 409
f 560 411 410
f 560 412 411
f 560 413 412
f 560 414 413
f 560 397 559
f 560 559 561
f 415 414 560
f 416 415 560
f 417 416 560
f 418 417 560
f 562 563 564
f 562 565 563
f 419 418 560
f 420 419 560
f 421 420 560
f 566 560 567
f 422 421 560
f 423 422 560
f 424 423 560
f 425 424 560
f 426 425 560
f 427 426 560
f 428 427 560
f 429 428 560
f 430 560 566
f 430 429 560
f 430 566 568
f 569 570 571
f 569 572 570
f 573 568 574
f 575 568 573
f 576 577 578
f 576 579 580
f 431 575 579
f 431 430 568
f 431 568 575
f 431 579 576
f 463 576 578
f 463 569 571
f 463 578 569
f 432 431 576
f 462 576 463
f 433 432 576
f 461 576 462
f 434 433 576
f 460 576 461
f 435 434 576
f 459 576 460
f 436 435 576
f 458 576 459
f 437 436 576
f 457 576 458
f 438 437 576
f 456 576 457
f 439 438 576
f 455 576 456
f 440 439 576
f 454 576 455
f 441 440 576
f 453 576 454
f 442 441 576
f 452 576 453
f 443 442 576
f 451 576 452
f 444 443 576
f 450 576 451
f 445 444 576
f 449 576 450
f 446 445 576
f 448 576 449
f 447 446 576
f 447 576 448
f 463 552 464
f 463 564 552
f 463 562 564
f 463 571 562
f 534 529 581
f 534 581 582
f 583 533 534
f 584 583 582
f 582 583 534
f 585 535 533
f 585 533 583
f 585 542 535
f 586 585 587
f 542 585 586
f 541 542 586
f 541 586 588
f 589 539 541
f 590 589 588
f 588 589 541
f 591 543 539
f 591 539 589
f 591 550 543
f 592 591 593
f 550 591 592
f 551 550 592
f 551 592 594
f 595 549 551
f 596 595 594
f 594 595 551
f 597 556 549
f 597 549 595
f 597 557 556
f 598 597 599
f 557 597 598
f 555 557 598
f 555 598 600
f 601 558 555
f 602 601 600
f 600 601 555
f 603 559 558
f 603 558 601
f 603 561 559
f 604 603 605
f 561 603 604
f 560 561 604
f 560 604 606
f 567 560 606
f 567 606 607
f 608 566 567
f 609 608 607
f 607 608 567
f 610 568 566
f 610 566 608
f 610 574 568
f 611 610 612
f 574 610 611
f 573 574 611
f 573 611 613
f 614 575 573
f 615 614 613
f 613 614 573
f 616 579 575
f 616 575 614
f 616 580 579
f 617 616 618
f 580 616 617
f 576 580 617
f 576 617 619
f 577 576 619
f 577 619 620
f 621 578 577
f 622 621 620
f 620 621 577
f 623 569 578
f 623 578 621
f 623 572 569
f 624 623 625
f 572 623 624
f 570 572 624
f 570 624 626
f 627 571 570
f 628 627 626
f 626 627 570
f 629 562 571
f 629 571 627
f 629 565 562
f 630 629 631
f 565 629 630
f 563 565 630
f 563 630 632
f 633 564 563
f 634 633 632
f 632 633 563
f 635 552 564
f 635 564 633
f 635 554 552
f 636 635 637
f 554 635 636
f 553 554 636
f 553 636 638
f 639 548 553
f 640 639 638
f 638 639 553
f 641 546 548
f 641 548 639
f 641 547 546
f 642 641 643
f 547 641 642
f 544 547 642
f 544 642 644
f 545 544 644
f 545 644 645
f 646 540 545
f 647 646 645
f 645 646 545
f 648 536 540
f 648 540 646
f 648 537 536
f 649 648 650
f 537 648 649
f 538 537 649
f 538 649 651
f 652 532 538
f 653 652 651
f 651 652 538
f 654 530 532
f 654 532 652
f 654 531 530
f 655 654 656
f 531 654 655
f 529 531 655
f 529 655 581
f 651 656 653
f 651 655 656
f 657 582 581
f 657 581 655
f 657 655 651
f 586 584 582
f 586 587 584
f 586 582 657
f 647 649 650
f 645 649 647
f 592 590 588
f 592 593 590
f 658 645 644
f 658 651 649
f 658 657 651
f 658 649 645
f 642 658 644
f 638 658 642
f 640 642 643
f 640 638 642
f 598 596 594
f 598 599 596
f 634 632 636
f 634 636 637
f 604 602 600
f 604 605 602
f 659 606 604
f 659 604 600
f 607 606 659
f 626 630 631
f 628 626 631
f 611 607 659
f 612 609 607
f 612 607 611
f 660 611 659
f 620 660 624
f 622 624 625
f 622 620 624
f 613 611 660
f 617 613 660
f 618 615 613
f 618 613 617
f 619 660 620
f 619 617 660
f 659 586 657
f 659 588 586
f 659 592 588
f 659 594 592
f 659 598 594
f 659 600 598
f 658 624 660
f 658 626 624
f 658 630 626
f 658 632 630
f 658 636 632
f 658 638 636
f 587 585 583
f 587 583 584
f 593 591 589
f 593 589 590
f 599 597 595
f 599 595 596
f 605 603 601
f 605 601 602
f 609 610 608
f 612 610 609
f 615 616 614
f 618 616 615
f 625 623 621
f 625 621 622
f 631 629 627
f 631 627 628
f 637 635 633
f 637 633 634
f 643 641 639
f 643 639 640
f 647 648 646
f 650 648 647
f 653 654 652
f 656 654 653
f 661 657 662
f 661 659 657
f 663 657 658
f 662 657 663
f 663 660 664
f 663 658 660
f 661 660 659
f 664 660 661
f 661 662 663
f 664 661 663

