# https://github.com/mikedh/trimesh

o cap_50x50_nolip.stl
v 22.00000000 -25.00000000 2.50000000
v -22.00000000 -25.00000000 2.50000000
v -22.00000000 -25.00000000 0.00000000
v 22.00000000 -25.00000000 0.00000000
v -21.70000076 -21.70000076 0.00000000
v -22.14720345 -24.99638557 0.00000000
v -22.29405212 -24.98555374 0.00000000
v -22.44019127 -24.96752930 0.00000000
v -22.58527184 -24.94235611 0.00000000
v -22.72894096 -24.91009331 0.00000000
v -22.87085342 -24.87082100 0.00000000
v -23.01066971 -24.82463264 0.00000000
v -23.14805031 -24.77163887 0.00000000
v -23.28266525 -24.71196747 0.00000000
v -23.41419029 -24.64576340 0.00000000
v -23.54230881 -24.57318497 0.00000000
v -23.66670990 -24.49440956 0.00000000
v -23.78709793 -24.40962219 0.00000000
v -23.90317917 -24.31903076 0.00000000
v -24.01467705 -24.22285271 0.00000000
v -24.12132072 -24.12132072 0.00000000
v -24.22285271 -24.01467705 0.00000000
v -24.31903076 -23.90317917 0.00000000
v -24.40962219 -23.78709793 0.00000000
v -24.49440956 -23.66670990 0.00000000
v -24.57318497 -23.54230881 0.00000000
v -24.64576340 -23.41419029 0.00000000
v -24.71196747 -23.28266525 0.00000000
v -24.77163887 -23.14805031 0.00000000
v -24.82463264 -23.01066971 0.00000000
v -24.87082100 -22.87085342 0.00000000
v -24.91009331 -22.72894096 0.00000000
v -24.94235611 -22.58527184 0.00000000
v -24.96752930 -22.44019127 0.00000000
v -24.98555374 -22.29405212 0.00000000
v -24.99638557 -22.14720345 0.00000000
v -25.00000000 -22.00000000 0.00000000
v -22.29999924 -16.99200058 0.00000000
v -16.99200058 -22.29999924 0.00000000
v -21.70000076 -16.99200058 0.00000000
v -16.99200058 -21.70000076 0.00000000
v -15.99199963 -22.29999924 0.00000000
v -22.29999924 -15.99199963 0.00000000
v -22.29999924 -8.74600029 0.00000000
v -8.74600029 -22.29999924 0.00000000
v -21.70000076 -8.74600029 0.00000000
v -21.70000076 -15.99199963 0.00000000
v -8.74600029 -21.70000076 0.00000000
v -15.99199963 -21.70000076 0.00000000
v -22.29999924 -7.74599981 0.00000000
v -7.74599981 -22.29999924 0.00000000
v -22.29999924 -0.50000000 0.00000000
v -0.50000000 -22.29999924 0.00000000
v -7.74599981 -21.70000076 0.00000000
v -21.70000076 -0.50000000 0.00000000
v -21.70000076 -7.74599981 0.00000000
v -0.50000000 -21.70000076 0.00000000
v -21.70000076 7.74599981 0.00000000
v -22.29999924 0.50000000 0.00000000
v -22.29999924 7.74599981 0.00000000
v -21.70000076 0.50000000 0.00000000
v 7.74599981 -21.70000076 0.00000000
v 0.50000000 -22.29999924 0.00000000
v 0.50000000 -21.70000076 0.00000000
v 7.74599981 -22.29999924 0.00000000
v -21.70000076 15.99199963 0.00000000
v -21.70000076 8.74600029 0.00000000
v -22.29999924 8.74600029 0.00000000
v -22.29999924 15.99199963 0.00000000
v 15.99199963 -21.70000076 0.00000000
v 8.74600029 -22.29999924 0.00000000
v 8.74600029 -21.70000076 0.00000000
v 15.99199963 -22.29999924 0.00000000
v 16.99200058 -22.29999924 0.00000000
v -25.00000000 22.00000000 0.00000000
v -22.29999924 16.99200058 0.00000000
v -21.70000076 21.70000076 0.00000000
v -21.70000076 16.99200058 0.00000000
v -24.31903076 23.90317917 0.00000000
v -24.22285271 24.01467705 0.00000000
v -24.40962219 23.78709793 0.00000000
v -24.49440956 23.66670990 0.00000000
v -24.57318497 23.54230881 0.00000000
v -24.64576340 23.41419029 0.00000000
v -24.71196747 23.28266525 0.00000000
v -24.77163887 23.14805031 0.00000000
v -24.82463264 23.01066971 0.00000000
v -24.87082100 22.87085342 0.00000000
v -24.91009331 22.72894096 0.00000000
v -24.94235611 22.58527184 0.00000000
v -24.96752930 22.44019127 0.00000000
v -24.98555374 22.29405212 0.00000000
v -24.99638557 22.14720345 0.00000000
v 21.70000076 -21.70000076 0.00000000
v 22.14720345 -24.99638557 0.00000000
v 22.29405212 -24.98555374 0.00000000
v 22.44019127 -24.96752930 0.00000000
v 22.58527184 -24.94235611 0.00000000
v 22.72894096 -24.91009331 0.00000000
v 22.87085342 -24.87082100 0.00000000
v 23.01066971 -24.82463264 0.00000000
v 23.14805031 -24.77163887 0.00000000
v 23.28266525 -24.71196747 0.00000000
v 23.41419029 -24.64576340 0.00000000
v 23.54230881 -24.57318497 0.00000000
v 23.66670990 -24.49440956 0.00000000
v 23.78709793 -24.40962219 0.00000000
v 23.90317917 -24.31903076 0.00000000
v 24.01467705 -24.22285271 0.00000000
v 24.12132072 -24.12132072 0.00000000
v 16.99200058 -21.70000076 0.00000000
v -24.12132072 24.12132072 0.00000000
v 24.22285271 -24.01467705 0.00000000
v -24.01467705 24.22285271 0.00000000
v 24.31903076 -23.90317917 0.00000000
v -23.90317917 24.31903076 0.00000000
v 24.40962219 -23.78709793 0.00000000
v -23.78709793 24.40962219 0.00000000
v 24.49440956 -23.66670990 0.00000000
v -23.66670990 24.49440956 0.00000000
v 24.57318497 -23.54230881 0.00000000
v -23.54230881 24.57318497 0.00000000
v 24.64576340 -23.41419029 0.00000000
v -23.41419029 24.64576340 0.00000000
v -23.28266525 24.71196747 0.00000000
v 24.71196747 -23.28266525 0.00000000
v -23.14805031 24.77163887 0.00000000
v 24.77163887 -23.14805031 0.00000000
v -23.01066971 24.82463264 0.00000000
v 24.82463264 -23.01066971 0.00000000
v -22.87085342 24.87082100 0.00000000
v 24.87082100 -22.87085342 0.00000000
v -22.72894096 24.91009331 0.00000000
v 24.91009331 -22.72894096 0.00000000
v -22.58527184 24.94235611 0.00000000
v 24.94235611 -22.58527184 0.00000000
v -22.44019127 24.96752930 0.00000000
v 24.96752930 -22.44019127 0.00000000
v 24.98555374 -22.29405212 0.00000000
v -22.29405212 24.98555374 0.00000000
v 24.99638557 -22.14720345 0.00000000
v -22.14720345 24.99638557 0.00000000
v 25.00000000 -22.00000000 0.00000000
v -22.00000000 25.00000000 0.00000000
v -16.99200058 22.29999924 0.00000000
v -16.99200058 21.70000076 0.00000000
v 22.29999924 -16.99200058 0.00000000
v 21.70000076 -16.99200058 0.00000000
v -15.99199963 22.29999924 0.00000000
v 22.29999924 -15.99199963 0.00000000
v 22.29999924 -8.74600029 0.00000000
v 21.70000076 -15.99199963 0.00000000
v 21.70000076 -8.74600029 0.00000000
v -8.74600029 22.29999924 0.00000000
v -15.99199963 21.70000076 0.00000000
v -8.74600029 21.70000076 0.00000000
v 22.29999924 -7.74599981 0.00000000
v 21.70000076 -0.50000000 0.00000000
v 21.70000076 -7.74599981 0.00000000
v -0.50000000 22.29999924 0.00000000
v -7.74599981 21.70000076 0.00000000
v -7.74599981 22.29999924 0.00000000
v -0.50000000 21.70000076 0.00000000
v 22.29999924 -0.50000000 0.00000000
v 7.74599981 22.29999924 0.00000000
v 0.50000000 21.70000076 0.00000000
v 0.50000000 22.29999924 0.00000000
v 7.74599981 21.70000076 0.00000000
v 22.29999924 7.74599981 0.00000000
v 21.70000076 0.50000000 0.00000000
v 21.70000076 7.74599981 0.00000000
v 22.29999924 0.50000000 0.00000000
v 15.99199963 21.70000076 0.00000000
v 8.74600029 21.70000076 0.00000000
v 8.74600029 22.29999924 0.00000000
v 21.70000076 15.99199963 0.00000000
v 22.29999924 8.74600029 0.00000000
v 21.70000076 8.74600029 0.00000000
v 15.99199963 22.29999924 0.00000000
v 22.29999924 15.99199963 0.00000000
v 21.70000076 21.70000076 0.00000000
v 16.99200058 21.70000076 0.00000000
v 16.99200058 22.29999924 0.00000000
v 22.29999924 16.99200058 0.00000000
v 21.70000076 16.99200058 0.00000000
v 22.00000000 25.00000000 0.00000000
v 25.00000000 22.00000000 0.00000000
v 24.99638557 22.14720345 0.00000000
v 22.14720345 24.99638557 0.00000000
v 24.98555374 22.29405212 0.00000000
v 22.29405212 24.98555374 0.00000000
v 24.96752930 22.44019127 0.00000000
v 22.44019127 24.96752930 0.00000000
v 24.94235611 22.58527184 0.00000000
v 22.58527184 24.94235611 0.00000000
v 24.91009331 22.72894096 0.00000000
v 22.72894096 24.91009331 0.00000000
v 24.87082100 22.87085342 0.00000000
v 22.87085342 24.87082100 0.00000000
v 24.82463264 23.01066971 0.00000000
v 23.01066971 24.82463264 0.00000000
v 24.77163887 23.14805031 0.00000000
v 23.14805031 24.77163887 0.00000000
v 24.71196747 23.28266525 0.00000000
v 23.28266525 24.71196747 0.00000000
v 24.64576340 23.41419029 0.00000000
v 23.41419029 24.64576340 0.00000000
v 24.57318497 23.54230881 0.00000000
v 23.54230881 24.57318497 0.00000000
v 23.66670990 24.49440956 0.00000000
v 24.49440956 23.66670990 0.00000000
v 24.40962219 23.78709793 0.00000000
v 23.78709793 24.40962219 0.00000000
v 24.31903076 23.90317917 0.00000000
v 23.90317917 24.31903076 0.00000000
v 24.22285271 24.01467705 0.00000000
v 24.01467705 24.22285271 0.00000000
v 24.12132072 24.12132072 0.00000000
v -22.14720345 -24.99638557 2.50000000
v -22.29405212 -24.98555374 2.50000000
v -22.44019127 -24.96752930 2.50000000
v -22.58527184 -24.94235611 2.50000000
v -22.72894096 -24.91009331 2.50000000
v -22.87085342 -24.87082100 2.50000000
v -23.01066971 -24.82463264 2.50000000
v -23.14805031 -24.77163887 2.50000000
v -23.28266525 -24.71196747 2.50000000
v -23.41419029 -24.64576340 2.50000000
v -23.54230881 -24.57318497 2.50000000
v -23.66670990 -24.49440956 2.50000000
v -23.78709793 -24.40962219 2.50000000
v -23.90317917 -24.31903076 2.50000000
v -24.01467705 -24.22285271 2.50000000
v -24.12132072 -24.12132072 2.50000000
v -24.22285271 -24.01467705 2.50000000
v -24.31903076 -23.90317917 2.50000000
v -24.40962219 -23.78709793 2.50000000
v -24.49440956 -23.66670990 2.50000000
v -24.57318497 -23.54230881 2.50000000
v -24.64576340 -23.41419029 2.50000000
v -24.71196747 -23.28266525 2.50000000
v -24.77163887 -23.14805031 2.50000000
v -24.82463264 -23.01066971 2.50000000
v -24.87082100 -22.87085342 2.50000000
v -24.91009331 -22.72894096 2.50000000
v -24.94235611 -22.58527184 2.50000000
v -24.96752930 -22.44019127 2.50000000
v -24.98555374 -22.29405212 2.50000000
v -24.99638557 -22.14720345 2.50000000
v -25.00000000 -22.00000000 2.50000000
v 22.14720345 -24.99638557 2.50000000
v 22.29405212 -24.98555374 2.50000000
v 22.44019127 -24.96752930 2.50000000
v 22.58527184 -24.94235611 2.50000000
v 22.72894096 -24.91009331 2.50000000
v 22.87085342 -24.87082100 2.50000000
v 23.01066971 -24.82463264 2.50000000
v 23.14805031 -24.77163887 2.50000000
v 23.28266525 -24.71196747 2.50000000
v 23.41419029 -24.64576340 2.50000000
v 23.54230881 -24.57318497 2.50000000
v 23.66670990 -24.49440956 2.50000000
v 23.78709793 -24.40962219 2.50000000
v 23.90317917 -24.31903076 2.50000000
v 24.01467705 -24.22285271 2.50000000
v 24.12132072 -24.12132072 2.50000000
v 24.22285271 -24.01467705 2.50000000
v 24.31903076 -23.90317917 2.50000000
v 24.40962219 -23.78709793 2.50000000
v 24.49440956 -23.66670990 2.50000000
v 24.57318497 -23.54230881 2.50000000
v 24.64576340 -23.41419029 2.50000000
v 24.71196747 -23.28266525 2.50000000
v 24.77163887 -23.14805031 2.50000000
v 24.82463264 -23.01066971 2.50000000
v 24.87082100 -22.87085342 2.50000000
v 24.91009331 -22.72894096 2.50000000
v 24.94235611 -22.58527184 2.50000000
v 24.96752930 -22.44019127 2.50000000
v 24.98555374 -22.29405212 2.50000000
v 24.99638557 -22.14720345 2.50000000
v 25.00000000 -22.00000000 2.50000000
v -24.94235611 22.58527184 2.50000000
v -24.96752930 22.44019127 2.50000000
v -24.98555374 22.29405212 2.50000000
v -24.99638557 22.14720345 2.50000000
v -24.91009331 22.72894096 2.50000000
v -24.77163887 23.14805031 2.50000000
v -24.82463264 23.01066971 2.50000000
v -24.87082100 22.87085342 2.50000000
v -24.71196747 23.28266525 2.50000000
v -25.00000000 22.00000000 2.50000000
v -24.64576340 23.41419029 2.50000000
v -24.49440956 23.66670990 2.50000000
v -24.57318497 23.54230881 2.50000000
v -24.40962219 23.78709793 2.50000000
v -24.22285271 24.01467705 2.50000000
v -24.31903076 23.90317917 2.50000000
v -24.12132072 24.12132072 2.50000000
v -24.01467705 24.22285271 2.50000000
v -23.66670990 24.49440956 2.50000000
v -23.78709793 24.40962219 2.50000000
v -23.90317917 24.31903076 2.50000000
v -23.54230881 24.57318497 2.50000000
v -23.28266525 24.71196747 2.50000000
v -23.41419029 24.64576340 2.50000000
v -23.01066971 24.82463264 2.50000000
v -23.14805031 24.77163887 2.50000000
v -22.72894096 24.91009331 2.50000000
v -22.87085342 24.87082100 2.50000000
v -22.58527184 24.94235611 2.50000000
v -22.44019127 24.96752930 2.50000000
v -22.14720345 24.99638557 2.50000000
v -22.29405212 24.98555374 2.50000000
v -22.00000000 25.00000000 2.50000000
v 25.00000000 22.00000000 2.50000000
v 22.00000000 25.00000000 2.50000000
v 22.29405212 24.98555374 2.50000000
v 24.99638557 22.14720345 2.50000000
v 22.14720345 24.99638557 2.50000000
v 24.94235611 22.58527184 2.50000000
v 24.98555374 22.29405212 2.50000000
v 24.96752930 22.44019127 2.50000000
v 22.72894096 24.91009331 2.50000000
v 22.58527184 24.94235611 2.50000000
v 22.44019127 24.96752930 2.50000000
v 24.87082100 22.87085342 2.50000000
v 24.91009331 22.72894096 2.50000000
v 23.01066971 24.82463264 2.50000000
v 22.87085342 24.87082100 2.50000000
v 24.77163887 23.14805031 2.50000000
v 24.82463264 23.01066971 2.50000000
v 23.41419029 24.64576340 2.50000000
v 24.71196747 23.28266525 2.50000000
v 24.64576340 23.41419029 2.50000000
v 23.28266525 24.71196747 2.50000000
v 23.14805031 24.77163887 2.50000000
v 23.66670990 24.49440956 2.50000000
v 23.54230881 24.57318497 2.50000000
v 24.49440956 23.66670990 2.50000000
v 24.57318497 23.54230881 2.50000000
v 24.40962219 23.78709793 2.50000000
v 23.78709793 24.40962219 2.50000000
v 23.90317917 24.31903076 2.50000000
v 24.22285271 24.01467705 2.50000000
v 24.31903076 23.90317917 2.50000000
v 24.12132072 24.12132072 2.50000000
v 24.01467705 24.22285271 2.50000000
v -21.70000076 -21.70000076 -10.00000000
v -16.99200058 -21.70000076 -10.00000000
v -16.99200058 -22.29999924 -9.00000000
v -16.99200058 -21.75000000 -10.00000000
v -15.99199963 -22.29999924 -9.00000000
v -15.99199963 -21.70000076 -10.00000000
v -15.99199963 -21.75000000 -10.00000000
v -8.74600029 -21.70000076 -10.00000000
v -8.74600029 -22.29999924 -9.00000000
v -8.74600029 -21.75000000 -10.00000000
v -7.74599981 -22.29999924 -9.00000000
v -7.74599981 -21.70000076 -10.00000000
v -7.74599981 -21.75000000 -10.00000000
v -0.50000000 -21.70000076 -10.00000000
v -0.50000000 -22.29999924 -9.00000000
v -0.50000000 -21.75000000 -10.00000000
v 0.50000000 -22.29999924 -9.00000000
v 0.50000000 -21.70000076 -10.00000000
v 0.50000000 -21.75000000 -10.00000000
v 7.74599981 -21.70000076 -10.00000000
v 7.74599981 -22.29999924 -9.00000000
v 7.74599981 -21.75000000 -10.00000000
v 8.74600029 -22.29999924 -9.00000000
v 8.74600029 -21.70000076 -10.00000000
v 8.74600029 -21.75000000 -10.00000000
v 15.99199963 -21.70000076 -10.00000000
v 15.99199963 -22.29999924 -9.00000000
v 15.99199963 -21.75000000 -10.00000000
v 16.99200058 -22.29999924 -9.00000000
v 16.99200058 -21.70000076 -10.00000000
v 16.99200058 -21.75000000 -10.00000000
v 21.70000076 -21.70000076 -10.00000000
v 21.70000076 -16.99200058 -10.00000000
v 22.29999924 -16.99200058 -9.00000000
v 21.75000000 -16.99200058 -10.00000000
v 22.29999924 -15.99199963 -9.00000000
v 21.70000076 -15.99199963 -10.00000000
v 21.75000000 -15.99199963 -10.00000000
v 21.70000076 -8.74600029 -10.00000000
v 22.29999924 -8.74600029 -9.00000000
v 21.75000000 -8.74600029 -10.00000000
v 22.29999924 -7.74599981 -9.00000000
v 21.70000076 -7.74599981 -10.00000000
v 21.75000000 -7.74599981 -10.00000000
v 21.70000076 -0.50000000 -10.00000000
v 22.29999924 -0.50000000 -9.00000000
v 21.75000000 -0.50000000 -10.00000000
v 22.29999924 0.50000000 -9.00000000
v 21.70000076 0.50000000 -10.00000000
v 21.75000000 0.50000000 -10.00000000
v 21.70000076 7.74599981 -10.00000000
v 22.29999924 7.74599981 -9.00000000
v 21.75000000 7.74599981 -10.00000000
v 22.29999924 8.74600029 -9.00000000
v 21.70000076 8.74600029 -10.00000000
v 21.75000000 8.74600029 -10.00000000
v 21.70000076 15.99199963 -10.00000000
v 22.29999924 15.99199963 -9.00000000
v 21.75000000 15.99199963 -10.00000000
v 22.29999924 16.99200058 -9.00000000
v 21.70000076 16.99200058 -10.00000000
v 21.75000000 16.99200058 -10.00000000
v 21.70000076 21.70000076 -10.00000000
v 16.99200058 21.70000076 -10.00000000
v 16.99200058 22.29999924 -9.00000000
v 16.99200058 21.75000000 -10.00000000
v 15.99199963 22.29999924 -9.00000000
v 15.99199963 21.70000076 -10.00000000
v 15.99199963 21.75000000 -10.00000000
v 8.74600029 21.70000076 -10.00000000
v 8.74600029 22.29999924 -9.00000000
v 8.74600029 21.75000000 -10.00000000
v 7.74599981 22.29999924 -9.00000000
v 7.74599981 21.70000076 -10.00000000
v 7.74599981 21.75000000 -10.00000000
v 0.50000000 21.70000076 -10.00000000
v 0.50000000 22.29999924 -9.00000000
v 0.50000000 21.75000000 -10.00000000
v -0.50000000 22.29999924 -9.00000000
v -0.50000000 21.70000076 -10.00000000
v -0.50000000 21.75000000 -10.00000000
v -7.74599981 21.70000076 -10.00000000
v -7.74599981 22.29999924 -9.00000000
v -7.74599981 21.75000000 -10.00000000
v -8.74600029 22.29999924 -9.00000000
v -8.74600029 21.70000076 -10.00000000
v -8.74600029 21.75000000 -10.00000000
v -15.99199963 21.70000076 -10.00000000
v -15.99199963 22.29999924 -9.00000000
v -15.99199963 21.75000000 -10.00000000
v -16.99200058 22.29999924 -9.00000000
v -16.99200058 21.70000076 -10.00000000
v -16.99200058 21.75000000 -10.00000000
v -21.70000076 21.70000076 -10.00000000
v -21.70000076 16.99200058 -10.00000000
v -22.29999924 16.99200058 -9.00000000
v -21.75000000 16.99200058 -10.00000000
v -22.29999924 15.99199963 -9.00000000
v -21.70000076 15.99199963 -10.00000000
v -21.75000000 15.99199963 -10.00000000
v -21.70000076 8.74600029 -10.00000000
v -22.29999924 8.74600029 -9.00000000
v -21.75000000 8.74600029 -10.00000000
v -22.29999924 7.74599981 -9.00000000
v -21.70000076 7.74599981 -10.00000000
v -21.75000000 7.74599981 -10.00000000
v -21.70000076 0.50000000 -10.00000000
v -22.29999924 0.50000000 -9.00000000
v -21.75000000 0.50000000 -10.00000000
v -22.29999924 -0.50000000 -9.00000000
v -21.70000076 -0.50000000 -10.00000000
v -21.75000000 -0.50000000 -10.00000000
v -21.70000076 -7.74599981 -10.00000000
v -22.29999924 -7.74599981 -9.00000000
v -21.75000000 -7.74599981 -10.00000000
v -22.29999924 -8.74600029 -9.00000000
v -21.70000076 -8.74600029 -10.00000000
v -21.75000000 -8.74600029 -10.00000000
v -21.70000076 -15.99199963 -10.00000000
v -22.29999924 -15.99199963 -9.00000000
v -21.75000000 -15.99199963 -10.00000000
v -22.29999924 -16.99200058 -9.00000000
v -21.70000076 -16.99200058 -10.00000000
v -21.75000000 -16.99200058 -10.00000000
v -19.70000076 -19.70000076 -10.00000000
v 19.70000076 -19.70000076 -10.00000000
v -19.70000076 19.70000076 -10.00000000
v 19.70000076 19.70000076 -10.00000000
v 19.70000076 -19.70000076 0.00000000
v -19.70000076 -19.70000076 0.00000000
v -19.70000076 19.70000076 0.00000000
v 19.70000076 19.70000076 0.00000000
f 1 2 3
f 4 1 3
f 5 3 6
f 5 6 7
f 5 7 8
f 5 8 9
f 5 9 10
f 5 10 11
f 5 11 12
f 5 12 13
f 5 13 14
f 5 14 15
f 5 15 16
f 5 16 17
f 5 17 18
f 5 18 19
f 5 19 20
f 5 20 21
f 5 21 22
f 5 22 23
f 5 23 24
f 5 24 25
f 5 25 26
f 5 26 27
f 5 27 28
f 5 28 29
f 5 29 30
f 5 30 31
f 5 31 32
f 5 32 33
f 5 33 34
f 5 34 35
f 5 35 36
f 5 36 37
f 38 5 37
f 39 3 5
f 40 5 38
f 41 39 5
f 42 3 39
f 43 38 37
f 44 43 37
f 45 3 42
f 46 43 44
f 46 47 43
f 48 42 49
f 48 45 42
f 50 44 37
f 51 3 45
f 52 50 37
f 53 51 54
f 53 3 51
f 55 50 52
f 55 56 50
f 57 53 54
f 58 59 60
f 58 61 59
f 62 63 64
f 62 65 63
f 66 67 68
f 66 68 69
f 70 71 72
f 70 73 71
f 4 65 71
f 4 53 63
f 4 3 53
f 4 63 65
f 4 71 73
f 4 73 74
f 75 60 59
f 75 68 60
f 75 69 68
f 75 76 69
f 77 78 76
f 77 76 75
f 77 79 80
f 77 81 79
f 77 82 81
f 77 83 82
f 77 84 83
f 77 85 84
f 77 86 85
f 77 87 86
f 77 88 87
f 77 89 88
f 77 90 89
f 77 91 90
f 77 92 91
f 77 93 92
f 77 75 93
f 94 95 4
f 94 96 95
f 94 97 96
f 94 98 97
f 94 99 98
f 94 100 99
f 94 101 100
f 94 102 101
f 94 103 102
f 94 104 103
f 94 105 104
f 94 106 105
f 94 107 106
f 94 108 107
f 94 109 108
f 94 110 109
f 94 4 74
f 94 74 111
f 112 77 80
f 113 110 94
f 114 77 112
f 115 113 94
f 116 77 114
f 117 115 94
f 118 77 116
f 119 117 94
f 120 77 118
f 121 119 94
f 122 77 120
f 123 121 94
f 124 77 122
f 125 77 124
f 126 123 94
f 127 77 125
f 128 126 94
f 129 77 127
f 130 128 94
f 131 77 129
f 132 130 94
f 133 77 131
f 134 132 94
f 135 77 133
f 136 134 94
f 137 77 135
f 138 136 94
f 139 138 94
f 140 77 137
f 141 139 94
f 142 77 140
f 143 141 94
f 144 77 142
f 145 77 144
f 145 146 77
f 147 94 148
f 147 143 94
f 149 145 144
f 150 143 147
f 151 143 150
f 151 152 153
f 151 150 152
f 154 149 144
f 154 155 149
f 154 156 155
f 157 143 151
f 158 157 159
f 160 161 162
f 160 163 161
f 164 143 157
f 164 157 158
f 165 166 167
f 165 168 166
f 169 170 171
f 169 172 170
f 173 174 175
f 176 177 178
f 179 173 175
f 180 177 176
f 181 182 183
f 181 184 185
f 186 179 175
f 186 183 179
f 186 181 183
f 187 172 169
f 187 177 180
f 187 180 184
f 187 169 177
f 187 184 181
f 188 187 181
f 189 181 186
f 190 188 181
f 191 181 189
f 192 190 181
f 193 181 191
f 194 192 181
f 195 181 193
f 196 194 181
f 197 181 195
f 198 196 181
f 199 181 197
f 200 198 181
f 201 181 199
f 202 200 181
f 203 181 201
f 204 202 181
f 205 181 203
f 206 204 181
f 207 181 205
f 208 206 181
f 209 181 207
f 210 181 209
f 211 208 181
f 212 211 181
f 213 181 210
f 214 212 181
f 215 181 213
f 216 214 181
f 217 181 215
f 218 216 181
f 218 181 217
f 143 172 187
f 143 164 172
f 186 154 144
f 186 162 154
f 186 160 162
f 186 167 160
f 186 165 167
f 186 175 165
f 75 52 37
f 75 59 52
f 219 6 3
f 219 3 2
f 220 7 6
f 220 6 219
f 221 8 7
f 221 7 220
f 222 9 8
f 222 8 221
f 223 10 9
f 223 9 222
f 224 11 10
f 224 12 11
f 224 10 223
f 225 12 224
f 226 12 225
f 226 13 12
f 227 13 226
f 227 14 13
f 227 15 14
f 228 15 227
f 229 15 228
f 229 16 15
f 230 17 16
f 230 16 229
f 231 18 17
f 231 19 18
f 231 17 230
f 232 19 231
f 233 20 19
f 233 21 20
f 233 19 232
f 234 21 233
f 235 22 21
f 235 23 22
f 235 21 234
f 236 23 235
f 237 24 23
f 237 23 236
f 238 25 24
f 238 24 237
f 239 26 25
f 239 25 238
f 240 27 26
f 240 26 239
f 241 28 27
f 241 27 240
f 242 29 28
f 242 30 29
f 242 28 241
f 243 30 242
f 244 31 30
f 244 30 243
f 245 32 31
f 245 31 244
f 246 33 32
f 246 32 245
f 247 34 33
f 247 33 246
f 248 35 34
f 248 36 35
f 248 34 247
f 249 37 36
f 249 36 248
f 250 37 249
f 251 4 95
f 251 1 4
f 252 95 96
f 252 251 95
f 253 96 97
f 253 252 96
f 254 97 98
f 254 253 97
f 255 98 99
f 255 254 98
f 256 99 100
f 256 100 101
f 256 255 99
f 257 256 101
f 258 257 101
f 258 101 102
f 259 258 102
f 259 102 103
f 259 103 104
f 260 259 104
f 261 260 104
f 261 104 105
f 262 105 106
f 262 261 105
f 263 106 107
f 263 107 108
f 263 262 106
f 264 263 108
f 265 108 109
f 265 109 110
f 265 264 108
f 266 265 110
f 267 110 113
f 267 113 115
f 267 266 110
f 268 267 115
f 269 115 117
f 269 268 115
f 270 117 119
f 270 269 117
f 271 119 121
f 271 270 119
f 272 121 123
f 272 271 121
f 273 123 126
f 273 272 123
f 274 126 128
f 274 128 130
f 274 273 126
f 275 274 130
f 276 130 132
f 276 275 130
f 277 132 134
f 277 276 132
f 278 134 136
f 278 277 134
f 279 136 138
f 279 278 136
f 280 138 139
f 280 139 141
f 280 279 138
f 281 141 143
f 281 280 141
f 282 281 143
f 235 234 233
f 230 232 231
f 230 233 232
f 239 238 237
f 240 236 235
f 240 237 236
f 240 239 237
f 227 229 228
f 226 230 229
f 226 229 227
f 242 241 240
f 224 226 225
f 224 230 226
f 245 243 242
f 245 244 243
f 245 240 235
f 245 242 240
f 222 224 223
f 222 235 233
f 222 233 230
f 222 230 224
f 222 245 235
f 247 246 245
f 219 221 220
f 249 248 247
f 2 222 221
f 2 221 219
f 250 245 222
f 250 247 245
f 250 249 247
f 250 222 2
f 252 1 251
f 253 1 252
f 254 1 253
f 283 284 285
f 283 285 286
f 255 1 254
f 287 283 286
f 257 255 256
f 257 1 255
f 258 1 257
f 288 287 286
f 288 289 290
f 288 290 287
f 291 288 286
f 291 286 292
f 260 258 259
f 260 1 258
f 293 291 292
f 262 260 261
f 294 293 292
f 294 295 293
f 263 1 260
f 263 260 262
f 296 294 292
f 297 296 292
f 297 298 296
f 266 263 264
f 266 264 265
f 299 297 292
f 300 299 292
f 268 266 267
f 268 1 263
f 268 263 266
f 270 268 269
f 270 1 268
f 301 302 303
f 301 303 300
f 304 300 292
f 304 301 300
f 272 270 271
f 305 306 304
f 274 272 273
f 274 270 272
f 307 308 305
f 307 305 304
f 276 274 275
f 276 270 274
f 309 310 307
f 277 270 276
f 311 309 307
f 311 307 304
f 312 311 304
f 279 270 277
f 279 277 278
f 280 270 279
f 281 270 280
f 313 314 312
f 282 270 281
f 282 1 270
f 315 312 304
f 315 313 312
f 315 304 292
f 316 250 2
f 316 2 1
f 316 1 282
f 316 315 292
f 316 317 315
f 316 292 250
f 318 317 316
f 318 316 319
f 318 320 317
f 321 319 322
f 321 322 323
f 324 325 326
f 324 326 318
f 327 321 328
f 327 319 321
f 329 318 319
f 329 319 327
f 329 324 318
f 329 330 324
f 331 327 332
f 331 329 327
f 333 331 334
f 333 334 335
f 333 336 337
f 333 337 329
f 333 329 331
f 338 339 333
f 340 335 341
f 342 335 340
f 343 338 333
f 344 333 335
f 344 335 342
f 344 343 333
f 345 342 346
f 345 344 342
f 347 348 344
f 347 344 345
f 250 292 75
f 37 250 75
f 316 282 143
f 187 316 143
f 313 144 142
f 313 315 144
f 314 142 140
f 314 140 137
f 314 313 142
f 312 314 137
f 311 137 135
f 311 312 137
f 309 135 133
f 309 133 131
f 309 311 135
f 310 309 131
f 307 131 129
f 307 310 131
f 308 129 127
f 308 307 129
f 305 308 127
f 305 127 125
f 306 125 124
f 306 305 125
f 304 124 122
f 304 122 120
f 304 306 124
f 301 304 120
f 302 120 118
f 302 301 120
f 303 118 116
f 303 302 118
f 300 116 114
f 300 303 116
f 299 114 112
f 299 300 114
f 297 112 80
f 297 299 112
f 298 80 79
f 298 297 80
f 296 79 81
f 296 298 79
f 294 81 82
f 294 296 81
f 295 82 83
f 295 294 82
f 293 83 84
f 293 295 83
f 291 84 85
f 291 293 84
f 288 85 86
f 288 291 85
f 289 86 87
f 289 288 86
f 290 87 88
f 290 289 87
f 287 88 89
f 287 290 88
f 283 89 90
f 283 287 89
f 284 90 91
f 284 283 90
f 285 91 92
f 285 92 93
f 285 284 91
f 286 285 93
f 286 93 75
f 292 286 75
f 319 187 188
f 319 316 187
f 322 188 190
f 322 190 192
f 322 319 188
f 323 322 192
f 321 192 194
f 321 323 192
f 328 194 196
f 328 196 198
f 328 321 194
f 327 328 198
f 332 198 200
f 332 327 198
f 331 200 202
f 331 202 204
f 331 332 200
f 334 331 204
f 335 204 206
f 335 334 204
f 341 206 208
f 341 335 206
f 340 208 211
f 340 341 208
f 342 211 212
f 342 212 214
f 342 340 211
f 346 342 214
f 345 214 216
f 345 346 214
f 347 216 218
f 347 345 216
f 348 218 217
f 348 347 218
f 344 217 215
f 344 348 217
f 343 215 213
f 343 213 210
f 343 344 215
f 338 343 210
f 339 210 209
f 339 338 210
f 333 209 207
f 333 339 209
f 336 207 205
f 336 333 207
f 337 205 203
f 337 336 205
f 329 203 201
f 329 337 203
f 330 201 199
f 330 329 201
f 324 199 197
f 324 330 199
f 325 197 195
f 325 324 197
f 326 195 193
f 326 193 191
f 326 325 195
f 318 326 191
f 320 191 189
f 320 189 186
f 320 318 191
f 317 320 186
f 315 317 186
f 144 315 186
f 41 5 349
f 41 349 350
f 351 39 41
f 352 351 350
f 350 351 41
f 353 42 39
f 353 39 351
f 353 49 42
f 354 353 355
f 49 353 354
f 48 49 354
f 48 354 356
f 357 45 48
f 358 357 356
f 356 357 48
f 359 51 45
f 359 45 357
f 359 54 51
f 360 359 361
f 54 359 360
f 54 360 362
f 57 54 362
f 363 53 57
f 364 363 362
f 362 363 57
f 365 63 53
f 365 53 363
f 365 64 63
f 366 365 367
f 64 365 366
f 62 64 366
f 62 366 368
f 369 65 62
f 370 369 368
f 368 369 62
f 371 71 65
f 371 65 369
f 371 72 71
f 372 371 373
f 72 371 372
f 70 72 372
f 70 372 374
f 375 73 70
f 376 375 374
f 374 375 70
f 377 74 73
f 377 73 375
f 377 111 74
f 378 377 379
f 111 377 378
f 94 111 378
f 94 378 380
f 148 94 380
f 148 380 381
f 382 147 148
f 383 382 381
f 381 382 148
f 384 150 147
f 384 147 382
f 384 152 150
f 385 384 386
f 152 384 385
f 153 152 385
f 153 385 387
f 388 151 153
f 389 388 387
f 387 388 153
f 390 157 151
f 390 151 388
f 390 159 157
f 391 390 392
f 159 390 391
f 159 391 393
f 158 159 393
f 394 164 158
f 395 394 393
f 393 394 158
f 396 172 164
f 396 164 394
f 396 170 172
f 397 396 398
f 170 396 397
f 171 170 397
f 171 397 399
f 400 169 171
f 401 400 399
f 399 400 171
f 402 177 169
f 402 169 400
f 402 178 177
f 403 402 404
f 178 402 403
f 176 178 403
f 176 403 405
f 406 180 176
f 407 406 405
f 405 406 176
f 408 184 180
f 408 180 406
f 408 185 184
f 409 408 410
f 185 408 409
f 181 185 409
f 181 409 411
f 182 181 411
f 182 411 412
f 413 183 182
f 414 413 412
f 412 413 182
f 415 179 183
f 415 183 413
f 415 173 179
f 416 415 417
f 173 415 416
f 174 173 416
f 174 416 418
f 419 175 174
f 420 419 418
f 418 419 174
f 421 165 175
f 421 175 419
f 421 168 165
f 422 421 423
f 168 421 422
f 166 168 422
f 166 422 424
f 425 167 166
f 426 425 424
f 424 425 166
f 427 160 167
f 427 167 425
f 427 163 160
f 428 427 429
f 163 427 428
f 161 163 428
f 161 428 430
f 431 162 161
f 432 431 430
f 430 431 161
f 433 154 162
f 433 162 431
f 433 156 154
f 434 433 435
f 156 433 434
f 155 156 434
f 155 434 436
f 437 149 155
f 438 437 436
f 436 437 155
f 439 145 149
f 439 149 437
f 439 146 145
f 440 439 441
f 146 439 440
f 77 146 440
f 77 440 442
f 78 77 442
f 78 442 443
f 444 76 78
f 445 444 443
f 443 444 78
f 446 69 76
f 446 76 444
f 446 66 69
f 447 446 448
f 66 446 447
f 67 66 447
f 67 447 449
f 450 68 67
f 451 450 449
f 449 450 67
f 452 60 68
f 452 68 450
f 452 58 60
f 453 452 454
f 58 452 453
f 61 58 453
f 61 453 455
f 456 59 61
f 457 456 455
f 455 456 61
f 458 52 59
f 458 59 456
f 458 55 52
f 459 458 460
f 55 458 459
f 56 55 459
f 56 459 461
f 462 50 56
f 463 462 461
f 461 462 56
f 464 44 50
f 464 50 462
f 464 46 44
f 465 464 466
f 46 464 465
f 47 46 465
f 47 465 467
f 468 43 47
f 469 468 467
f 467 468 47
f 470 38 43
f 470 43 468
f 470 40 38
f 471 470 472
f 40 470 471
f 5 40 471
f 5 471 349
f 467 473 471
f 467 472 469
f 467 471 472
f 354 352 350
f 354 355 352
f 354 350 473
f 361 358 356
f 360 361 356
f 461 466 463
f 461 465 466
f 457 459 460
f 367 364 362
f 455 459 457
f 366 367 362
f 449 454 451
f 449 453 454
f 372 370 368
f 372 373 370
f 443 448 445
f 443 447 448
f 378 376 374
f 378 379 376
f 474 378 374
f 475 447 443
f 385 383 381
f 385 381 474
f 436 440 441
f 436 475 440
f 386 383 385
f 438 436 441
f 432 430 434
f 432 434 435
f 392 387 391
f 392 389 387
f 397 395 393
f 424 428 429
f 398 395 397
f 426 424 429
f 404 401 399
f 404 399 403
f 420 418 422
f 420 422 423
f 409 407 405
f 412 416 417
f 410 407 409
f 414 412 417
f 476 409 405
f 476 416 412
f 349 473 350
f 378 474 380
f 380 474 381
f 409 476 411
f 411 476 412
f 440 475 442
f 442 475 443
f 471 473 349
f 474 354 473
f 474 356 354
f 474 360 356
f 474 362 360
f 474 366 362
f 474 368 366
f 474 372 368
f 474 374 372
f 473 447 475
f 473 449 447
f 473 453 449
f 473 455 453
f 473 459 455
f 473 461 459
f 473 465 461
f 473 467 465
f 475 416 476
f 475 418 416
f 475 422 418
f 475 424 422
f 475 428 424
f 475 430 428
f 475 434 430
f 475 436 434
f 476 385 474
f 476 387 385
f 476 391 387
f 476 393 391
f 476 397 393
f 476 399 397
f 476 403 399
f 476 405 403
f 355 353 351
f 355 351 352
f 361 359 357
f 361 357 358
f 367 365 363
f 367 363 364
f 373 371 369
f 373 369 370
f 379 377 375
f 379 375 376
f 383 384 382
f 386 384 383
f 389 390 388
f 392 390 389
f 395 396 394
f 398 396 395
f 401 402 400
f 404 402 401
f 407 408 406
f 410 408 407
f 414 415 413
f 417 415 414
f 420 421 419
f 423 421 420
f 426 427 425
f 429 427 426
f 432 433 431
f 435 433 432
f 438 439 437
f 441 439 438
f 445 446 444
f 448 446 445
f 451 452 450
f 454 452 451
f 457 458 456
f 460 458 457
f 463 464 462
f 466 464 463
f 469 470 468
f 472 470 469
f 477 473 478
f 477 474 473
f 478 475 479
f 478 473 475
f 479 476 480
f 479 475 476
f 480 474 477
f 480 476 474
f 477 478 479
f 480 477 479

