# https://github.com/mikedh/trimesh

o cap_20x20_nolip.stl
v 7.00000000 -10.00000000 0.00000000
v -7.00000000 -10.00000000 2.50000000
v -7.00000000 -10.00000000 0.00000000
v 7.00000000 -10.00000000 2.50000000
v -6.69999981 -6.69999981 0.00000000
v -7.14720297 -9.99638653 0.00000000
v -7.29405165 -9.98555374 0.00000000
v -7.44019127 -9.96752930 0.00000000
v -7.58527088 -9.94235611 0.00000000
v -7.72894049 -9.91009331 0.00000000
v -7.87085390 -9.87082100 0.00000000
v -8.01066971 -9.82463264 0.00000000
v -8.14805031 -9.77163887 0.00000000
v -8.28266525 -9.71196747 0.00000000
v -8.41419029 -9.64576340 0.00000000
v -8.54230785 -9.57318592 0.00000000
v -8.66671085 -9.49440861 0.00000000
v -8.78709793 -9.40962219 0.00000000
v -8.90318012 -9.31903172 0.00000000
v -9.01467705 -9.22285366 0.00000000
v -9.12132072 -9.12132072 0.00000000
v -9.22285366 -9.01467705 0.00000000
v -9.31903172 -8.90318012 0.00000000
v -9.40962219 -8.78709793 0.00000000
v -9.49440861 -8.66671085 0.00000000
v -9.57318592 -8.54230785 0.00000000
v -9.64576340 -8.41419029 0.00000000
v -9.71196747 -8.28266525 0.00000000
v -9.77163887 -8.14805031 0.00000000
v -9.82463264 -8.01066971 0.00000000
v -9.87082100 -7.87085390 0.00000000
v -9.91009331 -7.72894049 0.00000000
v -9.94235611 -7.58527088 0.00000000
v -9.96752930 -7.44019127 0.00000000
v -9.98555374 -7.29405165 0.00000000
v -9.99638653 -7.14720297 0.00000000
v -10.00000000 -7.00000000 0.00000000
v -5.59200001 -7.30000019 0.00000000
v -7.30000019 -5.59200001 0.00000000
v -6.69999981 -5.59200001 0.00000000
v -5.59200001 -6.69999981 0.00000000
v -4.59200001 -7.30000019 0.00000000
v -7.30000019 -4.59200001 0.00000000
v -7.30000019 4.59200001 0.00000000
v -10.00000000 7.00000000 0.00000000
v 4.59200001 -7.30000019 0.00000000
v -4.59200001 -6.69999981 0.00000000
v -6.69999981 4.59200001 0.00000000
v -6.69999981 -4.59200001 0.00000000
v 4.59200001 -6.69999981 0.00000000
v -7.30000019 5.59200001 0.00000000
v 5.59200001 -7.30000019 0.00000000
v -6.69999981 6.69999981 0.00000000
v -6.69999981 5.59200001 0.00000000
v -9.31903172 8.90318012 0.00000000
v -9.22285366 9.01467705 0.00000000
v -9.40962219 8.78709793 0.00000000
v -9.49440861 8.66671085 0.00000000
v -9.57318592 8.54230785 0.00000000
v -9.64576340 8.41419029 0.00000000
v -9.71196747 8.28266525 0.00000000
v -9.77163887 8.14805031 0.00000000
v -9.82463264 8.01066971 0.00000000
v -9.87082100 7.87085390 0.00000000
v -9.91009331 7.72894049 0.00000000
v -9.94235611 7.58527088 0.00000000
v -9.96752930 7.44019127 0.00000000
v -9.98555374 7.29405165 0.00000000
v -9.99638653 7.14720297 0.00000000
v 6.69999981 -6.69999981 0.00000000
v 7.14720297 -9.99638653 0.00000000
v 7.29405165 -9.98555374 0.00000000
v 7.44019127 -9.96752930 0.00000000
v 7.58527088 -9.94235611 0.00000000
v 7.72894049 -9.91009331 0.00000000
v 7.87085390 -9.87082100 0.00000000
v 8.01066971 -9.82463264 0.00000000
v 8.14805031 -9.77163887 0.00000000
v 8.28266525 -9.71196747 0.00000000
v 8.41419029 -9.64576340 0.00000000
v 8.54230785 -9.57318592 0.00000000
v 8.66671085 -9.49440861 0.00000000
v 8.78709793 -9.40962219 0.00000000
v 8.90318012 -9.31903172 0.00000000
v 9.01467705 -9.22285366 0.00000000
v 9.12132072 -9.12132072 0.00000000
v 5.59200001 -6.69999981 0.00000000
v -9.12132072 9.12132072 0.00000000
v 9.22285366 -9.01467705 0.00000000
v -9.01467705 9.22285366 0.00000000
v 9.31903172 -8.90318012 0.00000000
v -8.90318012 9.31903172 0.00000000
v 9.40962219 -8.78709793 0.00000000
v -8.78709793 9.40962219 0.00000000
v 9.49440861 -8.66671085 0.00000000
v -8.66671085 9.49440861 0.00000000
v 9.57318592 -8.54230785 0.00000000
v -8.54230785 9.57318592 0.00000000
v 9.64576340 -8.41419029 0.00000000
v -8.41419029 9.64576340 0.00000000
v 9.71196747 -8.28266525 0.00000000
v -8.28266525 9.71196747 0.00000000
v 9.77163887 -8.14805031 0.00000000
v -8.14805031 9.77163887 0.00000000
v -5.59200001 7.30000019 0.00000000
v -5.59200001 6.69999981 0.00000000
v 7.30000019 -5.59200001 0.00000000
v 6.69999981 -5.59200001 0.00000000
v 9.82463264 -8.01066971 0.00000000
v -8.01066971 9.82463264 0.00000000
v 9.87082100 -7.87085390 0.00000000
v -7.87085390 9.87082100 0.00000000
v 9.91009331 -7.72894049 0.00000000
v -7.72894049 9.91009331 0.00000000
v -7.58527088 9.94235611 0.00000000
v 9.94235611 -7.58527088 0.00000000
v -7.44019127 9.96752930 0.00000000
v 9.96752930 -7.44019127 0.00000000
v 9.98555374 -7.29405165 0.00000000
v -7.29405165 9.98555374 0.00000000
v -7.14720297 9.99638653 0.00000000
v 9.99638653 -7.14720297 0.00000000
v 10.00000000 -7.00000000 0.00000000
v 7.30000019 -4.59200001 0.00000000
v -7.00000000 10.00000000 0.00000000
v -4.59200001 7.30000019 0.00000000
v 4.59200001 6.69999981 0.00000000
v -4.59200001 6.69999981 0.00000000
v 4.59200001 7.30000019 0.00000000
v 7.30000019 4.59200001 0.00000000
v 6.69999981 -4.59200001 0.00000000
v 6.69999981 4.59200001 0.00000000
v 6.69999981 6.69999981 0.00000000
v 5.59200001 6.69999981 0.00000000
v 5.59200001 7.30000019 0.00000000
v 7.30000019 5.59200001 0.00000000
v 6.69999981 5.59200001 0.00000000
v 7.00000000 10.00000000 0.00000000
v 10.00000000 7.00000000 0.00000000
v 9.99638653 7.14720297 0.00000000
v 7.14720297 9.99638653 0.00000000
v 9.98555374 7.29405165 0.00000000
v 7.29405165 9.98555374 0.00000000
v 9.96752930 7.44019127 0.00000000
v 7.44019127 9.96752930 0.00000000
v 9.94235611 7.58527088 0.00000000
v 7.58527088 9.94235611 0.00000000
v 9.91009331 7.72894049 0.00000000
v 7.72894049 9.91009331 0.00000000
v 9.87082100 7.87085390 0.00000000
v 7.87085390 9.87082100 0.00000000
v 9.82463264 8.01066971 0.00000000
v 8.01066971 9.82463264 0.00000000
v 9.77163887 8.14805031 0.00000000
v 8.14805031 9.77163887 0.00000000
v 9.71196747 8.28266525 0.00000000
v 8.28266525 9.71196747 0.00000000
v 9.64576340 8.41419029 0.00000000
v 8.41419029 9.64576340 0.00000000
v 9.57318592 8.54230785 0.00000000
v 8.54230785 9.57318592 0.00000000
v 9.49440861 8.66671085 0.00000000
v 8.66671085 9.49440861 0.00000000
v 9.40962219 8.78709793 0.00000000
v 8.78709793 9.40962219 0.00000000
v 9.31903172 8.90318012 0.00000000
v 8.90318012 9.31903172 0.00000000
v 9.22285366 9.01467705 0.00000000
v 9.01467705 9.22285366 0.00000000
v 9.12132072 9.12132072 0.00000000
v -7.14720297 -9.99638653 2.50000000
v -7.29405165 -9.98555374 2.50000000
v -7.44019127 -9.96752930 2.50000000
v -7.58527088 -9.94235611 2.50000000
v -7.72894049 -9.91009331 2.50000000
v -7.87085390 -9.87082100 2.50000000
v -8.01066971 -9.82463264 2.50000000
v -8.14805031 -9.77163887 2.50000000
v -8.28266525 -9.71196747 2.50000000
v -8.41419029 -9.64576340 2.50000000
v -8.54230785 -9.57318592 2.50000000
v -8.66671085 -9.49440861 2.50000000
v -8.78709793 -9.40962219 2.50000000
v -8.90318012 -9.31903172 2.50000000
v -9.01467705 -9.22285366 2.50000000
v -9.12132072 -9.12132072 2.50000000
v -9.22285366 -9.01467705 2.50000000
v -9.31903172 -8.90318012 2.50000000
v -9.40962219 -8.78709793 2.50000000
v -9.49440861 -8.66671085 2.50000000
v -9.57318592 -8.54230785 2.50000000
v -9.64576340 -8.41419029 2.50000000
v -9.71196747 -8.28266525 2.50000000
v -9.77163887 -8.14805031 2.50000000
v -9.82463264 -8.01066971 2.50000000
v -9.87082100 -7.87085390 2.50000000
v -9.91009331 -7.72894049 2.50000000
v -9.94235611 -7.58527088 2.50000000
v -9.96752930 -7.44019127 2.50000000
v -9.98555374 -7.29405165 2.50000000
v -9.99638653 -7.14720297 2.50000000
v -10.00000000 -7.00000000 2.50000000
v 7.14720297 -9.99638653 2.50000000
v 7.29405165 -9.98555374 2.50000000
v 7.44019127 -9.96752930 2.50000000
v 7.58527088 -9.94235611 2.50000000
v 7.72894049 -9.91009331 2.50000000
v 7.87085390 -9.87082100 2.50000000
v 8.01066971 -9.82463264 2.50000000
v 8.14805031 -9.77163887 2.50000000
v 8.28266525 -9.71196747 2.50000000
v 8.41419029 -9.64576340 2.50000000
v 8.54230785 -9.57318592 2.50000000
v 8.66671085 -9.49440861 2.50000000
v 8.78709793 -9.40962219 2.50000000
v 8.90318012 -9.31903172 2.50000000
v 9.01467705 -9.22285366 2.50000000
v 9.12132072 -9.12132072 2.50000000
v 9.22285366 -9.01467705 2.50000000
v 9.31903172 -8.90318012 2.50000000
v 9.40962219 -8.78709793 2.50000000
v 9.49440861 -8.66671085 2.50000000
v 9.57318592 -8.54230785 2.50000000
v 9.64576340 -8.41419029 2.50000000
v 9.71196747 -8.28266525 2.50000000
v 9.77163887 -8.14805031 2.50000000
v 9.82463264 -8.01066971 2.50000000
v 9.87082100 -7.87085390 2.50000000
v 9.91009331 -7.72894049 2.50000000
v 9.94235611 -7.58527088 2.50000000
v 9.96752930 -7.44019127 2.50000000
v 9.98555374 -7.29405165 2.50000000
v 9.99638653 -7.14720297 2.50000000
v 10.00000000 -7.00000000 2.50000000
v -10.00000000 7.00000000 2.50000000
v -9.94235611 7.58527088 2.50000000
v -9.96752930 7.44019127 2.50000000
v -9.98555374 7.29405165 2.50000000
v -9.99638653 7.14720297 2.50000000
v -9.91009331 7.72894049 2.50000000
v -9.82463264 8.01066971 2.50000000
v -9.87082100 7.87085390 2.50000000
v -9.77163887 8.14805031 2.50000000
v -9.71196747 8.28266525 2.50000000
v -9.57318592 8.54230785 2.50000000
v -9.64576340 8.41419029 2.50000000
v -9.40962219 8.78709793 2.50000000
v -9.49440861 8.66671085 2.50000000
v -9.12132072 9.12132072 2.50000000
v -9.22285366 9.01467705 2.50000000
v -9.31903172 8.90318012 2.50000000
v -9.01467705 9.22285366 2.50000000
v -8.66671085 9.49440861 2.50000000
v -8.78709793 9.40962219 2.50000000
v -8.90318012 9.31903172 2.50000000
v -8.41419029 9.64576340 2.50000000
v -8.54230785 9.57318592 2.50000000
v -8.14805031 9.77163887 2.50000000
v -8.28266525 9.71196747 2.50000000
v -7.87085390 9.87082100 2.50000000
v -8.01066971 9.82463264 2.50000000
v -7.72894049 9.91009331 2.50000000
v -7.44019127 9.96752930 2.50000000
v -7.58527088 9.94235611 2.50000000
v -7.14720297 9.99638653 2.50000000
v -7.29405165 9.98555374 2.50000000
v -7.00000000 10.00000000 2.50000000
v 7.00000000 10.00000000 2.50000000
v 10.00000000 7.00000000 2.50000000
v 7.29405165 9.98555374 2.50000000
v 9.99638653 7.14720297 2.50000000
v 7.14720297 9.99638653 2.50000000
v 9.96752930 7.44019127 2.50000000
v 9.98555374 7.29405165 2.50000000
v 7.58527088 9.94235611 2.50000000
v 7.44019127 9.96752930 2.50000000
v 9.91009331 7.72894049 2.50000000
v 9.94235611 7.58527088 2.50000000
v 9.77163887 8.14805031 2.50000000
v 9.87082100 7.87085390 2.50000000
v 9.82463264 8.01066971 2.50000000
v 8.14805031 9.77163887 2.50000000
v 8.01066971 9.82463264 2.50000000
v 7.87085390 9.87082100 2.50000000
v 7.72894049 9.91009331 2.50000000
v 8.28266525 9.71196747 2.50000000
v 9.71196747 8.28266525 2.50000000
v 8.54230785 9.57318592 2.50000000
v 8.41419029 9.64576340 2.50000000
v 8.66671085 9.49440861 2.50000000
v 9.40962219 8.78709793 2.50000000
v 9.64576340 8.41419029 2.50000000
v 9.57318592 8.54230785 2.50000000
v 9.49440861 8.66671085 2.50000000
v 9.31903172 8.90318012 2.50000000
v 9.22285366 9.01467705 2.50000000
v 8.78709793 9.40962219 2.50000000
v 9.12132072 9.12132072 2.50000000
v 9.01467705 9.22285366 2.50000000
v 8.90318012 9.31903172 2.50000000
v -6.69999981 -6.69999981 -10.00000000
v -5.59200001 -6.69999981 -10.00000000
v -5.59200001 -7.30000019 -9.00000000
v -5.59200001 -6.75000000 -10.00000000
v -4.59200001 -7.30000019 -9.00000000
v -4.59200001 -6.69999981 -10.00000000
v -4.59200001 -6.75000000 -10.00000000
v 4.59200001 -6.69999981 -10.00000000
v 4.59200001 -7.30000019 -9.00000000
v 4.59200001 -6.75000000 -10.00000000
v 5.59200001 -7.30000019 -9.00000000
v 5.59200001 -6.69999981 -10.00000000
v 5.59200001 -6.75000000 -10.00000000
v 6.69999981 -6.69999981 -10.00000000
v 6.69999981 -5.59200001 -10.00000000
v 7.30000019 -5.59200001 -9.00000000
v 6.75000000 -5.59200001 -10.00000000
v 7.30000019 -4.59200001 -9.00000000
v 6.69999981 -4.59200001 -10.00000000
v 6.75000000 -4.59200001 -10.00000000
v 6.69999981 4.59200001 -10.00000000
v 7.30000019 4.59200001 -9.00000000
v 6.75000000 4.59200001 -10.00000000
v 7.30000019 5.59200001 -9.00000000
v 6.69999981 5.59200001 -10.00000000
v 6.75000000 5.59200001 -10.00000000
v 6.69999981 6.69999981 -10.00000000
v 5.59200001 6.69999981 -10.00000000
v 5.59200001 7.30000019 -9.00000000
v 5.59200001 6.75000000 -10.00000000
v 4.59200001 7.30000019 -9.00000000
v 4.59200001 6.69999981 -10.00000000
v 4.59200001 6.75000000 -10.00000000
v -4.59200001 6.69999981 -10.00000000
v -4.59200001 7.30000019 -9.00000000
v -4.59200001 6.75000000 -10.00000000
v -5.59200001 7.30000019 -9.00000000
v -5.59200001 6.69999981 -10.00000000
v -5.59200001 6.75000000 -10.00000000
v -6.69999981 6.69999981 -10.00000000
v -6.69999981 5.59200001 -10.00000000
v -7.30000019 5.59200001 -9.00000000
v -6.75000000 5.59200001 -10.00000000
v -7.30000019 4.59200001 -9.00000000
v -6.69999981 4.59200001 -10.00000000
v -6.75000000 4.59200001 -10.00000000
v -6.69999981 -4.59200001 -10.00000000
v -7.30000019 -4.59200001 -9.00000000
v -6.75000000 -4.59200001 -10.00000000
v -7.30000019 -5.59200001 -9.00000000
v -6.69999981 -5.59200001 -10.00000000
v -6.75000000 -5.59200001 -10.00000000
v -4.69999981 -4.69999981 -10.00000000
v 4.69999981 -4.69999981 -10.00000000
v -4.69999981 4.69999981 -10.00000000
v 4.69999981 4.69999981 -10.00000000
v -4.69999981 -4.69999981 0.00000000
v 4.69999981 -4.69999981 0.00000000
v -4.69999981 4.69999981 0.00000000
v 4.69999981 4.69999981 0.00000000
f 1 2 3
f 1 4 2
f 5 3 6
f 5 6 7
f 5 7 8
f 5 8 9
f 5 9 10
f 5 10 11
f 5 11 12
f 5 12 13
f 5 13 14
f 5 14 15
f 5 15 16
f 5 16 17
f 5 17 18
f 5 18 19
f 5 19 20
f 5 20 21
f 5 21 22
f 5 22 23
f 5 23 24
f 5 24 25
f 5 25 26
f 5 26 27
f 5 27 28
f 5 28 29
f 5 29 30
f 5 30 31
f 5 31 32
f 5 32 33
f 5 33 34
f 5 34 35
f 5 35 36
f 5 36 37
f 38 3 5
f 39 5 37
f 40 5 39
f 41 38 5
f 42 3 38
f 43 39 37
f 44 43 37
f 44 37 45
f 46 1 3
f 46 3 42
f 46 42 47
f 48 43 44
f 48 49 43
f 50 46 47
f 51 44 45
f 52 1 46
f 53 54 51
f 53 51 45
f 53 55 56
f 53 57 55
f 53 58 57
f 53 59 58
f 53 60 59
f 53 61 60
f 53 62 61
f 53 63 62
f 53 64 63
f 53 65 64
f 53 66 65
f 53 67 66
f 53 68 67
f 53 69 68
f 53 45 69
f 70 71 1
f 70 72 71
f 70 73 72
f 70 74 73
f 70 75 74
f 70 76 75
f 70 77 76
f 70 78 77
f 70 79 78
f 70 80 79
f 70 81 80
f 70 82 81
f 70 83 82
f 70 84 83
f 70 85 84
f 70 86 85
f 70 52 87
f 70 1 52
f 88 53 56
f 89 86 70
f 90 53 88
f 91 89 70
f 92 53 90
f 93 91 70
f 94 53 92
f 95 93 70
f 96 53 94
f 97 95 70
f 98 53 96
f 99 97 70
f 100 53 98
f 101 99 70
f 102 53 100
f 103 101 70
f 104 53 102
f 105 106 53
f 107 70 108
f 109 103 70
f 110 53 104
f 111 109 70
f 112 53 110
f 113 111 70
f 114 53 112
f 115 53 114
f 116 113 70
f 117 53 115
f 118 116 70
f 119 118 70
f 120 53 117
f 121 53 120
f 122 119 70
f 123 107 124
f 123 70 107
f 123 122 70
f 125 53 121
f 125 126 105
f 125 105 53
f 127 128 126
f 129 127 126
f 130 131 132
f 130 124 131
f 133 134 135
f 133 136 137
f 138 126 125
f 138 129 126
f 138 133 135
f 138 135 129
f 139 124 130
f 139 123 124
f 139 136 133
f 139 130 136
f 140 139 133
f 141 133 138
f 142 140 133
f 143 133 141
f 144 142 133
f 145 133 143
f 146 144 133
f 147 133 145
f 148 146 133
f 149 133 147
f 150 148 133
f 151 133 149
f 152 150 133
f 153 133 151
f 154 152 133
f 155 133 153
f 156 154 133
f 157 133 155
f 158 156 133
f 159 133 157
f 160 158 133
f 161 133 159
f 162 160 133
f 163 133 161
f 164 162 133
f 165 133 163
f 166 164 133
f 167 133 165
f 168 166 133
f 169 133 167
f 170 133 169
f 170 168 133
f 171 6 3
f 171 3 2
f 172 7 6
f 172 6 171
f 173 8 7
f 173 7 172
f 174 9 8
f 174 8 173
f 175 10 9
f 175 9 174
f 176 11 10
f 176 12 11
f 176 10 175
f 177 12 176
f 178 12 177
f 178 13 12
f 179 13 178
f 179 14 13
f 179 15 14
f 180 15 179
f 181 15 180
f 181 16 15
f 182 17 16
f 182 16 181
f 183 18 17
f 183 19 18
f 183 17 182
f 184 19 183
f 185 20 19
f 185 21 20
f 185 19 184
f 186 21 185
f 187 22 21
f 187 23 22
f 187 21 186
f 188 23 187
f 189 24 23
f 189 23 188
f 190 25 24
f 190 24 189
f 191 26 25
f 191 25 190
f 192 27 26
f 192 26 191
f 193 28 27
f 193 27 192
f 194 29 28
f 194 30 29
f 194 28 193
f 195 30 194
f 196 31 30
f 196 30 195
f 197 32 31
f 197 31 196
f 198 33 32
f 198 32 197
f 199 34 33
f 199 33 198
f 200 35 34
f 200 36 35
f 200 34 199
f 201 37 36
f 201 36 200
f 202 37 201
f 203 1 71
f 203 4 1
f 204 71 72
f 204 203 71
f 205 72 73
f 205 204 72
f 206 73 74
f 206 205 73
f 207 74 75
f 207 206 74
f 208 75 76
f 208 76 77
f 208 207 75
f 209 208 77
f 210 209 77
f 210 77 78
f 211 210 78
f 211 78 79
f 211 79 80
f 212 211 80
f 213 212 80
f 213 80 81
f 214 81 82
f 214 213 81
f 215 82 83
f 215 83 84
f 215 214 82
f 216 215 84
f 217 84 85
f 217 85 86
f 217 216 84
f 218 217 86
f 219 86 89
f 219 89 91
f 219 218 86
f 220 219 91
f 221 91 93
f 221 220 91
f 222 93 95
f 222 221 93
f 223 95 97
f 223 222 95
f 224 97 99
f 224 223 97
f 225 99 101
f 225 224 99
f 226 101 103
f 226 103 109
f 226 225 101
f 227 226 109
f 228 109 111
f 228 227 109
f 229 111 113
f 229 228 111
f 230 113 116
f 230 229 113
f 231 116 118
f 231 230 116
f 232 118 119
f 232 119 122
f 232 231 118
f 233 122 123
f 233 232 122
f 234 233 123
f 189 187 186
f 189 188 187
f 182 184 183
f 182 185 184
f 191 190 189
f 193 192 191
f 193 191 189
f 178 180 179
f 195 194 193
f 176 178 177
f 196 193 189
f 196 195 193
f 175 181 180
f 175 180 178
f 175 178 176
f 173 175 174
f 173 182 181
f 173 181 175
f 199 186 185
f 199 197 196
f 199 198 197
f 199 189 186
f 199 196 189
f 202 200 199
f 202 201 200
f 2 172 171
f 2 173 172
f 2 185 182
f 2 182 173
f 2 199 185
f 2 202 199
f 235 202 2
f 4 235 2
f 204 4 203
f 236 237 238
f 236 238 239
f 207 204 205
f 207 205 206
f 207 4 204
f 240 236 239
f 209 207 208
f 209 4 207
f 241 240 239
f 241 242 240
f 241 239 235
f 210 4 209
f 243 241 235
f 244 243 235
f 212 210 211
f 245 246 244
f 214 212 213
f 214 4 210
f 214 210 212
f 247 244 235
f 247 245 244
f 247 248 245
f 216 214 215
f 216 4 214
f 217 4 216
f 249 250 251
f 249 251 247
f 252 249 247
f 220 217 218
f 220 218 219
f 220 4 217
f 222 220 221
f 253 252 247
f 253 254 255
f 253 255 252
f 223 220 222
f 224 220 223
f 256 247 235
f 256 257 253
f 256 253 247
f 258 259 256
f 227 225 226
f 228 225 227
f 260 261 258
f 262 260 258
f 262 258 256
f 229 225 228
f 229 224 225
f 229 4 220
f 229 220 224
f 230 4 229
f 263 264 262
f 263 256 235
f 263 262 256
f 232 230 231
f 265 266 263
f 233 4 230
f 233 230 232
f 234 4 233
f 234 235 4
f 267 263 235
f 267 265 263
f 267 235 234
f 268 267 234
f 269 268 234
f 270 268 269
f 270 269 271
f 270 272 268
f 273 271 274
f 275 276 270
f 277 273 278
f 277 270 271
f 277 271 273
f 277 275 270
f 279 277 280
f 279 280 281
f 282 283 284
f 282 284 285
f 282 285 275
f 286 279 287
f 286 275 277
f 286 277 279
f 286 282 275
f 288 289 286
f 290 288 286
f 291 287 292
f 291 292 293
f 291 293 294
f 295 287 291
f 296 297 290
f 296 286 287
f 296 290 286
f 296 287 295
f 298 299 300
f 298 300 297
f 298 297 296
f 37 235 45
f 37 202 235
f 139 234 123
f 139 269 234
f 265 125 121
f 265 267 125
f 266 121 120
f 266 120 117
f 266 265 121
f 263 266 117
f 264 117 115
f 264 263 117
f 262 115 114
f 262 114 112
f 262 264 115
f 260 262 112
f 261 112 110
f 261 260 112
f 258 110 104
f 258 261 110
f 259 258 104
f 259 104 102
f 256 102 100
f 256 259 102
f 257 100 98
f 257 98 96
f 257 256 100
f 253 257 96
f 254 96 94
f 254 253 96
f 255 94 92
f 255 254 94
f 252 92 90
f 252 255 92
f 249 90 88
f 249 252 90
f 250 88 56
f 250 249 88
f 251 56 55
f 251 250 56
f 247 55 57
f 247 251 55
f 248 57 58
f 248 247 57
f 245 58 59
f 245 248 58
f 246 59 60
f 246 245 59
f 244 60 61
f 244 246 60
f 243 61 62
f 243 244 61
f 241 62 63
f 241 243 62
f 242 63 64
f 242 241 63
f 240 64 65
f 240 242 64
f 236 65 66
f 236 240 65
f 237 66 67
f 237 236 66
f 238 67 68
f 238 68 69
f 238 237 67
f 239 238 69
f 239 69 45
f 235 239 45
f 271 139 140
f 271 269 139
f 274 140 142
f 274 142 144
f 274 271 140
f 273 274 144
f 278 144 146
f 278 273 144
f 277 146 148
f 277 148 150
f 277 278 146
f 280 277 150
f 281 150 152
f 281 280 150
f 279 152 154
f 279 154 156
f 279 281 152
f 287 279 156
f 292 156 158
f 292 287 156
f 293 158 160
f 293 292 158
f 294 160 162
f 294 293 160
f 291 162 164
f 291 164 166
f 291 294 162
f 295 291 166
f 296 166 168
f 296 295 166
f 298 168 170
f 298 296 168
f 299 170 169
f 299 298 170
f 300 169 167
f 300 299 169
f 297 167 165
f 297 165 163
f 297 300 167
f 290 297 163
f 288 163 161
f 288 290 163
f 289 161 159
f 289 288 161
f 286 159 157
f 286 289 159
f 282 157 155
f 282 286 157
f 283 155 153
f 283 282 155
f 284 153 151
f 284 283 153
f 285 151 149
f 285 284 151
f 275 149 147
f 275 285 149
f 276 147 145
f 276 145 143
f 276 275 147
f 270 276 143
f 272 143 141
f 272 141 138
f 272 270 143
f 268 272 138
f 125 268 138
f 125 267 268
f 41 5 301
f 41 301 302
f 303 38 41
f 304 303 302
f 302 303 41
f 305 42 38
f 305 38 303
f 305 47 42
f 306 305 307
f 47 305 306
f 50 47 306
f 50 306 308
f 309 46 50
f 310 309 308
f 308 309 50
f 311 52 46
f 311 46 309
f 311 87 52
f 312 311 313
f 87 311 312
f 70 87 312
f 70 312 314
f 108 70 314
f 108 314 315
f 316 107 108
f 317 316 315
f 315 316 108
f 318 124 107
f 318 107 316
f 318 131 124
f 319 318 320
f 131 318 319
f 132 131 319
f 132 319 321
f 322 130 132
f 323 322 321
f 321 322 132
f 324 136 130
f 324 130 322
f 324 137 136
f 325 324 326
f 137 324 325
f 133 137 325
f 133 325 327
f 134 133 327
f 134 327 328
f 329 135 134
f 330 329 328
f 328 329 134
f 331 129 135
f 331 135 329
f 331 127 129
f 332 331 333
f 127 331 332
f 128 127 332
f 128 332 334
f 335 126 128
f 336 335 334
f 334 335 128
f 337 105 126
f 337 126 335
f 337 106 105
f 338 337 339
f 106 337 338
f 53 106 338
f 53 338 340
f 54 53 340
f 54 340 341
f 342 51 54
f 343 342 341
f 341 342 54
f 344 44 51
f 344 51 342
f 344 48 44
f 345 344 346
f 48 344 345
f 49 48 345
f 49 345 347
f 348 43 49
f 349 348 347
f 347 348 49
f 350 39 43
f 350 43 348
f 350 40 39
f 351 350 352
f 40 350 351
f 5 40 351
f 5 351 301
f 302 301 351
f 347 352 349
f 347 351 352
f 306 304 302
f 306 307 304
f 353 302 351
f 353 351 347
f 353 306 302
f 313 310 308
f 343 345 346
f 312 313 308
f 341 345 343
f 354 308 306
f 354 306 353
f 354 312 308
f 355 347 345
f 355 353 347
f 355 345 341
f 315 314 312
f 315 312 354
f 338 341 340
f 338 355 341
f 334 355 338
f 319 317 315
f 319 315 354
f 336 338 339
f 336 334 338
f 320 317 319
f 356 319 354
f 332 356 355
f 332 355 334
f 321 319 356
f 325 321 356
f 325 323 321
f 328 325 356
f 328 332 333
f 328 356 332
f 326 323 325
f 330 328 333
f 327 325 328
f 307 305 303
f 307 303 304
f 313 311 309
f 313 309 310
f 320 318 316
f 320 316 317
f 326 324 322
f 326 322 323
f 333 331 329
f 333 329 330
f 339 337 335
f 339 335 336
f 346 344 342
f 346 342 343
f 352 350 348
f 352 348 349
f 357 354 353
f 358 354 357
f 359 353 355
f 357 353 359
f 360 355 356
f 359 355 360
f 358 356 354
f 360 356 358
f 360 357 359
f 360 358 357

