# https://github.com/mikedh/trimesh

o cap_60x60_nolip.stl
v 27.00000000 -30.00000000 0.00000000
v -27.00000000 -30.00000000 2.50000000
v -27.00000000 -30.00000000 0.00000000
v 27.00000000 -30.00000000 2.50000000
v -26.70000076 -26.70000076 0.00000000
v -27.14720345 -29.99638557 0.00000000
v -27.29405212 -29.98555374 0.00000000
v -27.44019127 -29.96752930 0.00000000
v -27.58527184 -29.94235611 0.00000000
v -27.72894096 -29.91009331 0.00000000
v -27.87085342 -29.87082100 0.00000000
v -28.01066971 -29.82463264 0.00000000
v -28.14805031 -29.77163887 0.00000000
v -28.28266525 -29.71196747 0.00000000
v -28.41419029 -29.64576340 0.00000000
v -28.54230881 -29.57318497 0.00000000
v -28.66670990 -29.49440956 0.00000000
v -28.78709793 -29.40962219 0.00000000
v -28.90317917 -29.31903076 0.00000000
v -29.01467705 -29.22285271 0.00000000
v -29.12132072 -29.12132072 0.00000000
v -29.22285271 -29.01467705 0.00000000
v -29.31903076 -28.90317917 0.00000000
v -29.40962219 -28.78709793 0.00000000
v -29.49440956 -28.66670990 0.00000000
v -29.57318497 -28.54230881 0.00000000
v -29.64576340 -28.41419029 0.00000000
v -29.71196747 -28.28266525 0.00000000
v -29.77163887 -28.14805031 0.00000000
v -29.82463264 -28.01066971 0.00000000
v -29.87082100 -27.87085342 0.00000000
v -29.91009331 -27.72894096 0.00000000
v -29.94235611 -27.58527184 0.00000000
v -29.96752930 -27.44019127 0.00000000
v -29.98555374 -27.29405212 0.00000000
v -29.99638557 -27.14720345 0.00000000
v -30.00000000 -27.00000000 0.00000000
v -20.79199982 -27.29999924 0.00000000
v -27.29999924 -20.79199982 0.00000000
v -26.70000076 -20.79199982 0.00000000
v -20.79199982 -26.70000076 0.00000000
v -27.29999924 -19.79199982 0.00000000
v -19.79199982 -27.29999924 0.00000000
v -27.29999924 -12.67520046 0.00000000
v -12.67520046 -27.29999924 0.00000000
v -26.70000076 -12.67520046 0.00000000
v -26.70000076 -19.79199982 0.00000000
v -12.67520046 -26.70000076 0.00000000
v -19.79199982 -26.70000076 0.00000000
v -11.67520046 -27.29999924 0.00000000
v -27.29999924 -11.67520046 0.00000000
v -27.29999924 -4.55840015 0.00000000
v -26.70000076 -11.67520046 0.00000000
v -4.55840015 -27.29999924 0.00000000
v -11.67520046 -26.70000076 0.00000000
v -26.70000076 -4.55840015 0.00000000
v -4.55840015 -26.70000076 0.00000000
v -3.55839992 -27.29999924 0.00000000
v -27.29999924 3.55839992 0.00000000
v -26.70000076 -3.55839992 0.00000000
v -27.29999924 -3.55839992 0.00000000
v -26.70000076 3.55839992 0.00000000
v 3.55839992 -26.70000076 0.00000000
v -3.55839992 -26.70000076 0.00000000
v 3.55839992 -27.29999924 0.00000000
v -26.70000076 11.67520046 0.00000000
v -26.70000076 4.55840015 0.00000000
v -27.29999924 4.55840015 0.00000000
v -27.29999924 11.67520046 0.00000000
v 11.67520046 -26.70000076 0.00000000
v 4.55840015 -27.29999924 0.00000000
v 4.55840015 -26.70000076 0.00000000
v 11.67520046 -27.29999924 0.00000000
v -26.70000076 19.79199982 0.00000000
v -26.70000076 12.67520046 0.00000000
v -27.29999924 12.67520046 0.00000000
v -27.29999924 19.79199982 0.00000000
v 19.79199982 -26.70000076 0.00000000
v 12.67520046 -27.29999924 0.00000000
v 12.67520046 -26.70000076 0.00000000
v 19.79199982 -27.29999924 0.00000000
v -30.00000000 27.00000000 0.00000000
v -27.29999924 20.79199982 0.00000000
v 20.79199982 -27.29999924 0.00000000
v 26.70000076 -26.70000076 0.00000000
v 27.14720345 -29.99638557 0.00000000
v 27.29405212 -29.98555374 0.00000000
v 27.44019127 -29.96752930 0.00000000
v 27.58527184 -29.94235611 0.00000000
v 27.72894096 -29.91009331 0.00000000
v 27.87085342 -29.87082100 0.00000000
v 20.79199982 -26.70000076 0.00000000
v 28.01066971 -29.82463264 0.00000000
v 28.14805031 -29.77163887 0.00000000
v 28.28266525 -29.71196747 0.00000000
v 28.41419029 -29.64576340 0.00000000
v 28.54230881 -29.57318497 0.00000000
v 28.66670990 -29.49440956 0.00000000
v 28.78709793 -29.40962219 0.00000000
v 28.90317917 -29.31903076 0.00000000
v 29.01467705 -29.22285271 0.00000000
v 29.12132072 -29.12132072 0.00000000
v -26.70000076 26.70000076 0.00000000
v -26.70000076 20.79199982 0.00000000
v -29.31903076 28.90317917 0.00000000
v -29.22285271 29.01467705 0.00000000
v -29.40962219 28.78709793 0.00000000
v -29.49440956 28.66670990 0.00000000
v -29.57318497 28.54230881 0.00000000
v -29.64576340 28.41419029 0.00000000
v -29.71196747 28.28266525 0.00000000
v -29.77163887 28.14805031 0.00000000
v -29.82463264 28.01066971 0.00000000
v -29.87082100 27.87085342 0.00000000
v -29.91009331 27.72894096 0.00000000
v -29.94235611 27.58527184 0.00000000
v -29.96752930 27.44019127 0.00000000
v -29.98555374 27.29405212 0.00000000
v -29.99638557 27.14720345 0.00000000
v -29.12132072 29.12132072 0.00000000
v 29.22285271 -29.01467705 0.00000000
v -29.01467705 29.22285271 0.00000000
v 29.31903076 -28.90317917 0.00000000
v -28.90317917 29.31903076 0.00000000
v 29.40962219 -28.78709793 0.00000000
v -28.78709793 29.40962219 0.00000000
v 29.49440956 -28.66670990 0.00000000
v -28.66670990 29.49440956 0.00000000
v 29.57318497 -28.54230881 0.00000000
v -28.54230881 29.57318497 0.00000000
v 29.64576340 -28.41419029 0.00000000
v -28.41419029 29.64576340 0.00000000
v 29.71196747 -28.28266525 0.00000000
v -28.28266525 29.71196747 0.00000000
v -28.14805031 29.77163887 0.00000000
v 29.77163887 -28.14805031 0.00000000
v -28.01066971 29.82463264 0.00000000
v 29.82463264 -28.01066971 0.00000000
v -27.87085342 29.87082100 0.00000000
v 29.87082100 -27.87085342 0.00000000
v -27.72894096 29.91009331 0.00000000
v 29.91009331 -27.72894096 0.00000000
v -27.58527184 29.94235611 0.00000000
v 29.94235611 -27.58527184 0.00000000
v -27.44019127 29.96752930 0.00000000
v 29.96752930 -27.44019127 0.00000000
v 29.98555374 -27.29405212 0.00000000
v -27.29405212 29.98555374 0.00000000
v 29.99638557 -27.14720345 0.00000000
v -27.14720345 29.99638557 0.00000000
v 30.00000000 -27.00000000 0.00000000
v -27.00000000 30.00000000 0.00000000
v 27.29999924 -20.79199982 0.00000000
v 26.70000076 -20.79199982 0.00000000
v -20.79199982 27.29999924 0.00000000
v -20.79199982 26.70000076 0.00000000
v -19.79199982 27.29999924 0.00000000
v 27.29999924 -19.79199982 0.00000000
v -12.67520046 26.70000076 0.00000000
v -19.79199982 26.70000076 0.00000000
v -12.67520046 27.29999924 0.00000000
v 27.29999924 -12.67520046 0.00000000
v 26.70000076 -19.79199982 0.00000000
v 26.70000076 -12.67520046 0.00000000
v 27.29999924 -11.67520046 0.00000000
v -4.55840015 26.70000076 0.00000000
v -11.67520046 26.70000076 0.00000000
v -11.67520046 27.29999924 0.00000000
v -4.55840015 27.29999924 0.00000000
v 27.29999924 -4.55840015 0.00000000
v 26.70000076 -11.67520046 0.00000000
v 26.70000076 -4.55840015 0.00000000
v 3.55839992 27.29999924 0.00000000
v -3.55839992 26.70000076 0.00000000
v -3.55839992 27.29999924 0.00000000
v 3.55839992 26.70000076 0.00000000
v 27.29999924 3.55839992 0.00000000
v 26.70000076 -3.55839992 0.00000000
v 26.70000076 3.55839992 0.00000000
v 27.29999924 -3.55839992 0.00000000
v 11.67520046 27.29999924 0.00000000
v 4.55840015 26.70000076 0.00000000
v 4.55840015 27.29999924 0.00000000
v 11.67520046 26.70000076 0.00000000
v 27.29999924 11.67520046 0.00000000
v 26.70000076 4.55840015 0.00000000
v 26.70000076 11.67520046 0.00000000
v 27.29999924 4.55840015 0.00000000
v 19.79199982 27.29999924 0.00000000
v 12.67520046 26.70000076 0.00000000
v 12.67520046 27.29999924 0.00000000
v 19.79199982 26.70000076 0.00000000
v 27.29999924 19.79199982 0.00000000
v 26.70000076 12.67520046 0.00000000
v 26.70000076 19.79199982 0.00000000
v 27.29999924 12.67520046 0.00000000
v 26.70000076 26.70000076 0.00000000
v 20.79199982 26.70000076 0.00000000
v 20.79199982 27.29999924 0.00000000
v 27.29999924 20.79199982 0.00000000
v 26.70000076 20.79199982 0.00000000
v 27.00000000 30.00000000 0.00000000
v 30.00000000 27.00000000 0.00000000
v 29.99638557 27.14720345 0.00000000
v 27.14720345 29.99638557 0.00000000
v 29.98555374 27.29405212 0.00000000
v 27.29405212 29.98555374 0.00000000
v 29.96752930 27.44019127 0.00000000
v 27.44019127 29.96752930 0.00000000
v 29.94235611 27.58527184 0.00000000
v 27.58527184 29.94235611 0.00000000
v 29.91009331 27.72894096 0.00000000
v 27.72894096 29.91009331 0.00000000
v 29.87082100 27.87085342 0.00000000
v 27.87085342 29.87082100 0.00000000
v 29.82463264 28.01066971 0.00000000
v 28.01066971 29.82463264 0.00000000
v 29.77163887 28.14805031 0.00000000
v 28.14805031 29.77163887 0.00000000
v 29.71196747 28.28266525 0.00000000
v 28.28266525 29.71196747 0.00000000
v 29.64576340 28.41419029 0.00000000
v 28.41419029 29.64576340 0.00000000
v 29.57318497 28.54230881 0.00000000
v 28.54230881 29.57318497 0.00000000
v 28.66670990 29.49440956 0.00000000
v 29.49440956 28.66670990 0.00000000
v 29.40962219 28.78709793 0.00000000
v 28.78709793 29.40962219 0.00000000
v 29.31903076 28.90317917 0.00000000
v 28.90317917 29.31903076 0.00000000
v 29.22285271 29.01467705 0.00000000
v 29.01467705 29.22285271 0.00000000
v 29.12132072 29.12132072 0.00000000
v -27.14720345 -29.99638557 2.50000000
v -27.29405212 -29.98555374 2.50000000
v -27.44019127 -29.96752930 2.50000000
v -27.58527184 -29.94235611 2.50000000
v -27.72894096 -29.91009331 2.50000000
v -27.87085342 -29.87082100 2.50000000
v -28.01066971 -29.82463264 2.50000000
v -28.14805031 -29.77163887 2.50000000
v -28.28266525 -29.71196747 2.50000000
v -28.41419029 -29.64576340 2.50000000
v -28.54230881 -29.57318497 2.50000000
v -28.66670990 -29.49440956 2.50000000
v -28.78709793 -29.40962219 2.50000000
v -28.90317917 -29.31903076 2.50000000
v -29.01467705 -29.22285271 2.50000000
v -29.12132072 -29.12132072 2.50000000
v -29.22285271 -29.01467705 2.50000000
v -29.31903076 -28.90317917 2.50000000
v -29.40962219 -28.78709793 2.50000000
v -29.49440956 -28.66670990 2.50000000
v -29.57318497 -28.54230881 2.50000000
v -29.64576340 -28.41419029 2.50000000
v -29.71196747 -28.28266525 2.50000000
v -29.77163887 -28.14805031 2.50000000
v -29.82463264 -28.01066971 2.50000000
v -29.87082100 -27.87085342 2.50000000
v -29.91009331 -27.72894096 2.50000000
v -29.94235611 -27.58527184 2.50000000
v -29.96752930 -27.44019127 2.50000000
v -29.98555374 -27.29405212 2.50000000
v -29.99638557 -27.14720345 2.50000000
v -30.00000000 -27.00000000 2.50000000
v 27.14720345 -29.99638557 2.50000000
v 27.29405212 -29.98555374 2.50000000
v 27.44019127 -29.96752930 2.50000000
v 27.58527184 -29.94235611 2.50000000
v 27.72894096 -29.91009331 2.50000000
v 27.87085342 -29.87082100 2.50000000
v 28.01066971 -29.82463264 2.50000000
v 28.14805031 -29.77163887 2.50000000
v 28.28266525 -29.71196747 2.50000000
v 28.41419029 -29.64576340 2.50000000
v 28.54230881 -29.57318497 2.50000000
v 28.66670990 -29.49440956 2.50000000
v 28.78709793 -29.40962219 2.50000000
v 28.90317917 -29.31903076 2.50000000
v 29.01467705 -29.22285271 2.50000000
v 29.12132072 -29.12132072 2.50000000
v 29.22285271 -29.01467705 2.50000000
v 29.31903076 -28.90317917 2.50000000
v 29.40962219 -28.78709793 2.50000000
v 29.49440956 -28.66670990 2.50000000
v 29.57318497 -28.54230881 2.50000000
v 29.64576340 -28.41419029 2.50000000
v 29.71196747 -28.28266525 2.50000000
v 29.77163887 -28.14805031 2.50000000
v 29.82463264 -28.01066971 2.50000000
v 29.87082100 -27.87085342 2.50000000
v 29.91009331 -27.72894096 2.50000000
v 29.94235611 -27.58527184 2.50000000
v 29.96752930 -27.44019127 2.50000000
v 29.98555374 -27.29405212 2.50000000
v 29.99638557 -27.14720345 2.50000000
v 30.00000000 -27.00000000 2.50000000
v -30.00000000 27.00000000 2.50000000
v -29.98555374 27.29405212 2.50000000
v -29.99638557 27.14720345 2.50000000
v -29.87082100 27.87085342 2.50000000
v -29.91009331 27.72894096 2.50000000
v -29.94235611 27.58527184 2.50000000
v -29.96752930 27.44019127 2.50000000
v -29.71196747 28.28266525 2.50000000
v -29.77163887 28.14805031 2.50000000
v -29.82463264 28.01066971 2.50000000
v -29.64576340 28.41419029 2.50000000
v -29.49440956 28.66670990 2.50000000
v -29.57318497 28.54230881 2.50000000
v -29.40962219 28.78709793 2.50000000
v -29.31903076 28.90317917 2.50000000
v -29.01467705 29.22285271 2.50000000
v -29.12132072 29.12132072 2.50000000
v -29.22285271 29.01467705 2.50000000
v -28.66670990 29.49440956 2.50000000
v -28.78709793 29.40962219 2.50000000
v -28.90317917 29.31903076 2.50000000
v -28.54230881 29.57318497 2.50000000
v -28.28266525 29.71196747 2.50000000
v -28.41419029 29.64576340 2.50000000
v -27.87085342 29.87082100 2.50000000
v -28.01066971 29.82463264 2.50000000
v -28.14805031 29.77163887 2.50000000
v -27.58527184 29.94235611 2.50000000
v -27.72894096 29.91009331 2.50000000
v -27.44019127 29.96752930 2.50000000
v -27.14720345 29.99638557 2.50000000
v -27.29405212 29.98555374 2.50000000
v -27.00000000 30.00000000 2.50000000
v 27.00000000 30.00000000 2.50000000
v 30.00000000 27.00000000 2.50000000
v 27.14720345 29.99638557 2.50000000
v 29.99638557 27.14720345 2.50000000
v 29.98555374 27.29405212 2.50000000
v 29.96752930 27.44019127 2.50000000
v 27.72894096 29.91009331 2.50000000
v 27.58527184 29.94235611 2.50000000
v 27.44019127 29.96752930 2.50000000
v 27.29405212 29.98555374 2.50000000
v 29.82463264 28.01066971 2.50000000
v 29.94235611 27.58527184 2.50000000
v 29.91009331 27.72894096 2.50000000
v 29.87082100 27.87085342 2.50000000
v 28.01066971 29.82463264 2.50000000
v 27.87085342 29.87082100 2.50000000
v 29.77163887 28.14805031 2.50000000
v 28.28266525 29.71196747 2.50000000
v 28.14805031 29.77163887 2.50000000
v 28.41419029 29.64576340 2.50000000
v 29.57318497 28.54230881 2.50000000
v 29.71196747 28.28266525 2.50000000
v 29.64576340 28.41419029 2.50000000
v 28.54230881 29.57318497 2.50000000
v 28.78709793 29.40962219 2.50000000
v 29.49440956 28.66670990 2.50000000
v 28.66670990 29.49440956 2.50000000
v 29.31903076 28.90317917 2.50000000
v 29.40962219 28.78709793 2.50000000
v 29.22285271 29.01467705 2.50000000
v 28.90317917 29.31903076 2.50000000
v 29.12132072 29.12132072 2.50000000
v 29.01467705 29.22285271 2.50000000
v -26.70000076 -26.70000076 -10.00000000
v -20.79199982 -26.70000076 -10.00000000
v -20.79199982 -27.29999924 -9.00000000
v -20.79199982 -26.75000000 -10.00000000
v -19.79199982 -27.29999924 -9.00000000
v -19.79199982 -26.70000076 -10.00000000
v -19.79199982 -26.75000000 -10.00000000
v -12.67520046 -26.70000076 -10.00000000
v -12.67520046 -27.29999924 -9.00000000
v -12.67520046 -26.75000000 -10.00000000
v -11.67520046 -27.29999924 -9.00000000
v -11.67520046 -26.70000076 -10.00000000
v -11.67520046 -26.75000000 -10.00000000
v -4.55840015 -26.70000076 -10.00000000
v -4.55840015 -27.29999924 -9.00000000
v -4.55840015 -26.75000000 -10.00000000
v -3.55839992 -27.29999924 -9.00000000
v -3.55839992 -26.70000076 -10.00000000
v -3.55839992 -26.75000000 -10.00000000
v 3.55839992 -26.70000076 -10.00000000
v 3.55839992 -27.29999924 -9.00000000
v 3.55839992 -26.75000000 -10.00000000
v 4.55840015 -27.29999924 -9.00000000
v 4.55840015 -26.70000076 -10.00000000
v 4.55840015 -26.75000000 -10.00000000
v 11.67520046 -26.70000076 -10.00000000
v 11.67520046 -27.29999924 -9.00000000
v 11.67520046 -26.75000000 -10.00000000
v 12.67520046 -27.29999924 -9.00000000
v 12.67520046 -26.70000076 -10.00000000
v 12.67520046 -26.75000000 -10.00000000
v 19.79199982 -26.70000076 -10.00000000
v 19.79199982 -27.29999924 -9.00000000
v 19.79199982 -26.75000000 -10.00000000
v 20.79199982 -27.29999924 -9.00000000
v 20.79199982 -26.70000076 -10.00000000
v 20.79199982 -26.75000000 -10.00000000
v 26.70000076 -26.70000076 -10.00000000
v 26.70000076 -20.79199982 -10.00000000
v 27.29999924 -20.79199982 -9.00000000
v 26.75000000 -20.79199982 -10.00000000
v 27.29999924 -19.79199982 -9.00000000
v 26.70000076 -19.79199982 -10.00000000
v 26.75000000 -19.79199982 -10.00000000
v 26.70000076 -12.67520046 -10.00000000
v 27.29999924 -12.67520046 -9.00000000
v 26.75000000 -12.67520046 -10.00000000
v 27.29999924 -11.67520046 -9.00000000
v 26.70000076 -11.67520046 -10.00000000
v 26.75000000 -11.67520046 -10.00000000
v 26.70000076 -4.55840015 -10.00000000
v 27.29999924 -4.55840015 -9.00000000
v 26.75000000 -4.55840015 -10.00000000
v 27.29999924 -3.55839992 -9.00000000
v 26.70000076 -3.55839992 -10.00000000
v 26.75000000 -3.55839992 -10.00000000
v 26.70000076 3.55839992 -10.00000000
v 27.29999924 3.55839992 -9.00000000
v 26.75000000 3.55839992 -10.00000000
v 27.29999924 4.55840015 -9.00000000
v 26.70000076 4.55840015 -10.00000000
v 26.75000000 4.55840015 -10.00000000
v 26.70000076 11.67520046 -10.00000000
v 27.29999924 11.67520046 -9.00000000
v 26.75000000 11.67520046 -10.00000000
v 27.29999924 12.67520046 -9.00000000
v 26.70000076 12.67520046 -10.00000000
v 26.75000000 12.67520046 -10.00000000
v 26.70000076 19.79199982 -10.00000000
v 27.29999924 19.79199982 -9.00000000
v 26.75000000 19.79199982 -10.00000000
v 27.29999924 20.79199982 -9.00000000
v 26.70000076 20.79199982 -10.00000000
v 26.75000000 20.79199982 -10.00000000
v 26.70000076 26.70000076 -10.00000000
v 20.79199982 26.70000076 -10.00000000
v 20.79199982 27.29999924 -9.00000000
v 20.79199982 26.75000000 -10.00000000
v 19.79199982 27.29999924 -9.00000000
v 19.79199982 26.70000076 -10.00000000
v 19.79199982 26.75000000 -10.00000000
v 12.67520046 26.70000076 -10.00000000
v 12.67520046 27.29999924 -9.00000000
v 12.67520046 26.75000000 -10.00000000
v 11.67520046 27.29999924 -9.00000000
v 11.67520046 26.70000076 -10.00000000
v 11.67520046 26.75000000 -10.00000000
v 4.55840015 26.70000076 -10.00000000
v 4.55840015 27.29999924 -9.00000000
v 4.55840015 26.75000000 -10.00000000
v 3.55839992 27.29999924 -9.00000000
v 3.55839992 26.70000076 -10.00000000
v 3.55839992 26.75000000 -10.00000000
v -3.55839992 26.70000076 -10.00000000
v -3.55839992 27.29999924 -9.00000000
v -3.55839992 26.75000000 -10.00000000
v -4.55840015 27.29999924 -9.00000000
v -4.55840015 26.70000076 -10.00000000
v -4.55840015 26.75000000 -10.00000000
v -11.67520046 26.70000076 -10.00000000
v -11.67520046 27.29999924 -9.00000000
v -11.67520046 26.75000000 -10.00000000
v -12.67520046 27.29999924 -9.00000000
v -12.67520046 26.70000076 -10.00000000
v -12.67520046 26.75000000 -10.00000000
v -19.79199982 26.70000076 -10.00000000
v -19.79199982 27.29999924 -9.00000000
v -19.79199982 26.75000000 -10.00000000
v -20.79199982 27.29999924 -9.00000000
v -20.79199982 26.70000076 -10.00000000
v -20.79199982 26.75000000 -10.00000000
v -26.70000076 26.70000076 -10.00000000
v -26.70000076 20.79199982 -10.00000000
v -27.29999924 20.79199982 -9.00000000
v -26.75000000 20.79199982 -10.00000000
v -27.29999924 19.79199982 -9.00000000
v -26.70000076 19.79199982 -10.00000000
v -26.75000000 19.79199982 -10.00000000
v -26.70000076 12.67520046 -10.00000000
v -27.29999924 12.67520046 -9.00000000
v -26.75000000 12.67520046 -10.00000000
v -27.29999924 11.67520046 -9.00000000
v -26.70000076 11.67520046 -10.00000000
v -26.75000000 11.67520046 -10.00000000
v -26.70000076 4.55840015 -10.00000000
v -27.29999924 4.55840015 -9.00000000
v -26.75000000 4.55840015 -10.00000000
v -27.29999924 3.55839992 -9.00000000
v -26.70000076 3.55839992 -10.00000000
v -26.75000000 3.55839992 -10.00000000
v -26.70000076 -3.55839992 -10.00000000
v -27.29999924 -3.55839992 -9.00000000
v -26.75000000 -3.55839992 -10.00000000
v -27.29999924 -4.55840015 -9.00000000
v -26.70000076 -4.55840015 -10.00000000
v -26.75000000 -4.55840015 -10.00000000
v -26.70000076 -11.67520046 -10.00000000
v -27.29999924 -11.67520046 -9.00000000
v -26.75000000 -11.67520046 -10.00000000
v -27.29999924 -12.67520046 -9.00000000
v -26.70000076 -12.67520046 -10.00000000
v -26.75000000 -12.67520046 -10.00000000
v -26.70000076 -19.79199982 -10.00000000
v -27.29999924 -19.79199982 -9.00000000
v -26.75000000 -19.79199982 -10.00000000
v -27.29999924 -20.79199982 -9.00000000
v -26.70000076 -20.79199982 -10.00000000
v -26.75000000 -20.79199982 -10.00000000
v -24.70000076 -24.70000076 -10.00000000
v 24.70000076 -24.70000076 -10.00000000
v -24.70000076 24.70000076 -10.00000000
v 24.70000076 24.70000076 -10.00000000
v -24.70000076 -24.70000076 0.00000000
v 24.70000076 -24.70000076 0.00000000
v -24.70000076 24.70000076 0.00000000
v 24.70000076 24.70000076 0.00000000
f 1 2 3
f 1 4 2
f 5 3 6
f 5 6 7
f 5 7 8
f 5 8 9
f 5 9 10
f 5 10 11
f 5 11 12
f 5 12 13
f 5 13 14
f 5 14 15
f 5 15 16
f 5 16 17
f 5 17 18
f 5 18 19
f 5 19 20
f 5 20 21
f 5 21 22
f 5 22 23
f 5 23 24
f 5 24 25
f 5 25 26
f 5 26 27
f 5 27 28
f 5 28 29
f 5 29 30
f 5 30 31
f 5 31 32
f 5 32 33
f 5 33 34
f 5 34 35
f 5 35 36
f 5 36 37
f 38 3 5
f 39 5 37
f 40 5 39
f 41 38 5
f 42 39 37
f 43 3 38
f 44 42 37
f 45 3 43
f 46 42 44
f 46 47 42
f 48 45 43
f 48 43 49
f 50 3 45
f 51 44 37
f 52 51 37
f 52 53 51
f 54 50 55
f 54 3 50
f 56 53 52
f 57 54 55
f 58 3 54
f 59 60 61
f 62 60 59
f 63 58 64
f 63 65 58
f 66 67 68
f 66 68 69
f 70 71 72
f 70 73 71
f 74 75 76
f 74 76 77
f 78 79 80
f 78 81 79
f 82 76 69
f 82 83 77
f 82 69 68
f 82 77 76
f 1 81 84
f 1 73 79
f 1 65 71
f 1 3 58
f 1 58 65
f 1 71 73
f 1 79 81
f 85 86 1
f 85 87 86
f 85 88 87
f 85 89 88
f 85 90 89
f 85 91 90
f 85 84 92
f 85 93 91
f 85 94 93
f 85 95 94
f 85 96 95
f 85 97 96
f 85 98 97
f 85 99 98
f 85 100 99
f 85 101 100
f 85 102 101
f 85 1 84
f 103 104 83
f 103 105 106
f 103 107 105
f 103 108 107
f 103 109 108
f 103 110 109
f 103 111 110
f 103 112 111
f 103 113 112
f 103 114 113
f 103 115 114
f 103 116 115
f 103 117 116
f 103 118 117
f 103 119 118
f 103 83 82
f 103 82 119
f 120 103 106
f 121 102 85
f 122 103 120
f 123 121 85
f 124 103 122
f 125 123 85
f 126 103 124
f 127 125 85
f 128 103 126
f 129 127 85
f 130 103 128
f 131 129 85
f 132 103 130
f 133 131 85
f 134 103 132
f 135 103 134
f 136 133 85
f 137 103 135
f 138 136 85
f 139 103 137
f 140 138 85
f 141 103 139
f 142 140 85
f 143 103 141
f 144 142 85
f 145 103 143
f 146 144 85
f 147 146 85
f 148 103 145
f 149 147 85
f 150 103 148
f 151 149 85
f 152 103 150
f 153 85 154
f 153 151 85
f 155 103 152
f 155 156 103
f 157 155 152
f 158 151 153
f 159 160 157
f 161 159 157
f 161 157 152
f 162 163 164
f 162 158 163
f 162 151 158
f 165 151 162
f 166 167 168
f 169 166 168
f 170 151 165
f 170 171 172
f 170 165 171
f 173 174 175
f 173 176 174
f 177 178 179
f 177 180 178
f 181 182 183
f 181 184 182
f 185 186 187
f 185 188 186
f 189 190 191
f 189 192 190
f 193 194 195
f 193 196 194
f 197 198 199
f 197 200 201
f 202 189 191
f 202 197 199
f 202 199 189
f 203 188 185
f 203 196 193
f 203 200 197
f 203 193 200
f 203 185 196
f 204 203 197
f 205 197 202
f 206 204 197
f 207 197 205
f 208 206 197
f 209 197 207
f 210 208 197
f 211 197 209
f 212 210 197
f 213 197 211
f 214 212 197
f 215 197 213
f 216 214 197
f 217 197 215
f 218 216 197
f 219 197 217
f 220 218 197
f 221 197 219
f 222 220 197
f 223 197 221
f 224 222 197
f 225 197 223
f 226 197 225
f 227 224 197
f 228 227 197
f 229 197 226
f 230 228 197
f 231 197 229
f 232 230 197
f 233 197 231
f 234 232 197
f 234 197 233
f 151 188 203
f 151 177 188
f 151 180 177
f 151 170 180
f 202 161 152
f 202 168 161
f 202 169 168
f 202 175 169
f 202 173 175
f 202 183 173
f 202 181 183
f 202 191 181
f 82 52 37
f 82 61 52
f 82 59 61
f 82 68 59
f 235 6 3
f 235 3 2
f 236 7 6
f 236 6 235
f 237 8 7
f 237 7 236
f 238 9 8
f 238 8 237
f 239 10 9
f 239 9 238
f 240 11 10
f 240 12 11
f 240 10 239
f 241 12 240
f 242 12 241
f 242 13 12
f 243 13 242
f 243 14 13
f 243 15 14
f 244 15 243
f 245 15 244
f 245 16 15
f 246 17 16
f 246 16 245
f 247 18 17
f 247 19 18
f 247 17 246
f 248 19 247
f 249 20 19
f 249 21 20
f 249 19 248
f 250 21 249
f 251 22 21
f 251 23 22
f 251 21 250
f 252 23 251
f 253 24 23
f 253 23 252
f 254 25 24
f 254 24 253
f 255 26 25
f 255 25 254
f 256 27 26
f 256 26 255
f 257 28 27
f 257 27 256
f 258 29 28
f 258 30 29
f 258 28 257
f 259 30 258
f 260 31 30
f 260 30 259
f 261 32 31
f 261 31 260
f 262 33 32
f 262 32 261
f 263 34 33
f 263 33 262
f 264 35 34
f 264 36 35
f 264 34 263
f 265 37 36
f 265 36 264
f 266 37 265
f 267 1 86
f 267 4 1
f 268 86 87
f 268 267 86
f 269 87 88
f 269 268 87
f 270 88 89
f 270 269 88
f 271 89 90
f 271 270 89
f 272 90 91
f 272 91 93
f 272 271 90
f 273 272 93
f 274 273 93
f 274 93 94
f 275 274 94
f 275 94 95
f 275 95 96
f 276 275 96
f 277 276 96
f 277 96 97
f 278 97 98
f 278 277 97
f 279 98 99
f 279 99 100
f 279 278 98
f 280 279 100
f 281 100 101
f 281 101 102
f 281 280 100
f 282 281 102
f 283 102 121
f 283 121 123
f 283 282 102
f 284 283 123
f 285 123 125
f 285 284 123
f 286 125 127
f 286 285 125
f 287 127 129
f 287 286 127
f 288 129 131
f 288 287 129
f 289 131 133
f 289 288 131
f 290 133 136
f 290 136 138
f 290 289 133
f 291 290 138
f 292 138 140
f 292 291 138
f 293 140 142
f 293 292 140
f 294 142 144
f 294 293 142
f 295 144 146
f 295 294 144
f 296 146 147
f 296 147 149
f 296 295 146
f 297 149 151
f 297 296 149
f 298 297 151
f 251 250 249
f 246 248 247
f 246 249 248
f 255 254 253
f 256 252 251
f 256 253 252
f 256 255 253
f 243 245 244
f 242 246 245
f 242 245 243
f 258 257 256
f 240 242 241
f 240 246 242
f 261 259 258
f 261 260 259
f 261 256 251
f 261 258 256
f 238 240 239
f 238 251 249
f 238 249 246
f 238 246 240
f 238 261 251
f 263 262 261
f 235 237 236
f 265 264 263
f 2 238 237
f 2 237 235
f 266 261 238
f 266 263 261
f 266 265 263
f 266 238 2
f 299 266 2
f 4 299 2
f 268 4 267
f 300 301 299
f 269 4 268
f 271 269 270
f 271 4 269
f 272 4 271
f 302 300 299
f 302 303 304
f 302 304 305
f 302 305 300
f 273 4 272
f 274 4 273
f 306 307 308
f 306 308 302
f 276 274 275
f 276 4 274
f 309 306 302
f 278 276 277
f 278 4 276
f 310 311 309
f 312 310 309
f 280 278 279
f 280 4 278
f 313 302 299
f 313 309 302
f 313 312 309
f 281 4 280
f 283 281 282
f 283 4 281
f 314 313 299
f 314 315 316
f 314 316 313
f 285 283 284
f 285 4 283
f 286 4 285
f 317 318 319
f 287 4 286
f 320 314 299
f 320 319 314
f 320 317 319
f 321 322 320
f 290 288 289
f 291 287 288
f 291 288 290
f 323 324 325
f 293 291 292
f 293 287 291
f 326 327 323
f 326 323 325
f 294 287 293
f 328 326 325
f 297 287 294
f 297 294 295
f 297 295 296
f 329 330 328
f 329 325 321
f 329 328 325
f 329 321 320
f 298 299 4
f 298 287 297
f 298 4 287
f 331 299 298
f 331 329 320
f 331 320 299
f 332 331 298
f 333 332 298
f 334 332 333
f 334 333 335
f 336 334 335
f 337 334 336
f 338 339 340
f 338 340 341
f 338 341 334
f 342 337 343
f 342 343 344
f 342 344 345
f 346 347 338
f 348 334 337
f 348 346 338
f 348 338 334
f 348 337 342
f 349 350 346
f 351 349 346
f 352 348 353
f 352 353 354
f 355 351 346
f 356 352 357
f 356 358 355
f 356 346 348
f 356 348 352
f 356 355 346
f 359 357 360
f 361 362 356
f 361 356 357
f 361 357 359
f 363 364 362
f 363 362 361
f 37 299 82
f 37 266 299
f 203 298 151
f 203 333 298
f 329 152 150
f 329 331 152
f 330 150 148
f 330 148 145
f 330 329 150
f 328 330 145
f 326 145 143
f 326 328 145
f 327 143 141
f 327 141 139
f 327 326 143
f 323 327 139
f 324 139 137
f 324 323 139
f 325 137 135
f 325 324 137
f 321 325 135
f 321 135 134
f 322 134 132
f 322 321 134
f 320 132 130
f 320 130 128
f 320 322 132
f 317 320 128
f 318 128 126
f 318 317 128
f 319 126 124
f 319 318 126
f 314 124 122
f 314 319 124
f 315 122 120
f 315 314 122
f 316 120 106
f 316 315 120
f 313 106 105
f 313 316 106
f 312 105 107
f 312 313 105
f 310 107 108
f 310 312 107
f 311 108 109
f 311 310 108
f 309 109 110
f 309 311 109
f 306 110 111
f 306 309 110
f 307 111 112
f 307 306 111
f 308 112 113
f 308 307 112
f 302 113 114
f 302 308 113
f 303 114 115
f 303 302 114
f 304 115 116
f 304 303 115
f 305 116 117
f 305 304 116
f 300 117 118
f 300 118 119
f 300 305 117
f 301 300 119
f 301 119 82
f 299 301 82
f 335 203 204
f 335 333 203
f 336 204 206
f 336 206 208
f 336 335 204
f 337 336 208
f 343 208 210
f 343 337 208
f 344 210 212
f 344 212 214
f 344 343 210
f 345 344 214
f 342 214 216
f 342 345 214
f 348 216 218
f 348 218 220
f 348 342 216
f 353 348 220
f 354 220 222
f 354 353 220
f 352 222 224
f 352 354 222
f 357 224 227
f 357 352 224
f 360 227 228
f 360 228 230
f 360 357 227
f 359 360 230
f 361 230 232
f 361 359 230
f 363 232 234
f 363 361 232
f 364 234 233
f 364 363 234
f 362 233 231
f 362 364 233
f 356 231 229
f 356 229 226
f 356 362 231
f 358 356 226
f 355 226 225
f 355 358 226
f 351 225 223
f 351 355 225
f 349 223 221
f 349 351 223
f 350 221 219
f 350 349 221
f 346 219 217
f 346 350 219
f 347 217 215
f 347 346 217
f 338 215 213
f 338 347 215
f 339 213 211
f 339 338 213
f 340 211 209
f 340 209 207
f 340 339 211
f 341 340 207
f 334 207 205
f 334 205 202
f 334 341 207
f 332 334 202
f 152 332 202
f 152 331 332
f 41 5 365
f 41 365 366
f 367 38 41
f 368 367 366
f 366 367 41
f 369 43 38
f 369 38 367
f 369 49 43
f 370 369 371
f 49 369 370
f 48 49 370
f 48 370 372
f 373 45 48
f 374 373 372
f 372 373 48
f 375 50 45
f 375 45 373
f 375 55 50
f 376 375 377
f 55 375 376
f 57 55 376
f 57 376 378
f 379 54 57
f 380 379 378
f 378 379 57
f 381 58 54
f 381 54 379
f 381 64 58
f 382 381 383
f 64 381 382
f 63 64 382
f 63 382 384
f 385 65 63
f 386 385 384
f 384 385 63
f 387 71 65
f 387 65 385
f 387 72 71
f 388 387 389
f 72 387 388
f 70 72 388
f 70 388 390
f 391 73 70
f 392 391 390
f 390 391 70
f 393 79 73
f 393 73 391
f 393 80 79
f 394 393 395
f 80 393 394
f 78 80 394
f 78 394 396
f 397 81 78
f 398 397 396
f 396 397 78
f 399 84 81
f 399 81 397
f 399 92 84
f 400 399 401
f 92 399 400
f 85 92 400
f 85 400 402
f 154 85 402
f 154 402 403
f 404 153 154
f 405 404 403
f 403 404 154
f 406 158 153
f 406 153 404
f 406 163 158
f 407 406 408
f 163 406 407
f 164 163 407
f 164 407 409
f 410 162 164
f 411 410 409
f 409 410 164
f 412 165 162
f 412 162 410
f 412 171 165
f 413 412 414
f 171 412 413
f 172 171 413
f 172 413 415
f 416 170 172
f 417 416 415
f 415 416 172
f 418 180 170
f 418 170 416
f 418 178 180
f 419 418 420
f 178 418 419
f 179 178 419
f 179 419 421
f 422 177 179
f 423 422 421
f 421 422 179
f 424 188 177
f 424 177 422
f 424 186 188
f 425 424 426
f 186 424 425
f 187 186 425
f 187 425 427
f 428 185 187
f 429 428 427
f 427 428 187
f 430 196 185
f 430 185 428
f 430 194 196
f 431 430 432
f 194 430 431
f 195 194 431
f 195 431 433
f 434 193 195
f 435 434 433
f 433 434 195
f 436 200 193
f 436 193 434
f 436 201 200
f 437 436 438
f 201 436 437
f 197 201 437
f 197 437 439
f 198 197 439
f 198 439 440
f 441 199 198
f 442 441 440
f 440 441 198
f 443 189 199
f 443 199 441
f 443 192 189
f 444 443 445
f 192 443 444
f 190 192 444
f 190 444 446
f 447 191 190
f 448 447 446
f 446 447 190
f 449 181 191
f 449 191 447
f 449 184 181
f 450 449 451
f 184 449 450
f 182 184 450
f 182 450 452
f 453 183 182
f 454 453 452
f 452 453 182
f 455 173 183
f 455 183 453
f 455 176 173
f 456 455 457
f 176 455 456
f 174 176 456
f 174 456 458
f 459 175 174
f 460 459 458
f 458 459 174
f 461 169 175
f 461 175 459
f 461 166 169
f 462 461 463
f 166 461 462
f 167 166 462
f 167 462 464
f 465 168 167
f 466 465 464
f 464 465 167
f 467 161 168
f 467 168 465
f 467 159 161
f 468 467 469
f 159 467 468
f 160 159 468
f 160 468 470
f 471 157 160
f 472 471 470
f 470 471 160
f 473 155 157
f 473 157 471
f 473 156 155
f 474 473 475
f 156 473 474
f 103 156 474
f 103 474 476
f 104 103 476
f 104 476 477
f 478 83 104
f 479 478 477
f 477 478 104
f 480 77 83
f 480 83 478
f 480 74 77
f 481 480 482
f 74 480 481
f 75 74 481
f 75 481 483
f 484 76 75
f 485 484 483
f 483 484 75
f 486 69 76
f 486 76 484
f 486 66 69
f 487 486 488
f 66 486 487
f 67 66 487
f 67 487 489
f 490 68 67
f 491 490 489
f 489 490 67
f 492 59 68
f 492 68 490
f 492 62 59
f 493 492 494
f 62 492 493
f 60 62 493
f 60 493 495
f 496 61 60
f 497 496 495
f 495 496 60
f 498 52 61
f 498 61 496
f 498 56 52
f 499 498 500
f 56 498 499
f 53 56 499
f 53 499 501
f 502 51 53
f 503 502 501
f 501 502 53
f 504 44 51
f 504 51 502
f 504 46 44
f 505 504 506
f 46 504 505
f 47 46 505
f 47 505 507
f 508 42 47
f 509 508 507
f 507 508 47
f 510 39 42
f 510 42 508
f 510 40 39
f 511 510 512
f 40 510 511
f 5 40 511
f 5 511 365
f 370 368 366
f 370 371 368
f 370 366 513
f 507 513 511
f 507 512 509
f 507 511 512
f 377 374 372
f 503 505 506
f 376 377 372
f 501 505 503
f 495 500 497
f 495 499 500
f 382 380 378
f 382 383 380
f 388 386 384
f 388 389 386
f 489 494 491
f 489 493 494
f 483 488 485
f 483 487 488
f 394 392 390
f 394 395 392
f 477 482 479
f 477 481 482
f 400 398 396
f 400 401 398
f 514 400 396
f 515 481 477
f 470 515 474
f 407 403 514
f 472 470 474
f 472 474 475
f 408 405 403
f 408 403 407
f 414 411 409
f 414 409 413
f 466 468 469
f 466 464 468
f 460 462 463
f 460 458 462
f 420 417 415
f 420 415 419
f 426 423 421
f 426 421 425
f 454 456 457
f 454 452 456
f 446 450 451
f 432 429 427
f 432 427 431
f 448 446 451
f 438 433 437
f 438 435 433
f 442 440 444
f 442 444 445
f 516 437 433
f 516 444 440
f 365 513 366
f 400 514 402
f 402 514 403
f 437 516 439
f 439 516 440
f 474 515 476
f 476 515 477
f 511 513 365
f 514 370 513
f 514 372 370
f 514 376 372
f 514 378 376
f 514 382 378
f 514 384 382
f 514 388 384
f 514 390 388
f 514 394 390
f 514 396 394
f 513 481 515
f 513 483 481
f 513 487 483
f 513 489 487
f 513 493 489
f 513 495 493
f 513 499 495
f 513 501 499
f 513 505 501
f 513 507 505
f 515 444 516
f 515 446 444
f 515 450 446
f 515 452 450
f 515 456 452
f 515 458 456
f 515 462 458
f 515 464 462
f 515 468 464
f 515 470 468
f 516 407 514
f 516 409 407
f 516 413 409
f 516 415 413
f 516 419 415
f 516 421 419
f 516 425 421
f 516 427 425
f 516 431 427
f 516 433 431
f 371 369 367
f 371 367 368
f 377 375 373
f 377 373 374
f 383 381 379
f 383 379 380
f 389 387 385
f 389 385 386
f 395 393 391
f 395 391 392
f 401 399 397
f 401 397 398
f 405 406 404
f 408 406 405
f 411 412 410
f 414 412 411
f 417 418 416
f 420 418 417
f 423 424 422
f 426 424 423
f 429 430 428
f 432 430 429
f 435 436 434
f 438 436 435
f 442 443 441
f 445 443 442
f 448 449 447
f 451 449 448
f 454 455 453
f 457 455 454
f 460 461 459
f 463 461 460
f 466 467 465
f 469 467 466
f 472 473 471
f 475 473 472
f 479 480 478
f 482 480 479
f 485 486 484
f 488 486 485
f 491 492 490
f 494 492 491
f 497 498 496
f 500 498 497
f 503 504 502
f 506 504 503
f 509 510 508
f 512 510 509
f 514 513 517
f 518 514 517
f 513 515 519
f 517 513 519
f 515 516 520
f 519 515 520
f 516 514 518
f 520 516 518
f 518 517 519
f 520 518 519

