# https://github.com/mikedh/trimesh

o cap_40x40_nolip.stl
v 17.00000000 -20.00000000 2.50000000
v -17.00000000 -20.00000000 2.50000000
v -17.00000000 -20.00000000 0.00000000
v 17.00000000 -20.00000000 0.00000000
v -16.70000076 -16.70000076 0.00000000
v -17.14720345 -19.99638557 0.00000000
v -17.29405212 -19.98555374 0.00000000
v -17.44019127 -19.96752930 0.00000000
v -17.58527184 -19.94235611 0.00000000
v -17.72894096 -19.91009331 0.00000000
v -17.87085342 -19.87082100 0.00000000
v -18.01066971 -19.82463264 0.00000000
v -18.14805031 -19.77163887 0.00000000
v -18.28266525 -19.71196747 0.00000000
v -18.41419029 -19.64576340 0.00000000
v -18.54230881 -19.57318497 0.00000000
v -18.66670990 -19.49440956 0.00000000
v -18.78709793 -19.40962219 0.00000000
v -18.90317917 -19.31903076 0.00000000
v -19.01467705 -19.22285271 0.00000000
v -19.12132072 -19.12132072 0.00000000
v -19.22285271 -19.01467705 0.00000000
v -19.31903076 -18.90317917 0.00000000
v -19.40962219 -18.78709793 0.00000000
v -19.49440956 -18.66670990 0.00000000
v -19.57318497 -18.54230881 0.00000000
v -19.64576340 -18.41419029 0.00000000
v -19.71196747 -18.28266525 0.00000000
v -19.77163887 -18.14805031 0.00000000
v -19.82463264 -18.01066971 0.00000000
v -19.87082100 -17.87085342 0.00000000
v -19.91009331 -17.72894096 0.00000000
v -19.94235611 -17.58527184 0.00000000
v -19.96752930 -17.44019127 0.00000000
v -19.98555374 -17.29405212 0.00000000
v -19.99638557 -17.14720345 0.00000000
v -20.00000000 -17.00000000 0.00000000
v -13.19200039 -17.29999924 0.00000000
v -17.29999924 -13.19200039 0.00000000
v -16.70000076 -13.19200039 0.00000000
v -13.19200039 -16.70000076 0.00000000
v -12.19200039 -17.29999924 0.00000000
v -17.29999924 -12.19200039 0.00000000
v -17.29999924 -4.73066664 0.00000000
v -4.73066664 -17.29999924 0.00000000
v -4.73066664 -16.70000076 0.00000000
v -12.19200039 -16.70000076 0.00000000
v -16.70000076 -4.73066664 0.00000000
v -16.70000076 -12.19200039 0.00000000
v -17.29999924 -3.73066664 0.00000000
v -3.73066664 -17.29999924 0.00000000
v 3.73066664 -17.29999924 0.00000000
v -3.73066664 -16.70000076 0.00000000
v -17.29999924 3.73066664 0.00000000
v -16.70000076 -3.73066664 0.00000000
v 3.73066664 -16.70000076 0.00000000
v -16.70000076 3.73066664 0.00000000
v 12.19200039 -16.70000076 0.00000000
v 4.73066664 -17.29999924 0.00000000
v 4.73066664 -16.70000076 0.00000000
v 12.19200039 -17.29999924 0.00000000
v -16.70000076 12.19200039 0.00000000
v -17.29999924 4.73066664 0.00000000
v -17.29999924 12.19200039 0.00000000
v -16.70000076 4.73066664 0.00000000
v 13.19200039 -17.29999924 0.00000000
v -20.00000000 17.00000000 0.00000000
v -17.29999924 13.19200039 0.00000000
v -16.70000076 16.70000076 0.00000000
v -16.70000076 13.19200039 0.00000000
v -19.31903076 18.90317917 0.00000000
v -19.22285271 19.01467705 0.00000000
v -19.40962219 18.78709793 0.00000000
v -19.49440956 18.66670990 0.00000000
v -19.57318497 18.54230881 0.00000000
v -19.64576340 18.41419029 0.00000000
v -19.71196747 18.28266525 0.00000000
v -19.77163887 18.14805031 0.00000000
v -19.82463264 18.01066971 0.00000000
v -19.87082100 17.87085342 0.00000000
v -19.91009331 17.72894096 0.00000000
v -19.94235611 17.58527184 0.00000000
v -19.96752930 17.44019127 0.00000000
v -19.98555374 17.29405212 0.00000000
v -19.99638557 17.14720345 0.00000000
v 16.70000076 -16.70000076 0.00000000
v 17.14720345 -19.99638557 0.00000000
v 17.29405212 -19.98555374 0.00000000
v 17.44019127 -19.96752930 0.00000000
v 17.58527184 -19.94235611 0.00000000
v 17.72894096 -19.91009331 0.00000000
v 17.87085342 -19.87082100 0.00000000
v 18.01066971 -19.82463264 0.00000000
v 18.14805031 -19.77163887 0.00000000
v 18.28266525 -19.71196747 0.00000000
v 18.41419029 -19.64576340 0.00000000
v 18.54230881 -19.57318497 0.00000000
v 18.66670990 -19.49440956 0.00000000
v 18.78709793 -19.40962219 0.00000000
v 18.90317917 -19.31903076 0.00000000
v 19.01467705 -19.22285271 0.00000000
v 19.12132072 -19.12132072 0.00000000
v 13.19200039 -16.70000076 0.00000000
v -19.12132072 19.12132072 0.00000000
v 19.22285271 -19.01467705 0.00000000
v -19.01467705 19.22285271 0.00000000
v 19.31903076 -18.90317917 0.00000000
v -18.90317917 19.31903076 0.00000000
v 19.40962219 -18.78709793 0.00000000
v -18.78709793 19.40962219 0.00000000
v 19.49440956 -18.66670990 0.00000000
v -18.66670990 19.49440956 0.00000000
v 19.57318497 -18.54230881 0.00000000
v -18.54230881 19.57318497 0.00000000
v 19.64576340 -18.41419029 0.00000000
v -18.41419029 19.64576340 0.00000000
v -18.28266525 19.71196747 0.00000000
v 19.71196747 -18.28266525 0.00000000
v -18.14805031 19.77163887 0.00000000
v 19.77163887 -18.14805031 0.00000000
v -18.01066971 19.82463264 0.00000000
v 19.82463264 -18.01066971 0.00000000
v -17.87085342 19.87082100 0.00000000
v 19.87082100 -17.87085342 0.00000000
v -17.72894096 19.91009331 0.00000000
v 19.91009331 -17.72894096 0.00000000
v -17.58527184 19.94235611 0.00000000
v 19.94235611 -17.58527184 0.00000000
v -17.44019127 19.96752930 0.00000000
v 19.96752930 -17.44019127 0.00000000
v 19.98555374 -17.29405212 0.00000000
v -17.29405212 19.98555374 0.00000000
v 19.99638557 -17.14720345 0.00000000
v -17.14720345 19.99638557 0.00000000
v 20.00000000 -17.00000000 0.00000000
v -17.00000000 20.00000000 0.00000000
v -13.19200039 17.29999924 0.00000000
v -13.19200039 16.70000076 0.00000000
v 17.29999924 -13.19200039 0.00000000
v 16.70000076 -13.19200039 0.00000000
v -12.19200039 17.29999924 0.00000000
v 17.29999924 -12.19200039 0.00000000
v -4.73066664 17.29999924 0.00000000
v -12.19200039 16.70000076 0.00000000
v -4.73066664 16.70000076 0.00000000
v 17.29999924 -4.73066664 0.00000000
v 16.70000076 -12.19200039 0.00000000
v 16.70000076 -4.73066664 0.00000000
v 17.29999924 -3.73066664 0.00000000
v 17.29999924 3.73066664 0.00000000
v 16.70000076 -3.73066664 0.00000000
v 16.70000076 3.73066664 0.00000000
v 3.73066664 17.29999924 0.00000000
v -3.73066664 16.70000076 0.00000000
v -3.73066664 17.29999924 0.00000000
v 3.73066664 16.70000076 0.00000000
v 12.19200039 16.70000076 0.00000000
v 4.73066664 16.70000076 0.00000000
v 4.73066664 17.29999924 0.00000000
v 16.70000076 12.19200039 0.00000000
v 17.29999924 4.73066664 0.00000000
v 16.70000076 4.73066664 0.00000000
v 12.19200039 17.29999924 0.00000000
v 17.29999924 12.19200039 0.00000000
v 16.70000076 16.70000076 0.00000000
v 13.19200039 16.70000076 0.00000000
v 13.19200039 17.29999924 0.00000000
v 17.29999924 13.19200039 0.00000000
v 16.70000076 13.19200039 0.00000000
v 17.00000000 20.00000000 0.00000000
v 20.00000000 17.00000000 0.00000000
v 19.99638557 17.14720345 0.00000000
v 17.14720345 19.99638557 0.00000000
v 19.98555374 17.29405212 0.00000000
v 17.29405212 19.98555374 0.00000000
v 19.96752930 17.44019127 0.00000000
v 17.44019127 19.96752930 0.00000000
v 19.94235611 17.58527184 0.00000000
v 17.58527184 19.94235611 0.00000000
v 19.91009331 17.72894096 0.00000000
v 17.72894096 19.91009331 0.00000000
v 19.87082100 17.87085342 0.00000000
v 17.87085342 19.87082100 0.00000000
v 19.82463264 18.01066971 0.00000000
v 18.01066971 19.82463264 0.00000000
v 19.77163887 18.14805031 0.00000000
v 18.14805031 19.77163887 0.00000000
v 19.71196747 18.28266525 0.00000000
v 18.28266525 19.71196747 0.00000000
v 19.64576340 18.41419029 0.00000000
v 18.41419029 19.64576340 0.00000000
v 19.57318497 18.54230881 0.00000000
v 18.54230881 19.57318497 0.00000000
v 18.66670990 19.49440956 0.00000000
v 19.49440956 18.66670990 0.00000000
v 19.40962219 18.78709793 0.00000000
v 18.78709793 19.40962219 0.00000000
v 19.31903076 18.90317917 0.00000000
v 18.90317917 19.31903076 0.00000000
v 19.22285271 19.01467705 0.00000000
v 19.01467705 19.22285271 0.00000000
v 19.12132072 19.12132072 0.00000000
v -17.14720345 -19.99638557 2.50000000
v -17.29405212 -19.98555374 2.50000000
v -17.44019127 -19.96752930 2.50000000
v -17.58527184 -19.94235611 2.50000000
v -17.72894096 -19.91009331 2.50000000
v -17.87085342 -19.87082100 2.50000000
v -18.01066971 -19.82463264 2.50000000
v -18.14805031 -19.77163887 2.50000000
v -18.28266525 -19.71196747 2.50000000
v -18.41419029 -19.64576340 2.50000000
v -18.54230881 -19.57318497 2.50000000
v -18.66670990 -19.49440956 2.50000000
v -18.78709793 -19.40962219 2.50000000
v -18.90317917 -19.31903076 2.50000000
v -19.01467705 -19.22285271 2.50000000
v -19.12132072 -19.12132072 2.50000000
v -19.22285271 -19.01467705 2.50000000
v -19.31903076 -18.90317917 2.50000000
v -19.40962219 -18.78709793 2.50000000
v -19.49440956 -18.66670990 2.50000000
v -19.57318497 -18.54230881 2.50000000
v -19.64576340 -18.41419029 2.50000000
v -19.71196747 -18.28266525 2.50000000
v -19.77163887 -18.14805031 2.50000000
v -19.82463264 -18.01066971 2.50000000
v -19.87082100 -17.87085342 2.50000000
v -19.91009331 -17.72894096 2.50000000
v -19.94235611 -17.58527184 2.50000000
v -19.96752930 -17.44019127 2.50000000
v -19.98555374 -17.29405212 2.50000000
v -19.99638557 -17.14720345 2.50000000
v -20.00000000 -17.00000000 2.50000000
v 17.14720345 -19.99638557 2.50000000
v 17.29405212 -19.98555374 2.50000000
v 17.44019127 -19.96752930 2.50000000
v 17.58527184 -19.94235611 2.50000000
v 17.72894096 -19.91009331 2.50000000
v 17.87085342 -19.87082100 2.50000000
v 18.01066971 -19.82463264 2.50000000
v 18.14805031 -19.77163887 2.50000000
v 18.28266525 -19.71196747 2.50000000
v 18.41419029 -19.64576340 2.50000000
v 18.54230881 -19.57318497 2.50000000
v 18.66670990 -19.49440956 2.50000000
v 18.78709793 -19.40962219 2.50000000
v 18.90317917 -19.31903076 2.50000000
v 19.01467705 -19.22285271 2.50000000
v 19.12132072 -19.12132072 2.50000000
v 19.22285271 -19.01467705 2.50000000
v 19.31903076 -18.90317917 2.50000000
v 19.40962219 -18.78709793 2.50000000
v 19.49440956 -18.66670990 2.50000000
v 19.57318497 -18.54230881 2.50000000
v 19.64576340 -18.41419029 2.50000000
v 19.71196747 -18.28266525 2.50000000
v 19.77163887 -18.14805031 2.50000000
v 19.82463264 -18.01066971 2.50000000
v 19.87082100 -17.87085342 2.50000000
v 19.91009331 -17.72894096 2.50000000
v 19.94235611 -17.58527184 2.50000000
v 19.96752930 -17.44019127 2.50000000
v 19.98555374 -17.29405212 2.50000000
v 19.99638557 -17.14720345 2.50000000
v 20.00000000 -17.00000000 2.50000000
v -19.98555374 17.29405212 2.50000000
v -19.99638557 17.14720345 2.50000000
v -20.00000000 17.00000000 2.50000000
v -19.94235611 17.58527184 2.50000000
v -19.96752930 17.44019127 2.50000000
v -19.87082100 17.87085342 2.50000000
v -19.91009331 17.72894096 2.50000000
v -19.82463264 18.01066971 2.50000000
v -19.77163887 18.14805031 2.50000000
v -19.71196747 18.28266525 2.50000000
v -19.64576340 18.41419029 2.50000000
v -19.40962219 18.78709793 2.50000000
v -19.49440956 18.66670990 2.50000000
v -19.57318497 18.54230881 2.50000000
v -19.12132072 19.12132072 2.50000000
v -19.22285271 19.01467705 2.50000000
v -19.31903076 18.90317917 2.50000000
v -18.90317917 19.31903076 2.50000000
v -19.01467705 19.22285271 2.50000000
v -18.78709793 19.40962219 2.50000000
v -18.54230881 19.57318497 2.50000000
v -18.66670990 19.49440956 2.50000000
v -18.14805031 19.77163887 2.50000000
v -18.28266525 19.71196747 2.50000000
v -18.41419029 19.64576340 2.50000000
v -17.87085342 19.87082100 2.50000000
v -18.01066971 19.82463264 2.50000000
v -17.58527184 19.94235611 2.50000000
v -17.72894096 19.91009331 2.50000000
v -17.29405212 19.98555374 2.50000000
v -17.44019127 19.96752930 2.50000000
v -17.00000000 20.00000000 2.50000000
v -17.14720345 19.99638557 2.50000000
v 20.00000000 17.00000000 2.50000000
v 17.00000000 20.00000000 2.50000000
v 17.14720345 19.99638557 2.50000000
v 19.99638557 17.14720345 2.50000000
v 17.29405212 19.98555374 2.50000000
v 19.98555374 17.29405212 2.50000000
v 19.96752930 17.44019127 2.50000000
v 19.94235611 17.58527184 2.50000000
v 17.44019127 19.96752930 2.50000000
v 17.72894096 19.91009331 2.50000000
v 19.91009331 17.72894096 2.50000000
v 17.58527184 19.94235611 2.50000000
v 18.01066971 19.82463264 2.50000000
v 17.87085342 19.87082100 2.50000000
v 18.14805031 19.77163887 2.50000000
v 19.87082100 17.87085342 2.50000000
v 19.71196747 18.28266525 2.50000000
v 19.82463264 18.01066971 2.50000000
v 19.77163887 18.14805031 2.50000000
v 19.64576340 18.41419029 2.50000000
v 18.54230881 19.57318497 2.50000000
v 18.41419029 19.64576340 2.50000000
v 18.28266525 19.71196747 2.50000000
v 18.66670990 19.49440956 2.50000000
v 19.57318497 18.54230881 2.50000000
v 18.78709793 19.40962219 2.50000000
v 19.49440956 18.66670990 2.50000000
v 19.22285271 19.01467705 2.50000000
v 19.40962219 18.78709793 2.50000000
v 19.31903076 18.90317917 2.50000000
v 19.12132072 19.12132072 2.50000000
v 19.01467705 19.22285271 2.50000000
v 18.90317917 19.31903076 2.50000000
v -16.70000076 -16.70000076 -10.00000000
v -13.19200039 -16.70000076 -10.00000000
v -13.19200039 -17.29999924 -9.00000000
v -13.19200039 -16.75000000 -10.00000000
v -12.19200039 -17.29999924 -9.00000000
v -12.19200039 -16.70000076 -10.00000000
v -12.19200039 -16.75000000 -10.00000000
v -4.73066664 -16.70000076 -10.00000000
v -4.73066664 -17.29999924 -9.00000000
v -4.73066664 -16.75000000 -10.00000000
v -3.73066664 -17.29999924 -9.00000000
v -3.73066664 -16.70000076 -10.00000000
v -3.73066664 -16.75000000 -10.00000000
v 3.73066664 -16.70000076 -10.00000000
v 3.73066664 -17.29999924 -9.00000000
v 3.73066664 -16.75000000 -10.00000000
v 4.73066664 -17.29999924 -9.00000000
v 4.73066664 -16.70000076 -10.00000000
v 4.73066664 -16.75000000 -10.00000000
v 12.19200039 -16.70000076 -10.00000000
v 12.19200039 -17.29999924 -9.00000000
v 12.19200039 -16.75000000 -10.00000000
v 13.19200039 -17.29999924 -9.00000000
v 13.19200039 -16.70000076 -10.00000000
v 13.19200039 -16.75000000 -10.00000000
v 16.70000076 -16.70000076 -10.00000000
v 16.70000076 -13.19200039 -10.00000000
v 17.29999924 -13.19200039 -9.00000000
v 16.75000000 -13.19200039 -10.00000000
v 17.29999924 -12.19200039 -9.00000000
v 16.70000076 -12.19200039 -10.00000000
v 16.75000000 -12.19200039 -10.00000000
v 16.70000076 -4.73066664 -10.00000000
v 17.29999924 -4.73066664 -9.00000000
v 16.75000000 -4.73066664 -10.00000000
v 17.29999924 -3.73066664 -9.00000000
v 16.70000076 -3.73066664 -10.00000000
v 16.75000000 -3.73066664 -10.00000000
v 16.70000076 3.73066664 -10.00000000
v 17.29999924 3.73066664 -9.00000000
v 16.75000000 3.73066664 -10.00000000
v 17.29999924 4.73066664 -9.00000000
v 16.70000076 4.73066664 -10.00000000
v 16.75000000 4.73066664 -10.00000000
v 16.70000076 12.19200039 -10.00000000
v 17.29999924 12.19200039 -9.00000000
v 16.75000000 12.19200039 -10.00000000
v 17.29999924 13.19200039 -9.00000000
v 16.70000076 13.19200039 -10.00000000
v 16.75000000 13.19200039 -10.00000000
v 16.70000076 16.70000076 -10.00000000
v 13.19200039 16.70000076 -10.00000000
v 13.19200039 17.29999924 -9.00000000
v 13.19200039 16.75000000 -10.00000000
v 12.19200039 17.29999924 -9.00000000
v 12.19200039 16.70000076 -10.00000000
v 12.19200039 16.75000000 -10.00000000
v 4.73066664 16.70000076 -10.00000000
v 4.73066664 17.29999924 -9.00000000
v 4.73066664 16.75000000 -10.00000000
v 3.73066664 17.29999924 -9.00000000
v 3.73066664 16.70000076 -10.00000000
v 3.73066664 16.75000000 -10.00000000
v -3.73066664 16.70000076 -10.00000000
v -3.73066664 17.29999924 -9.00000000
v -3.73066664 16.75000000 -10.00000000
v -4.73066664 17.29999924 -9.00000000
v -4.73066664 16.70000076 -10.00000000
v -4.73066664 16.75000000 -10.00000000
v -12.19200039 16.70000076 -10.00000000
v -12.19200039 17.29999924 -9.00000000
v -12.19200039 16.75000000 -10.00000000
v -13.19200039 17.29999924 -9.00000000
v -13.19200039 16.70000076 -10.00000000
v -13.19200039 16.75000000 -10.00000000
v -16.70000076 16.70000076 -10.00000000
v -16.70000076 13.19200039 -10.00000000
v -17.29999924 13.19200039 -9.00000000
v -16.75000000 13.19200039 -10.00000000
v -17.29999924 12.19200039 -9.00000000
v -16.70000076 12.19200039 -10.00000000
v -16.75000000 12.19200039 -10.00000000
v -16.70000076 4.73066664 -10.00000000
v -17.29999924 4.73066664 -9.00000000
v -16.75000000 4.73066664 -10.00000000
v -17.29999924 3.73066664 -9.00000000
v -16.70000076 3.73066664 -10.00000000
v -16.75000000 3.73066664 -10.00000000
v -16.70000076 -3.73066664 -10.00000000
v -17.29999924 -3.73066664 -9.00000000
v -16.75000000 -3.73066664 -10.00000000
v -17.29999924 -4.73066664 -9.00000000
v -16.70000076 -4.73066664 -10.00000000
v -16.75000000 -4.73066664 -10.00000000
v -16.70000076 -12.19200039 -10.00000000
v -17.29999924 -12.19200039 -9.00000000
v -16.75000000 -12.19200039 -10.00000000
v -17.29999924 -13.19200039 -9.00000000
v -16.70000076 -13.19200039 -10.00000000
v -16.75000000 -13.19200039 -10.00000000
v -14.69999981 -14.69999981 -10.00000000
v 14.69999981 -14.69999981 -10.00000000
v -14.69999981 14.69999981 -10.00000000
v 14.69999981 14.69999981 -10.00000000
v 14.69999981 -14.69999981 0.00000000
v -14.69999981 -14.69999981 0.00000000
v -14.69999981 14.69999981 0.00000000
v 14.69999981 14.69999981 0.00000000
f 1 2 3
f 4 1 3
f 5 3 6
f 5 6 7
f 5 7 8
f 5 8 9
f 5 9 10
f 5 10 11
f 5 11 12
f 5 12 13
f 5 13 14
f 5 14 15
f 5 15 16
f 5 16 17
f 5 17 18
f 5 18 19
f 5 19 20
f 5 20 21
f 5 21 22
f 5 22 23
f 5 23 24
f 5 24 25
f 5 25 26
f 5 26 27
f 5 27 28
f 5 28 29
f 5 29 30
f 5 30 31
f 5 31 32
f 5 32 33
f 5 33 34
f 5 34 35
f 5 35 36
f 5 36 37
f 38 3 5
f 39 5 37
f 40 5 39
f 41 38 5
f 42 3 38
f 43 39 37
f 44 43 37
f 45 3 42
f 46 45 42
f 46 42 47
f 48 49 43
f 48 43 44
f 50 44 37
f 51 3 45
f 52 51 53
f 54 55 50
f 56 52 53
f 57 55 54
f 58 59 60
f 58 61 59
f 62 63 64
f 62 65 63
f 4 51 52
f 4 61 66
f 4 52 59
f 4 59 61
f 4 3 51
f 67 64 63
f 67 63 54
f 67 68 64
f 67 50 37
f 67 54 50
f 69 68 67
f 69 70 68
f 69 71 72
f 69 73 71
f 69 74 73
f 69 75 74
f 69 76 75
f 69 77 76
f 69 78 77
f 69 79 78
f 69 80 79
f 69 81 80
f 69 82 81
f 69 83 82
f 69 84 83
f 69 85 84
f 69 67 85
f 86 87 4
f 86 88 87
f 86 4 66
f 86 89 88
f 86 90 89
f 86 91 90
f 86 92 91
f 86 93 92
f 86 94 93
f 86 95 94
f 86 96 95
f 86 97 96
f 86 98 97
f 86 99 98
f 86 100 99
f 86 101 100
f 86 102 101
f 86 66 103
f 104 69 72
f 105 102 86
f 106 69 104
f 107 105 86
f 108 69 106
f 109 107 86
f 110 69 108
f 111 109 86
f 112 69 110
f 113 111 86
f 114 69 112
f 115 113 86
f 116 69 114
f 117 69 116
f 118 115 86
f 119 69 117
f 120 118 86
f 121 69 119
f 122 120 86
f 123 69 121
f 124 122 86
f 125 69 123
f 126 124 86
f 127 69 125
f 128 126 86
f 129 69 127
f 130 128 86
f 131 130 86
f 132 69 129
f 133 131 86
f 134 69 132
f 135 133 86
f 136 69 134
f 137 138 69
f 137 69 136
f 139 135 86
f 139 86 140
f 141 137 136
f 142 135 139
f 143 144 141
f 143 145 144
f 143 141 136
f 146 147 148
f 146 142 147
f 146 135 142
f 149 135 146
f 150 151 152
f 150 149 151
f 153 154 155
f 153 156 154
f 157 158 159
f 160 161 162
f 163 157 159
f 164 161 160
f 165 166 167
f 165 168 169
f 170 163 159
f 170 165 167
f 170 167 163
f 171 149 150
f 171 161 164
f 171 168 165
f 171 164 168
f 171 150 161
f 171 135 149
f 172 171 165
f 173 165 170
f 174 172 165
f 175 165 173
f 176 174 165
f 177 165 175
f 178 176 165
f 179 165 177
f 180 178 165
f 181 165 179
f 182 180 165
f 183 165 181
f 184 182 165
f 185 165 183
f 186 184 165
f 187 165 185
f 188 186 165
f 189 165 187
f 190 188 165
f 191 165 189
f 192 190 165
f 193 165 191
f 194 165 193
f 195 192 165
f 196 195 165
f 197 165 194
f 198 196 165
f 199 165 197
f 200 198 165
f 201 165 199
f 202 200 165
f 202 165 201
f 170 143 136
f 170 155 143
f 170 153 155
f 170 159 153
f 203 6 3
f 203 3 2
f 204 7 6
f 204 6 203
f 205 8 7
f 205 7 204
f 206 9 8
f 206 8 205
f 207 10 9
f 207 9 206
f 208 11 10
f 208 12 11
f 208 10 207
f 209 12 208
f 210 12 209
f 210 13 12
f 211 13 210
f 211 14 13
f 211 15 14
f 212 15 211
f 213 15 212
f 213 16 15
f 214 17 16
f 214 16 213
f 215 18 17
f 215 19 18
f 215 17 214
f 216 19 215
f 217 20 19
f 217 21 20
f 217 19 216
f 218 21 217
f 219 22 21
f 219 23 22
f 219 21 218
f 220 23 219
f 221 24 23
f 221 23 220
f 222 25 24
f 222 24 221
f 223 26 25
f 223 25 222
f 224 27 26
f 224 26 223
f 225 28 27
f 225 27 224
f 226 29 28
f 226 30 29
f 226 28 225
f 227 30 226
f 228 31 30
f 228 30 227
f 229 32 31
f 229 31 228
f 230 33 32
f 230 32 229
f 231 34 33
f 231 33 230
f 232 35 34
f 232 36 35
f 232 34 231
f 233 37 36
f 233 36 232
f 234 37 233
f 235 4 87
f 235 1 4
f 236 87 88
f 236 235 87
f 237 88 89
f 237 236 88
f 238 89 90
f 238 237 89
f 239 90 91
f 239 238 90
f 240 91 92
f 240 92 93
f 240 239 91
f 241 240 93
f 242 241 93
f 242 93 94
f 243 242 94
f 243 94 95
f 243 95 96
f 244 243 96
f 245 244 96
f 245 96 97
f 246 97 98
f 246 245 97
f 247 98 99
f 247 99 100
f 247 246 98
f 248 247 100
f 249 100 101
f 249 101 102
f 249 248 100
f 250 249 102
f 251 102 105
f 251 105 107
f 251 250 102
f 252 251 107
f 253 107 109
f 253 252 107
f 254 109 111
f 254 253 109
f 255 111 113
f 255 254 111
f 256 113 115
f 256 255 113
f 257 115 118
f 257 256 115
f 258 118 120
f 258 120 122
f 258 257 118
f 259 258 122
f 260 122 124
f 260 259 122
f 261 124 126
f 261 260 124
f 262 126 128
f 262 261 126
f 263 128 130
f 263 262 128
f 264 130 131
f 264 131 133
f 264 263 130
f 265 133 135
f 265 264 133
f 266 265 135
f 219 218 217
f 214 216 215
f 214 217 216
f 223 222 221
f 224 220 219
f 224 221 220
f 224 223 221
f 211 213 212
f 210 214 213
f 210 213 211
f 226 225 224
f 208 210 209
f 208 214 210
f 229 227 226
f 229 228 227
f 229 224 219
f 229 226 224
f 206 208 207
f 206 219 217
f 206 217 214
f 206 214 208
f 206 229 219
f 231 230 229
f 203 205 204
f 233 232 231
f 2 206 205
f 2 205 203
f 234 229 206
f 234 231 229
f 234 233 231
f 234 206 2
f 236 1 235
f 267 268 269
f 237 1 236
f 238 1 237
f 270 267 269
f 270 271 267
f 239 1 238
f 272 273 270
f 241 239 240
f 274 270 269
f 274 272 270
f 275 274 269
f 243 241 242
f 243 1 239
f 243 239 241
f 276 275 269
f 277 276 269
f 245 243 244
f 245 1 243
f 247 245 246
f 247 1 245
f 278 277 269
f 278 279 280
f 278 280 277
f 250 247 248
f 250 248 249
f 250 1 247
f 281 282 283
f 252 250 251
f 284 281 283
f 284 285 281
f 286 284 283
f 286 283 278
f 254 252 253
f 254 250 252
f 287 288 286
f 256 254 255
f 257 254 256
f 257 250 254
f 289 287 286
f 289 290 291
f 289 291 287
f 258 250 257
f 259 250 258
f 292 278 269
f 292 293 289
f 292 286 278
f 292 289 286
f 260 250 259
f 294 295 292
f 263 260 261
f 263 261 262
f 263 250 260
f 264 250 263
f 296 294 292
f 296 297 294
f 266 250 264
f 266 264 265
f 266 1 250
f 298 296 292
f 298 299 296
f 298 292 269
f 300 234 2
f 300 2 1
f 300 1 266
f 300 298 269
f 300 301 298
f 300 269 234
f 302 301 300
f 302 300 303
f 304 303 305
f 304 302 303
f 306 304 305
f 307 304 306
f 307 308 304
f 309 307 310
f 309 308 307
f 309 311 308
f 312 313 309
f 314 310 315
f 314 309 310
f 314 312 309
f 316 315 317
f 316 317 318
f 319 315 316
f 320 321 322
f 320 322 314
f 320 314 315
f 323 319 324
f 323 315 319
f 323 320 315
f 325 324 326
f 325 323 324
f 327 326 328
f 327 328 329
f 327 325 326
f 330 331 332
f 330 332 325
f 330 325 327
f 234 269 67
f 37 234 67
f 300 266 135
f 171 300 135
f 299 136 134
f 299 298 136
f 296 134 132
f 296 132 129
f 296 299 134
f 297 296 129
f 294 129 127
f 294 297 129
f 295 127 125
f 295 125 123
f 295 294 127
f 292 295 123
f 293 123 121
f 293 292 123
f 289 121 119
f 289 293 121
f 290 289 119
f 290 119 117
f 291 117 116
f 291 290 117
f 287 116 114
f 287 114 112
f 287 291 116
f 288 287 112
f 286 112 110
f 286 288 112
f 284 110 108
f 284 286 110
f 285 108 106
f 285 284 108
f 281 106 104
f 281 285 106
f 282 104 72
f 282 281 104
f 283 72 71
f 283 282 72
f 278 71 73
f 278 283 71
f 279 73 74
f 279 278 73
f 280 74 75
f 280 279 74
f 277 75 76
f 277 280 75
f 276 76 77
f 276 277 76
f 275 77 78
f 275 276 77
f 274 78 79
f 274 275 78
f 272 79 80
f 272 274 79
f 273 80 81
f 273 272 80
f 270 81 82
f 270 273 81
f 271 82 83
f 271 270 82
f 267 83 84
f 267 84 85
f 267 271 83
f 268 267 85
f 268 85 67
f 269 268 67
f 303 171 172
f 303 300 171
f 305 172 174
f 305 174 176
f 305 303 172
f 306 305 176
f 307 176 178
f 307 306 176
f 310 178 180
f 310 180 182
f 310 307 178
f 315 310 182
f 317 182 184
f 317 315 182
f 318 184 186
f 318 186 188
f 318 317 184
f 316 318 188
f 319 188 190
f 319 316 188
f 324 190 192
f 324 319 190
f 326 192 195
f 326 324 192
f 328 195 196
f 328 196 198
f 328 326 195
f 329 328 198
f 327 198 200
f 327 329 198
f 330 200 202
f 330 327 200
f 331 202 201
f 331 330 202
f 332 201 199
f 332 331 201
f 325 199 197
f 325 197 194
f 325 332 199
f 323 325 194
f 320 194 193
f 320 323 194
f 321 193 191
f 321 320 193
f 322 191 189
f 322 321 191
f 314 189 187
f 314 322 189
f 312 187 185
f 312 314 187
f 313 185 183
f 313 312 185
f 309 183 181
f 309 313 183
f 311 181 179
f 311 309 181
f 308 179 177
f 308 177 175
f 308 311 179
f 304 308 175
f 302 175 173
f 302 173 170
f 302 304 175
f 301 302 170
f 298 301 170
f 136 298 170
f 41 5 333
f 41 333 334
f 335 38 41
f 336 335 334
f 334 335 41
f 337 42 38
f 337 38 335
f 337 47 42
f 338 337 339
f 47 337 338
f 46 47 338
f 46 338 340
f 341 45 46
f 342 341 340
f 340 341 46
f 343 51 45
f 343 45 341
f 343 53 51
f 344 343 345
f 53 343 344
f 56 53 344
f 56 344 346
f 347 52 56
f 348 347 346
f 346 347 56
f 349 59 52
f 349 52 347
f 349 60 59
f 350 349 351
f 60 349 350
f 58 60 350
f 58 350 352
f 353 61 58
f 354 353 352
f 352 353 58
f 355 66 61
f 355 61 353
f 355 103 66
f 356 355 357
f 103 355 356
f 86 103 356
f 86 356 358
f 140 86 358
f 140 358 359
f 360 139 140
f 361 360 359
f 359 360 140
f 362 142 139
f 362 139 360
f 362 147 142
f 363 362 364
f 147 362 363
f 148 147 363
f 148 363 365
f 366 146 148
f 367 366 365
f 365 366 148
f 368 149 146
f 368 146 366
f 368 151 149
f 369 368 370
f 151 368 369
f 152 151 369
f 152 369 371
f 372 150 152
f 373 372 371
f 371 372 152
f 374 161 150
f 374 150 372
f 374 162 161
f 375 374 376
f 162 374 375
f 160 162 375
f 160 375 377
f 378 164 160
f 379 378 377
f 377 378 160
f 380 168 164
f 380 164 378
f 380 169 168
f 381 380 382
f 169 380 381
f 165 169 381
f 165 381 383
f 166 165 383
f 166 383 384
f 385 167 166
f 386 385 384
f 384 385 166
f 387 163 167
f 387 167 385
f 387 157 163
f 388 387 389
f 157 387 388
f 158 157 388
f 158 388 390
f 391 159 158
f 392 391 390
f 390 391 158
f 393 153 159
f 393 159 391
f 393 156 153
f 394 393 395
f 156 393 394
f 154 156 394
f 154 394 396
f 397 155 154
f 398 397 396
f 396 397 154
f 399 143 155
f 399 155 397
f 399 145 143
f 400 399 401
f 145 399 400
f 144 145 400
f 144 400 402
f 403 141 144
f 404 403 402
f 402 403 144
f 405 137 141
f 405 141 403
f 405 138 137
f 406 405 407
f 138 405 406
f 69 138 406
f 69 406 408
f 70 69 408
f 70 408 409
f 410 68 70
f 411 410 409
f 409 410 70
f 412 64 68
f 412 68 410
f 412 62 64
f 413 412 414
f 62 412 413
f 65 62 413
f 65 413 415
f 416 63 65
f 417 416 415
f 415 416 65
f 418 54 63
f 418 63 416
f 418 57 54
f 419 418 420
f 57 418 419
f 55 57 419
f 55 419 421
f 422 50 55
f 423 422 421
f 421 422 55
f 424 44 50
f 424 50 422
f 424 48 44
f 425 424 426
f 48 424 425
f 49 48 425
f 49 425 427
f 428 43 49
f 429 428 427
f 427 428 49
f 430 39 43
f 430 43 428
f 430 40 39
f 431 430 432
f 40 430 431
f 5 40 431
f 5 431 333
f 433 334 333
f 433 333 431
f 427 432 429
f 427 431 432
f 427 433 431
f 338 336 334
f 338 339 336
f 338 334 433
f 425 433 427
f 340 338 433
f 344 342 340
f 344 345 342
f 421 426 423
f 421 425 426
f 350 348 346
f 350 351 348
f 415 420 417
f 415 419 420
f 356 354 352
f 356 357 354
f 409 414 411
f 409 413 414
f 434 352 350
f 434 356 352
f 435 413 409
f 435 415 413
f 358 356 434
f 408 435 409
f 359 358 434
f 406 435 408
f 363 359 434
f 402 435 406
f 364 361 359
f 364 359 363
f 404 406 407
f 404 402 406
f 365 363 434
f 400 435 402
f 398 400 401
f 398 396 400
f 370 367 365
f 370 365 369
f 392 394 395
f 392 390 394
f 376 373 371
f 376 371 375
f 436 377 375
f 436 390 388
f 381 377 436
f 384 436 388
f 382 377 381
f 382 379 377
f 386 384 388
f 386 388 389
f 383 381 436
f 383 436 384
f 434 340 433
f 434 344 340
f 434 346 344
f 434 350 346
f 433 415 435
f 433 419 415
f 433 421 419
f 433 425 421
f 435 390 436
f 435 394 390
f 435 396 394
f 435 400 396
f 436 365 434
f 436 369 365
f 436 371 369
f 436 375 371
f 339 337 335
f 339 335 336
f 345 343 341
f 345 341 342
f 351 349 347
f 351 347 348
f 357 355 353
f 357 353 354
f 361 362 360
f 364 362 361
f 367 368 366
f 370 368 367
f 373 374 372
f 376 374 373
f 379 380 378
f 382 380 379
f 386 387 385
f 389 387 386
f 392 393 391
f 395 393 392
f 398 399 397
f 401 399 398
f 404 405 403
f 407 405 404
f 411 412 410
f 414 412 411
f 417 418 416
f 420 418 417
f 423 424 422
f 426 424 423
f 429 430 428
f 432 430 429
f 437 433 438
f 437 434 433
f 438 435 439
f 438 433 435
f 439 436 440
f 439 435 436
f 440 434 437
f 440 436 434
f 440 438 439
f 440 437 438

