# https://github.com/mikedh/trimesh

o cap_40x20_nolip.stl
v 17.00000000 -10.00000000 2.50000000
v -17.00000000 -10.00000000 2.50000000
v -17.00000000 -10.00000000 0.00000000
v 17.00000000 -10.00000000 0.00000000
v -16.70000076 -6.69999981 0.00000000
v -17.14720345 -9.99638653 0.00000000
v -17.29405212 -9.98555374 0.00000000
v -17.44019127 -9.96752930 0.00000000
v -17.58527184 -9.94235611 0.00000000
v -17.72894096 -9.91009331 0.00000000
v -17.87085342 -9.87082100 0.00000000
v -18.01066971 -9.82463264 0.00000000
v -18.14805031 -9.77163887 0.00000000
v -18.28266525 -9.71196747 0.00000000
v -18.41419029 -9.64576340 0.00000000
v -18.54230881 -9.57318592 0.00000000
v -18.66670990 -9.49440861 0.00000000
v -18.78709793 -9.40962219 0.00000000
v -18.90317917 -9.31903172 0.00000000
v -19.01467705 -9.22285366 0.00000000
v -19.12132072 -9.12132072 0.00000000
v -19.22285271 -9.01467705 0.00000000
v -19.31903076 -8.90318012 0.00000000
v -19.40962219 -8.78709793 0.00000000
v -19.49440956 -8.66671085 0.00000000
v -19.57318497 -8.54230785 0.00000000
v -19.64576340 -8.41419029 0.00000000
v -19.71196747 -8.28266525 0.00000000
v -19.77163887 -8.14805031 0.00000000
v -19.82463264 -8.01066971 0.00000000
v -19.87082100 -7.87085390 0.00000000
v -19.91009331 -7.72894049 0.00000000
v -19.94235611 -7.58527088 0.00000000
v -19.96752930 -7.44019127 0.00000000
v -19.98555374 -7.29405165 0.00000000
v -19.99638557 -7.14720297 0.00000000
v -20.00000000 -7.00000000 0.00000000
v -17.29999924 -5.59200001 0.00000000
v -16.70000076 -5.59200001 0.00000000
v -17.29999924 -4.59200001 0.00000000
v -13.19200039 -7.30000019 0.00000000
v -13.19200039 -6.69999981 0.00000000
v -12.19200039 -7.30000019 0.00000000
v -17.29999924 4.59200001 0.00000000
v -20.00000000 7.00000000 0.00000000
v -16.70000076 4.59200001 0.00000000
v -16.70000076 -4.59200001 0.00000000
v -4.73066664 -7.30000019 0.00000000
v -17.29999924 5.59200001 0.00000000
v -4.73066664 -6.69999981 0.00000000
v -12.19200039 -6.69999981 0.00000000
v -3.73066664 -7.30000019 0.00000000
v -16.70000076 6.69999981 0.00000000
v -16.70000076 5.59200001 0.00000000
v -19.31903076 8.90318012 0.00000000
v -19.22285271 9.01467705 0.00000000
v -19.40962219 8.78709793 0.00000000
v -19.49440956 8.66671085 0.00000000
v -19.57318497 8.54230785 0.00000000
v -19.64576340 8.41419029 0.00000000
v -19.71196747 8.28266525 0.00000000
v -19.77163887 8.14805031 0.00000000
v -19.82463264 8.01066971 0.00000000
v -19.87082100 7.87085390 0.00000000
v -19.91009331 7.72894049 0.00000000
v -19.94235611 7.58527088 0.00000000
v -19.96752930 7.44019127 0.00000000
v -19.98555374 7.29405165 0.00000000
v -19.99638557 7.14720297 0.00000000
v -19.12132072 9.12132072 0.00000000
v -19.01467705 9.22285366 0.00000000
v -18.90317917 9.31903172 0.00000000
v -18.78709793 9.40962219 0.00000000
v -18.66670990 9.49440861 0.00000000
v -18.54230881 9.57318592 0.00000000
v -18.41419029 9.64576340 0.00000000
v -18.28266525 9.71196747 0.00000000
v -18.14805031 9.77163887 0.00000000
v -18.01066971 9.82463264 0.00000000
v -17.87085342 9.87082100 0.00000000
v -17.72894096 9.91009331 0.00000000
v -17.58527184 9.94235611 0.00000000
v -17.44019127 9.96752930 0.00000000
v -17.29405212 9.98555374 0.00000000
v -17.14720345 9.99638653 0.00000000
v -17.00000000 10.00000000 0.00000000
v -13.19200039 7.30000019 0.00000000
v -13.19200039 6.69999981 0.00000000
v -12.19200039 7.30000019 0.00000000
v 3.73066664 -7.30000019 0.00000000
v -3.73066664 -6.69999981 0.00000000
v 3.73066664 -6.69999981 0.00000000
v -4.73066664 7.30000019 0.00000000
v -12.19200039 6.69999981 0.00000000
v -4.73066664 6.69999981 0.00000000
v 12.19200039 -6.69999981 0.00000000
v 4.73066664 -7.30000019 0.00000000
v 4.73066664 -6.69999981 0.00000000
v 12.19200039 -7.30000019 0.00000000
v 13.19200039 -7.30000019 0.00000000
v 16.70000076 -6.69999981 0.00000000
v 17.14720345 -9.99638653 0.00000000
v 17.29405212 -9.98555374 0.00000000
v 17.44019127 -9.96752930 0.00000000
v 17.58527184 -9.94235611 0.00000000
v 17.72894096 -9.91009331 0.00000000
v 17.87085342 -9.87082100 0.00000000
v 18.01066971 -9.82463264 0.00000000
v 18.14805031 -9.77163887 0.00000000
v 18.28266525 -9.71196747 0.00000000
v 18.41419029 -9.64576340 0.00000000
v 18.54230881 -9.57318592 0.00000000
v 18.66670990 -9.49440861 0.00000000
v 18.78709793 -9.40962219 0.00000000
v 18.90317917 -9.31903172 0.00000000
v 19.01467705 -9.22285366 0.00000000
v 19.12132072 -9.12132072 0.00000000
v 13.19200039 -6.69999981 0.00000000
v 19.22285271 -9.01467705 0.00000000
v 19.31903076 -8.90318012 0.00000000
v 3.73066664 6.69999981 0.00000000
v -3.73066664 6.69999981 0.00000000
v -3.73066664 7.30000019 0.00000000
v 19.40962219 -8.78709793 0.00000000
v 19.49440956 -8.66671085 0.00000000
v 3.73066664 7.30000019 0.00000000
v 19.57318497 -8.54230785 0.00000000
v 19.64576340 -8.41419029 0.00000000
v 19.71196747 -8.28266525 0.00000000
v 19.77163887 -8.14805031 0.00000000
v 17.29999924 -5.59200001 0.00000000
v 16.70000076 -5.59200001 0.00000000
v 19.82463264 -8.01066971 0.00000000
v 19.87082100 -7.87085390 0.00000000
v 19.91009331 -7.72894049 0.00000000
v 19.94235611 -7.58527088 0.00000000
v 19.96752930 -7.44019127 0.00000000
v 19.98555374 -7.29405165 0.00000000
v 19.99638557 -7.14720297 0.00000000
v 20.00000000 -7.00000000 0.00000000
v 17.29999924 -4.59200001 0.00000000
v 12.19200039 7.30000019 0.00000000
v 4.73066664 6.69999981 0.00000000
v 4.73066664 7.30000019 0.00000000
v 12.19200039 6.69999981 0.00000000
v 17.29999924 4.59200001 0.00000000
v 16.70000076 -4.59200001 0.00000000
v 16.70000076 4.59200001 0.00000000
v 16.70000076 6.69999981 0.00000000
v 13.19200039 6.69999981 0.00000000
v 13.19200039 7.30000019 0.00000000
v 17.29999924 5.59200001 0.00000000
v 16.70000076 5.59200001 0.00000000
v 17.00000000 10.00000000 0.00000000
v 20.00000000 7.00000000 0.00000000
v 19.99638557 7.14720297 0.00000000
v 17.14720345 9.99638653 0.00000000
v 19.98555374 7.29405165 0.00000000
v 17.29405212 9.98555374 0.00000000
v 19.96752930 7.44019127 0.00000000
v 17.44019127 9.96752930 0.00000000
v 19.94235611 7.58527088 0.00000000
v 17.58527184 9.94235611 0.00000000
v 19.91009331 7.72894049 0.00000000
v 17.72894096 9.91009331 0.00000000
v 19.87082100 7.87085390 0.00000000
v 17.87085342 9.87082100 0.00000000
v 19.82463264 8.01066971 0.00000000
v 18.01066971 9.82463264 0.00000000
v 19.77163887 8.14805031 0.00000000
v 18.14805031 9.77163887 0.00000000
v 19.71196747 8.28266525 0.00000000
v 18.28266525 9.71196747 0.00000000
v 19.64576340 8.41419029 0.00000000
v 18.41419029 9.64576340 0.00000000
v 19.57318497 8.54230785 0.00000000
v 18.54230881 9.57318592 0.00000000
v 19.49440956 8.66671085 0.00000000
v 18.66670990 9.49440861 0.00000000
v 19.40962219 8.78709793 0.00000000
v 18.78709793 9.40962219 0.00000000
v 19.31903076 8.90318012 0.00000000
v 18.90317917 9.31903172 0.00000000
v 19.22285271 9.01467705 0.00000000
v 19.01467705 9.22285366 0.00000000
v 19.12132072 9.12132072 0.00000000
v -17.14720345 -9.99638653 2.50000000
v -17.29405212 -9.98555374 2.50000000
v -17.44019127 -9.96752930 2.50000000
v -17.58527184 -9.94235611 2.50000000
v -17.72894096 -9.91009331 2.50000000
v -17.87085342 -9.87082100 2.50000000
v -18.01066971 -9.82463264 2.50000000
v -18.14805031 -9.77163887 2.50000000
v -18.28266525 -9.71196747 2.50000000
v -18.41419029 -9.64576340 2.50000000
v -18.54230881 -9.57318592 2.50000000
v -18.66670990 -9.49440861 2.50000000
v -18.78709793 -9.40962219 2.50000000
v -18.90317917 -9.31903172 2.50000000
v -19.01467705 -9.22285366 2.50000000
v -19.12132072 -9.12132072 2.50000000
v -19.22285271 -9.01467705 2.50000000
v -19.31903076 -8.90318012 2.50000000
v -19.40962219 -8.78709793 2.50000000
v -19.49440956 -8.66671085 2.50000000
v -19.57318497 -8.54230785 2.50000000
v -19.64576340 -8.41419029 2.50000000
v -19.71196747 -8.28266525 2.50000000
v -19.77163887 -8.14805031 2.50000000
v -19.82463264 -8.01066971 2.50000000
v -19.87082100 -7.87085390 2.50000000
v -19.91009331 -7.72894049 2.50000000
v -19.94235611 -7.58527088 2.50000000
v -19.96752930 -7.44019127 2.50000000
v -19.98555374 -7.29405165 2.50000000
v -19.99638557 -7.14720297 2.50000000
v -20.00000000 -7.00000000 2.50000000
v 17.14720345 -9.99638653 2.50000000
v 17.29405212 -9.98555374 2.50000000
v 17.44019127 -9.96752930 2.50000000
v 17.58527184 -9.94235611 2.50000000
v 17.72894096 -9.91009331 2.50000000
v 17.87085342 -9.87082100 2.50000000
v 18.01066971 -9.82463264 2.50000000
v 18.14805031 -9.77163887 2.50000000
v 18.28266525 -9.71196747 2.50000000
v 18.41419029 -9.64576340 2.50000000
v 18.54230881 -9.57318592 2.50000000
v 18.66670990 -9.49440861 2.50000000
v 18.78709793 -9.40962219 2.50000000
v 18.90317917 -9.31903172 2.50000000
v 19.01467705 -9.22285366 2.50000000
v 19.12132072 -9.12132072 2.50000000
v 19.22285271 -9.01467705 2.50000000
v 19.31903076 -8.90318012 2.50000000
v 19.40962219 -8.78709793 2.50000000
v 19.49440956 -8.66671085 2.50000000
v 19.57318497 -8.54230785 2.50000000
v 19.64576340 -8.41419029 2.50000000
v 19.71196747 -8.28266525 2.50000000
v 19.77163887 -8.14805031 2.50000000
v 19.82463264 -8.01066971 2.50000000
v 19.87082100 -7.87085390 2.50000000
v 19.91009331 -7.72894049 2.50000000
v 19.94235611 -7.58527088 2.50000000
v 19.96752930 -7.44019127 2.50000000
v 19.98555374 -7.29405165 2.50000000
v 19.99638557 -7.14720297 2.50000000
v 20.00000000 -7.00000000 2.50000000
v -20.00000000 7.00000000 2.50000000
v -19.98555374 7.29405165 2.50000000
v -19.99638557 7.14720297 2.50000000
v -19.96752930 7.44019127 2.50000000
v -19.91009331 7.72894049 2.50000000
v -19.94235611 7.58527088 2.50000000
v -19.77163887 8.14805031 2.50000000
v -19.82463264 8.01066971 2.50000000
v -19.87082100 7.87085390 2.50000000
v -19.57318497 8.54230785 2.50000000
v -19.64576340 8.41419029 2.50000000
v -19.71196747 8.28266525 2.50000000
v -19.49440956 8.66671085 2.50000000
v -19.40962219 8.78709793 2.50000000
v -19.31903076 8.90318012 2.50000000
v -19.12132072 9.12132072 2.50000000
v -19.22285271 9.01467705 2.50000000
v -19.01467705 9.22285366 2.50000000
v -18.90317917 9.31903172 2.50000000
v -18.78709793 9.40962219 2.50000000
v -18.66670990 9.49440861 2.50000000
v -18.54230881 9.57318592 2.50000000
v -18.41419029 9.64576340 2.50000000
v -18.14805031 9.77163887 2.50000000
v -18.28266525 9.71196747 2.50000000
v -18.01066971 9.82463264 2.50000000
v -17.87085342 9.87082100 2.50000000
v -17.72894096 9.91009331 2.50000000
v -17.29405212 9.98555374 2.50000000
v -17.44019127 9.96752930 2.50000000
v -17.58527184 9.94235611 2.50000000
v -17.00000000 10.00000000 2.50000000
v -17.14720345 9.99638653 2.50000000
v 17.00000000 10.00000000 2.50000000
v 20.00000000 7.00000000 2.50000000
v 19.96752930 7.44019127 2.50000000
v 19.99638557 7.14720297 2.50000000
v 19.98555374 7.29405165 2.50000000
v 17.58527184 9.94235611 2.50000000
v 17.44019127 9.96752930 2.50000000
v 17.29405212 9.98555374 2.50000000
v 17.87085342 9.87082100 2.50000000
v 17.72894096 9.91009331 2.50000000
v 19.82463264 8.01066971 2.50000000
v 19.91009331 7.72894049 2.50000000
v 19.87082100 7.87085390 2.50000000
v 18.28266525 9.71196747 2.50000000
v 18.14805031 9.77163887 2.50000000
v 18.01066971 9.82463264 2.50000000
v 19.64576340 8.41419029 2.50000000
v 19.94235611 7.58527088 2.50000000
v 19.77163887 8.14805031 2.50000000
v 19.71196747 8.28266525 2.50000000
v 17.14720345 9.99638653 2.50000000
v 18.54230881 9.57318592 2.50000000
v 18.41419029 9.64576340 2.50000000
v 19.49440956 8.66671085 2.50000000
v 19.57318497 8.54230785 2.50000000
v 18.78709793 9.40962219 2.50000000
v 18.66670990 9.49440861 2.50000000
v 19.31903076 8.90318012 2.50000000
v 19.40962219 8.78709793 2.50000000
v 19.22285271 9.01467705 2.50000000
v 19.12132072 9.12132072 2.50000000
v 19.01467705 9.22285366 2.50000000
v 18.90317917 9.31903172 2.50000000
v -16.70000076 -6.69999981 -10.00000000
v -13.19200039 -6.69999981 -10.00000000
v -13.19200039 -7.30000019 -9.00000000
v -13.19200039 -6.75000000 -10.00000000
v -12.19200039 -7.30000019 -9.00000000
v -12.19200039 -6.69999981 -10.00000000
v -12.19200039 -6.75000000 -10.00000000
v -4.73066664 -6.69999981 -10.00000000
v -4.73066664 -7.30000019 -9.00000000
v -4.73066664 -6.75000000 -10.00000000
v -3.73066664 -7.30000019 -9.00000000
v -3.73066664 -6.69999981 -10.00000000
v -3.73066664 -6.75000000 -10.00000000
v 3.73066664 -6.69999981 -10.00000000
v 3.73066664 -7.30000019 -9.00000000
v 3.73066664 -6.75000000 -10.00000000
v 4.73066664 -7.30000019 -9.00000000
v 4.73066664 -6.69999981 -10.00000000
v 4.73066664 -6.75000000 -10.00000000
v 12.19200039 -6.69999981 -10.00000000
v 12.19200039 -7.30000019 -9.00000000
v 12.19200039 -6.75000000 -10.00000000
v 13.19200039 -7.30000019 -9.00000000
v 13.19200039 -6.69999981 -10.00000000
v 13.19200039 -6.75000000 -10.00000000
v 16.70000076 -6.69999981 -10.00000000
v 16.70000076 -5.59200001 -10.00000000
v 17.29999924 -5.59200001 -9.00000000
v 16.75000000 -5.59200001 -10.00000000
v 17.29999924 -4.59200001 -9.00000000
v 16.70000076 -4.59200001 -10.00000000
v 16.75000000 -4.59200001 -10.00000000
v 16.70000076 4.59200001 -10.00000000
v 17.29999924 4.59200001 -9.00000000
v 16.75000000 4.59200001 -10.00000000
v 17.29999924 5.59200001 -9.00000000
v 16.70000076 5.59200001 -10.00000000
v 16.75000000 5.59200001 -10.00000000
v 16.70000076 6.69999981 -10.00000000
v 13.19200039 6.69999981 -10.00000000
v 13.19200039 7.30000019 -9.00000000
v 13.19200039 6.75000000 -10.00000000
v 12.19200039 7.30000019 -9.00000000
v 12.19200039 6.69999981 -10.00000000
v 12.19200039 6.75000000 -10.00000000
v 4.73066664 6.69999981 -10.00000000
v 4.73066664 7.30000019 -9.00000000
v 4.73066664 6.75000000 -10.00000000
v 3.73066664 7.30000019 -9.00000000
v 3.73066664 6.69999981 -10.00000000
v 3.73066664 6.75000000 -10.00000000
v -3.73066664 6.69999981 -10.00000000
v -3.73066664 7.30000019 -9.00000000
v -3.73066664 6.75000000 -10.00000000
v -4.73066664 7.30000019 -9.00000000
v -4.73066664 6.69999981 -10.00000000
v -4.73066664 6.75000000 -10.00000000
v -12.19200039 6.69999981 -10.00000000
v -12.19200039 7.30000019 -9.00000000
v -12.19200039 6.75000000 -10.00000000
v -13.19200039 7.30000019 -9.00000000
v -13.19200039 6.69999981 -10.00000000
v -13.19200039 6.75000000 -10.00000000
v -16.70000076 6.69999981 -10.00000000
v -16.70000076 5.59200001 -10.00000000
v -17.29999924 5.59200001 -9.00000000
v -16.75000000 5.59200001 -10.00000000
v -17.29999924 4.59200001 -9.00000000
v -16.70000076 4.59200001 -10.00000000
v -16.75000000 4.59200001 -10.00000000
v -16.70000076 -4.59200001 -10.00000000
v -17.29999924 -4.59200001 -9.00000000
v -16.75000000 -4.59200001 -10.00000000
v -17.29999924 -5.59200001 -9.00000000
v -16.70000076 -5.59200001 -10.00000000
v -16.75000000 -5.59200001 -10.00000000
v -14.69999981 -4.69999981 -10.00000000
v -14.69999981 4.69999981 -10.00000000
v 14.69999981 -4.69999981 -10.00000000
v 14.69999981 4.69999981 -10.00000000
v 14.69999981 -4.69999981 0.00000000
v -14.69999981 -4.69999981 0.00000000
v -14.69999981 4.69999981 0.00000000
v 14.69999981 4.69999981 0.00000000
f 1 2 3
f 4 1 3
f 5 3 6
f 5 6 7
f 5 7 8
f 5 8 9
f 5 9 10
f 5 10 11
f 5 11 12
f 5 12 13
f 5 13 14
f 5 14 15
f 5 15 16
f 5 16 17
f 5 17 18
f 5 18 19
f 5 19 20
f 5 20 21
f 5 21 22
f 5 22 23
f 5 23 24
f 5 24 25
f 5 25 26
f 5 26 27
f 5 27 28
f 5 28 29
f 5 29 30
f 5 30 31
f 5 31 32
f 5 32 33
f 5 33 34
f 5 34 35
f 5 35 36
f 5 36 37
f 38 5 37
f 39 5 38
f 40 38 37
f 41 3 5
f 42 41 5
f 43 3 41
f 44 40 37
f 44 37 45
f 46 47 40
f 46 40 44
f 48 3 43
f 49 44 45
f 50 43 51
f 50 48 43
f 52 3 48
f 53 54 49
f 53 49 45
f 53 55 56
f 53 57 55
f 53 58 57
f 53 59 58
f 53 60 59
f 53 61 60
f 53 62 61
f 53 63 62
f 53 64 63
f 53 65 64
f 53 66 65
f 53 67 66
f 53 68 67
f 53 69 68
f 53 45 69
f 70 53 56
f 71 53 70
f 72 53 71
f 73 53 72
f 74 53 73
f 75 53 74
f 76 53 75
f 77 53 76
f 78 53 77
f 79 53 78
f 80 53 79
f 81 53 80
f 82 53 81
f 83 53 82
f 84 53 83
f 85 53 84
f 86 53 85
f 87 88 53
f 87 53 86
f 89 87 86
f 90 52 91
f 92 90 91
f 93 94 89
f 93 95 94
f 93 89 86
f 96 97 98
f 96 99 97
f 4 3 52
f 4 52 90
f 4 99 100
f 4 90 97
f 4 97 99
f 101 102 4
f 101 103 102
f 101 104 103
f 101 105 104
f 101 106 105
f 101 107 106
f 101 108 107
f 101 109 108
f 101 110 109
f 101 111 110
f 101 112 111
f 101 113 112
f 101 114 113
f 101 115 114
f 101 116 115
f 101 117 116
f 101 4 100
f 101 100 118
f 119 117 101
f 120 119 101
f 121 122 123
f 124 120 101
f 125 124 101
f 126 121 123
f 127 125 101
f 128 127 101
f 129 128 101
f 130 129 101
f 131 101 132
f 133 130 101
f 134 133 101
f 135 134 101
f 136 135 101
f 137 136 101
f 138 137 101
f 139 138 101
f 140 139 101
f 140 101 131
f 140 131 141
f 142 143 144
f 142 145 143
f 146 147 148
f 146 141 147
f 149 150 151
f 149 152 153
f 154 151 142
f 154 142 144
f 154 149 151
f 155 146 152
f 155 140 141
f 155 141 146
f 155 152 149
f 156 155 149
f 157 149 154
f 158 156 149
f 159 149 157
f 160 158 149
f 161 149 159
f 162 160 149
f 163 149 161
f 164 162 149
f 165 149 163
f 166 164 149
f 167 149 165
f 168 166 149
f 169 149 167
f 170 168 149
f 171 149 169
f 172 170 149
f 173 149 171
f 174 172 149
f 175 149 173
f 176 174 149
f 177 149 175
f 178 176 149
f 179 149 177
f 180 178 149
f 181 149 179
f 182 180 149
f 183 149 181
f 184 182 149
f 185 149 183
f 186 184 149
f 186 149 185
f 154 93 86
f 154 123 93
f 154 126 123
f 154 144 126
f 187 6 3
f 187 3 2
f 188 7 6
f 188 6 187
f 189 8 7
f 189 7 188
f 190 9 8
f 190 8 189
f 191 10 9
f 191 9 190
f 192 11 10
f 192 12 11
f 192 10 191
f 193 12 192
f 194 12 193
f 194 13 12
f 195 13 194
f 195 14 13
f 195 15 14
f 196 15 195
f 197 15 196
f 197 16 15
f 198 17 16
f 198 16 197
f 199 18 17
f 199 19 18
f 199 17 198
f 200 19 199
f 201 20 19
f 201 21 20
f 201 19 200
f 202 21 201
f 203 22 21
f 203 23 22
f 203 21 202
f 204 23 203
f 205 24 23
f 205 23 204
f 206 25 24
f 206 24 205
f 207 26 25
f 207 25 206
f 208 27 26
f 208 26 207
f 209 28 27
f 209 27 208
f 210 29 28
f 210 30 29
f 210 28 209
f 211 30 210
f 212 31 30
f 212 30 211
f 213 32 31
f 213 31 212
f 214 33 32
f 214 32 213
f 215 34 33
f 215 33 214
f 216 35 34
f 216 36 35
f 216 34 215
f 217 37 36
f 217 36 216
f 218 37 217
f 219 4 102
f 219 1 4
f 220 102 103
f 220 219 102
f 221 103 104
f 221 220 103
f 222 104 105
f 222 221 104
f 223 105 106
f 223 222 105
f 224 106 107
f 224 107 108
f 224 223 106
f 225 224 108
f 226 225 108
f 226 108 109
f 227 226 109
f 227 109 110
f 227 110 111
f 228 227 111
f 229 228 111
f 229 111 112
f 230 112 113
f 230 229 112
f 231 113 114
f 231 114 115
f 231 230 113
f 232 231 115
f 233 115 116
f 233 116 117
f 233 232 115
f 234 233 117
f 235 117 119
f 235 119 120
f 235 234 117
f 236 235 120
f 237 120 124
f 237 236 120
f 238 124 125
f 238 237 124
f 239 125 127
f 239 238 125
f 240 127 128
f 240 239 127
f 241 128 129
f 241 240 128
f 242 129 130
f 242 130 133
f 242 241 129
f 243 242 133
f 244 133 134
f 244 243 133
f 245 134 135
f 245 244 134
f 246 135 136
f 246 245 135
f 247 136 137
f 247 246 136
f 248 137 138
f 248 138 139
f 248 247 137
f 249 139 140
f 249 248 139
f 250 249 140
f 205 204 203
f 198 200 199
f 198 201 200
f 207 206 205
f 209 208 207
f 209 207 205
f 194 196 195
f 193 197 196
f 193 198 197
f 193 196 194
f 213 210 209
f 213 211 210
f 213 212 211
f 213 209 205
f 189 191 190
f 189 192 191
f 189 193 192
f 189 202 201
f 189 203 202
f 189 205 203
f 189 201 198
f 189 198 193
f 215 214 213
f 217 216 215
f 218 217 215
f 2 188 187
f 2 189 188
f 2 213 205
f 2 215 213
f 2 205 189
f 2 218 215
f 251 218 2
f 252 253 251
f 254 252 251
f 255 254 251
f 255 256 254
f 257 258 259
f 257 259 255
f 260 261 262
f 260 262 257
f 263 260 257
f 264 257 255
f 264 263 257
f 265 264 255
f 266 267 265
f 268 265 255
f 268 266 265
f 269 268 255
f 270 269 255
f 271 270 255
f 272 271 255
f 273 255 251
f 273 272 255
f 274 273 251
f 274 275 273
f 276 274 251
f 277 276 251
f 278 277 251
f 279 280 281
f 279 281 278
f 282 278 251
f 282 279 278
f 282 283 279
f 282 251 2
f 220 1 219
f 221 1 220
f 224 221 222
f 224 222 223
f 226 224 225
f 226 1 221
f 226 221 224
f 228 226 227
f 229 226 228
f 229 1 226
f 231 229 230
f 231 1 229
f 234 231 232
f 234 232 233
f 234 1 231
f 236 234 235
f 237 234 236
f 238 234 237
f 241 234 238
f 241 238 239
f 241 239 240
f 242 234 241
f 243 234 242
f 244 234 243
f 247 244 245
f 247 245 246
f 250 234 244
f 250 244 247
f 250 247 248
f 250 248 249
f 250 1 234
f 284 2 1
f 284 1 250
f 284 282 2
f 285 284 250
f 286 285 287
f 286 287 288
f 289 290 291
f 292 289 291
f 292 293 289
f 294 295 296
f 297 298 299
f 297 299 292
f 300 284 285
f 300 286 301
f 300 301 295
f 300 285 286
f 300 294 302
f 300 302 303
f 300 295 294
f 300 304 284
f 305 306 297
f 305 292 291
f 305 297 292
f 307 300 308
f 309 310 305
f 309 291 304
f 309 305 291
f 311 307 312
f 311 300 307
f 313 300 311
f 314 315 316
f 314 316 309
f 314 304 300
f 314 309 304
f 314 300 313
f 37 251 45
f 37 218 251
f 155 250 140
f 155 285 250
f 283 86 85
f 283 282 86
f 279 85 84
f 279 84 83
f 279 283 85
f 280 279 83
f 281 83 82
f 281 280 83
f 278 82 81
f 278 81 80
f 278 281 82
f 277 278 80
f 276 80 79
f 276 277 80
f 274 79 78
f 274 276 79
f 275 274 78
f 275 78 77
f 273 77 76
f 273 275 77
f 272 76 75
f 272 75 74
f 272 273 76
f 271 272 74
f 270 74 73
f 270 271 74
f 269 73 72
f 269 270 73
f 268 72 71
f 268 269 72
f 266 71 70
f 266 268 71
f 267 70 56
f 267 266 70
f 265 56 55
f 265 267 56
f 264 55 57
f 264 265 55
f 263 57 58
f 263 264 57
f 260 58 59
f 260 263 58
f 261 59 60
f 261 260 59
f 262 60 61
f 262 261 60
f 257 61 62
f 257 262 61
f 258 62 63
f 258 257 62
f 259 63 64
f 259 258 63
f 255 64 65
f 255 259 64
f 256 65 66
f 256 255 65
f 254 66 67
f 254 256 66
f 252 67 68
f 252 68 69
f 252 254 67
f 253 252 69
f 253 69 45
f 251 253 45
f 287 155 156
f 287 285 155
f 288 156 158
f 288 158 160
f 288 287 156
f 286 288 160
f 301 160 162
f 301 286 160
f 295 162 164
f 295 164 166
f 295 301 162
f 296 295 166
f 294 166 168
f 294 296 166
f 302 168 170
f 302 170 172
f 302 294 168
f 303 302 172
f 300 172 174
f 300 303 172
f 308 174 176
f 308 300 174
f 307 176 178
f 307 308 176
f 312 178 180
f 312 180 182
f 312 307 178
f 311 312 182
f 313 182 184
f 313 311 182
f 314 184 186
f 314 313 184
f 315 186 185
f 315 314 186
f 316 185 183
f 316 315 185
f 309 183 181
f 309 181 179
f 309 316 183
f 310 309 179
f 305 179 177
f 305 310 179
f 306 177 175
f 306 305 177
f 297 175 173
f 297 306 175
f 298 173 171
f 298 297 173
f 299 171 169
f 299 298 171
f 292 169 167
f 292 299 169
f 293 167 165
f 293 292 167
f 289 165 163
f 289 293 165
f 290 163 161
f 290 161 159
f 290 289 163
f 291 290 159
f 304 159 157
f 304 157 154
f 304 291 159
f 284 304 154
f 282 284 154
f 86 282 154
f 42 5 317
f 42 317 318
f 319 41 42
f 320 319 318
f 318 319 42
f 321 43 41
f 321 41 319
f 321 51 43
f 322 321 323
f 51 321 322
f 50 51 322
f 50 322 324
f 325 48 50
f 326 325 324
f 324 325 50
f 327 52 48
f 327 48 325
f 327 91 52
f 328 327 329
f 91 327 328
f 92 91 328
f 92 328 330
f 331 90 92
f 332 331 330
f 330 331 92
f 333 97 90
f 333 90 331
f 333 98 97
f 334 333 335
f 98 333 334
f 96 98 334
f 96 334 336
f 337 99 96
f 338 337 336
f 336 337 96
f 339 100 99
f 339 99 337
f 339 118 100
f 340 339 341
f 118 339 340
f 101 118 340
f 101 340 342
f 132 101 342
f 132 342 343
f 344 131 132
f 345 344 343
f 343 344 132
f 346 141 131
f 346 131 344
f 346 147 141
f 347 346 348
f 147 346 347
f 148 147 347
f 148 347 349
f 350 146 148
f 351 350 349
f 349 350 148
f 352 152 146
f 352 146 350
f 352 153 152
f 353 352 354
f 153 352 353
f 149 153 353
f 149 353 355
f 150 149 355
f 150 355 356
f 357 151 150
f 358 357 356
f 356 357 150
f 359 142 151
f 359 151 357
f 359 145 142
f 360 359 361
f 145 359 360
f 143 145 360
f 143 360 362
f 363 144 143
f 364 363 362
f 362 363 143
f 365 126 144
f 365 144 363
f 365 121 126
f 366 365 367
f 121 365 366
f 122 121 366
f 122 366 368
f 369 123 122
f 370 369 368
f 368 369 122
f 371 93 123
f 371 123 369
f 371 95 93
f 372 371 373
f 95 371 372
f 94 95 372
f 94 372 374
f 375 89 94
f 376 375 374
f 374 375 94
f 377 87 89
f 377 89 375
f 377 88 87
f 378 377 379
f 88 377 378
f 53 88 378
f 53 378 380
f 54 53 380
f 54 380 381
f 382 49 54
f 383 382 381
f 381 382 54
f 384 44 49
f 384 49 382
f 384 46 44
f 385 384 386
f 46 384 385
f 47 46 385
f 47 385 387
f 388 40 47
f 389 388 387
f 387 388 47
f 390 38 40
f 390 40 388
f 390 39 38
f 391 390 392
f 39 390 391
f 5 39 391
f 5 391 317
f 387 392 389
f 387 391 392
f 393 318 317
f 393 317 391
f 393 391 387
f 322 320 318
f 322 323 320
f 322 318 393
f 383 385 386
f 381 385 383
f 328 326 324
f 328 329 326
f 394 381 380
f 394 387 385
f 394 393 387
f 394 385 381
f 378 394 380
f 374 394 378
f 376 378 379
f 376 374 378
f 334 332 330
f 334 335 332
f 370 368 372
f 370 372 373
f 340 338 336
f 340 341 338
f 395 342 340
f 395 340 336
f 343 342 395
f 362 366 367
f 364 362 367
f 347 343 395
f 348 345 343
f 348 343 347
f 396 347 395
f 356 396 360
f 358 360 361
f 358 356 360
f 349 347 396
f 353 349 396
f 354 351 349
f 354 349 353
f 355 396 356
f 355 353 396
f 395 322 393
f 395 324 322
f 395 328 324
f 395 330 328
f 395 334 330
f 395 336 334
f 394 360 396
f 394 362 360
f 394 366 362
f 394 368 366
f 394 372 368
f 394 374 372
f 323 321 319
f 323 319 320
f 329 327 325
f 329 325 326
f 335 333 331
f 335 331 332
f 341 339 337
f 341 337 338
f 345 346 344
f 348 346 345
f 351 352 350
f 354 352 351
f 361 359 357
f 361 357 358
f 367 365 363
f 367 363 364
f 373 371 369
f 373 369 370
f 379 377 375
f 379 375 376
f 383 384 382
f 386 384 383
f 389 390 388
f 392 390 389
f 397 393 398
f 397 395 393
f 399 393 394
f 398 393 399
f 399 396 400
f 399 394 396
f 397 396 395
f 400 396 397
f 397 398 399
f 400 397 399

